<svg xmlns="http://www.w3.org/2000/svg" xmlns:xlink="http://www.w3.org/1999/xlink" id="Capa_1" x="0px" y="0px" viewBox="0 0 60 60" xml:space="preserve"><g id="para_todos">	<path fill="none" stroke="#002853" stroke-width="2" stroke-linecap="round" stroke-linejoin="round" stroke-miterlimit="10" d="  M31.9,31.1c1.4-3.5,4.2-3.7,6.1-2.8l0,0c2.3,0.9,4.6,1.4,7,1.4c0.7,0,1.6,0,2.3-0.2c1.2-0.2,2.6,0.2,3.7,0.9"></path>			<ellipse fill="none" stroke="#004A92" stroke-width="1.9999" stroke-linecap="round" stroke-linejoin="round" stroke-miterlimit="9.9996" cx="29.1" cy="37.1" rx="6" ry="6"></ellipse>	<path fill="none" stroke="#004A92" stroke-width="2" stroke-linecap="round" stroke-linejoin="round" stroke-miterlimit="10" d="  M19.8,47.7c0.9-0.7,2.1-1.2,3.3-1.2c0.7,0,1.6,0.2,2.3,0.5c1.1,0.5,2.5,0.9,3.9,0.9c1.4,0,2.6-0.4,3.9-0.9c0.7-0.4,1.4-0.5,2.3-0.5  c1.4,0,2.8,0.7,3.7,1.6"></path>			<line fill="none" stroke="#004A92" stroke-width="2" stroke-linecap="round" stroke-linejoin="round" stroke-miterlimit="10" x1="40.8" y1="58.1" x2="40.8" y2="53.7"></line>			<line fill="none" stroke="#004A92" stroke-width="2" stroke-linecap="round" stroke-linejoin="round" stroke-miterlimit="10" x1="17.3" y1="58.1" x2="17.3" y2="53.7"></line>			<line fill="none" stroke="#004A92" stroke-width="2" stroke-linecap="round" stroke-linejoin="round" stroke-miterlimit="10" x1="23.1" y1="58.1" x2="23.1" y2="54.1"></line>			<line fill="none" stroke="#004A92" stroke-width="2" stroke-linecap="round" stroke-linejoin="round" stroke-miterlimit="10" x1="35.2" y1="58.1" x2="35.2" y2="54.1"></line>			<circle fill="none" stroke="#002853" stroke-width="2" stroke-linecap="round" stroke-linejoin="round" stroke-miterlimit="10" cx="24.2" cy="9.5" r="7.5"></circle>			<circle fill="none" stroke="#002853" stroke-width="2" stroke-linecap="round" stroke-linejoin="round" stroke-miterlimit="10" cx="44.5" cy="18.1" r="6.3"></circle>	<path fill="none" stroke="#002853" stroke-width="2" stroke-linecap="round" stroke-linejoin="round" stroke-miterlimit="10" d="  M31.2,20.2c0,0-3.7,1.9-6.5,2.1s-5.8-1.1-6.8-1.4c-3.3-1.1-7.2,0.5-8.8,3.5L3.3,36c-0.2,0.5-0.4,1.1-0.4,1.6s0.2,1.2,0.4,1.8  c0.2,0.2,0.4,0.5,0.5,0.7l0,0"></path>			<line fill="none" stroke="#002853" stroke-width="2" stroke-linecap="round" stroke-linejoin="round" stroke-miterlimit="10" x1="15.4" y1="29" x2="11.2" y2="37.6"></line>	<path fill="none" stroke="#002853" stroke-width="2" stroke-linecap="round" stroke-linejoin="round" stroke-miterlimit="10" d="  M11.2,37.6L18,47.7l0.2,0.4c1.2,1.8,0.7,4-1.1,5.1c-0.4,0.2-0.5,0.4-0.9,0.4c-0.4,0.2-0.9,0.2-1.2,0.2c-1.2,0-2.5-0.5-3.2-1.6  L3.8,40.2l0,0l-0.5-0.7"></path>	<path fill="none" stroke="#002853" stroke-width="2" stroke-linecap="round" stroke-linejoin="round" stroke-miterlimit="10" d="  M55.4,46.5l0.2-0.2c0.9-0.5,1.4-1.6,1.4-2.6c0-0.4,0-0.9-0.2-1.2l-2.6-6.8"></path>			<line fill="none" stroke="#002853" stroke-width="2" stroke-linecap="round" stroke-linejoin="round" stroke-miterlimit="10" x1="49.6" y1="42.5" x2="47.7" y2="37.6"></line>	<path fill="none" stroke="#002853" stroke-width="2" stroke-linecap="round" stroke-linejoin="round" stroke-miterlimit="10" d="  M49.6,42.5l-8.8,5.4c-0.2,0-0.2,0.2-0.4,0.2c-1.2,1.1-1.6,2.8-0.7,4.2c0.5,0.7,1.2,1.2,2.1,1.4c0.2,0,0.5,0,0.7,0  c0.5,0,1.2-0.2,1.8-0.5l11.1-6.8l0.2-0.2"></path>	<path fill="none" stroke="#002853" stroke-width="2" stroke-linecap="round" stroke-linejoin="round" stroke-miterlimit="10" d="  M51.2,34.6l-0.4-0.5c-1.1-1.4-0.7-3.3,0.7-4.4l0.4-0.4c2.1-1.2,6.3,4.4,4.2,5.6l-0.4,0.4C54.3,36.3,52.2,36,51.2,34.6z"></path></g><g id="saludables" display="none">	<g display="inline">		<path fill="#002853" d="M33,23.6c-0.5-0.5-0.9-1.1-1.4-1.6c-0.4-0.5-0.6-1.2-0.6-1.9c0.1-2.1-0.8-3.8-2.6-5   c-1.2-0.8-2.7-1.2-4.5-1c-2.3,0.2-3.9,1-5.1,2.5c-0.6,0.8-1.2,1.3-1.8,1.6c-1.5,0.7-2.6,1.8-3.4,3.4c-0.9,1.7-1.3,3.5-1.7,5   L11.8,27h-0.4h-0.3c-0.5,0-0.8,0.1-1.1,0.4c-0.2,0.2-0.3,0.6-0.3,1v0.5c0.1,1.1,0.1,2.2,0.4,3.2c1.5,7,5.5,12.1,12.1,15.1   c0.1,0.1,0.3,0.1,0.5,0.1c5.1,0,10.3,0,15.4,0c0.2,0,0.4,0,0.6-0.1c2.6-1.2,4.8-2.7,6.6-4.7c3.7-3.9,5.6-8.7,5.7-14   c0-0.5-0.1-0.8-0.3-1s-0.6-0.4-1.1-0.4h-1.9l0.2-0.7c0-0.1,0.1-0.2,0.1-0.3c0.9-2.9,0.5-5.4-1.3-7.5c-0.3-0.3-0.6-0.7-1-0.9   c-0.6-0.4-1.2-0.3-1.7,0.4l-1.3,1.6c-1.9,2.3-3.8,4.6-5.7,6.9c-0.5,0.7-1.2,0.7-1.7,0.6L34.8,27v-0.4c-0.2-1-0.8-1.8-1.5-2.7   L33,23.6z M14.4,26.5c0.4-1.9,1-3.8,2.5-5.3c0.3-0.3,0.6-0.5,0.9-0.6c0.8-0.3,1.5-0.9,2.2-1.6l0.2-0.3c0.1-0.1,0.2-0.3,0.4-0.4   l0.1-0.1c0.5-0.6,1.1-1.2,2-1.4c1.1-0.2,2.4-0.4,3.6,0c1.5,0.5,2.3,1.6,2.3,3.2c0,0.2,0,0.3,0,0.5c0,0.3,0,0.6,0,1   c0.2,1.1,0.8,2,1.4,2.7c0.4,0.5,0.9,1,1.3,1.5l1.3,1.4H19.8l1-1c0.2-0.2,0.3-0.3,0.5-0.5l0.1-0.1c0.4-0.5,0.9-1,1.3-1.5   c0.2-0.2,0.5-0.5,1-0.3c0.5,0.2,1.1,0.3,1.6,0.4c0.6,0.1,1.1-0.2,1.3-0.8c0.2-0.6-0.1-1.2-0.7-1.4c-0.2-0.1-0.4-0.1-0.6-0.2   l-0.9-0.3l0.3-0.7c0-0.1,0.1-0.2,0.1-0.3c0.3-0.6,0.1-1.3-0.4-1.6c-0.6-0.3-1.2-0.2-1.6,0.4c-0.2,0.3-0.4,0.7-0.6,1   c-0.5,0.9-1.1,1.8-1.8,2.6c-0.6,0.7-1.3,1.4-2,2l-0.6,0.7C17.1,26,17.1,26,17,26.8L16.8,27h-2.6L14.4,26.5z M45.2,20l0.3,0.7   c0,0.1,0.1,0.2,0.1,0.3c0.1,0.3,0.2,0.5,0.3,0.7c0.4,1.6,0.2,3.2-0.7,4.7c-0.1,0.2-0.4,0.4-0.7,0.4c-0.8,0-1.5,0-2.3,0   c-0.3,0-0.6,0-0.8,0h-1.9L45.2,20z M48.7,29.4v0.5c-0.1,1.2-0.3,2.4-0.7,3.6c-1.5,4.6-4.2,8.2-8.3,10.5c-0.5,0.3-1.1,0.5-1.6,0.8   c-0.2,0.1-0.5,0.1-0.7,0.1c-2.1,0-4.1,0-6.2,0c-2.6,0-5.1,0-7.7,0c-0.3,0-0.6-0.1-0.9-0.2c-5.8-2.9-9.3-7.6-10.3-14   c0-0.2,0-0.4-0.1-0.5c0-0.1,0-0.2,0-0.3l0.1-0.4l0.4-0.1H48.7z"></path>		<path fill="#004A92" d="M24.5,41.5c-0.1-0.1-0.2-0.2-0.3-0.2c-0.8-0.4-1.6-0.9-2.3-1.4c-1.5-1.1-2.8-2.5-3.8-4.1   c0-0.1-0.1-0.2-0.2-0.3c-0.2-0.2-0.5-0.4-0.8-0.4c-0.6,0-1.1,0.5-1.1,1.1c0,0.2,0.1,0.3,0.1,0.5c0,0.1,0.1,0.2,0.1,0.2   c1.6,2.5,3.8,4.6,6.4,6c0.2,0.1,0.4,0.2,0.6,0.3s0.3,0.2,0.6,0.2c0.6,0,1.1-0.5,1.1-1.1C25,42,24.8,41.7,24.5,41.5z"></path>	</g></g><g id="_x35_minutos" display="none">	<g display="inline">					<path fill="none" stroke="#002853" stroke-width="2.3" stroke-linecap="round" stroke-linejoin="round" stroke-miterlimit="10" d="   M23,25c2.4-3.2,6.2-5.2,10.5-5.2c7.2,0,13.1,5.9,13.1,13.1S40.8,46,33.5,46c-5.1,0-9.5-2.9-11.6-7.1"></path>					<polyline fill="none" stroke="#004A92" stroke-width="2.3" stroke-linecap="round" stroke-linejoin="round" stroke-miterlimit="10" points="   28.4,32.5 31.4,35.8 39.3,29.1   "></polyline>					<line fill="none" stroke="#002853" stroke-width="2.3" stroke-linecap="round" stroke-linejoin="round" stroke-miterlimit="10" x1="33.5" y1="19.8" x2="33.5" y2="14.6"></line>					<line fill="none" stroke="#002853" stroke-width="2.3" stroke-linecap="round" stroke-linejoin="round" stroke-miterlimit="10" x1="30.9" y1="14.1" x2="36" y2="14.1"></line>					<line fill="none" stroke="#004A92" stroke-width="2.3" stroke-linecap="round" stroke-linejoin="round" stroke-miterlimit="10" x1="22" y1="32" x2="13.1" y2="32"></line>					<line fill="none" stroke="#004A92" stroke-width="2.3" stroke-linecap="round" stroke-linejoin="round" stroke-miterlimit="10" x1="23.1" y1="28.4" x2="15.8" y2="28.4"></line>					<line fill="none" stroke="#004A92" stroke-width="2.3" stroke-linecap="round" stroke-linejoin="round" stroke-miterlimit="10" x1="22.1" y1="35.5" x2="15.1" y2="35.5"></line>	</g></g><g id="lucete" display="none">	<g display="inline">		<path fill="#004A92" d="M17.1,33c0-0.1-0.1-0.2-0.1-0.3c-0.1-0.2-0.1-0.3-0.2-0.5c-0.6-1.7-0.6-3.5-0.1-5.2   c0.1-0.4,0.2-0.8-0.2-1.2c-0.2-0.2-0.6-0.3-0.9-0.3c-0.3,0.1-0.6,0.3-0.7,0.7c-0.9,2.6-0.7,5.1,0.4,7.6c0.1,0.3,0.3,0.5,0.6,0.5   c0.1,0,0.2,0.1,0.3,0.1s0.3,0,0.4-0.1C17.1,34,17.4,33.5,17.1,33z"></path>		<path fill="#002853" stroke="#002853" stroke-width="0.8" stroke-miterlimit="10" d="M34.8,19c-4.6-4-13.1-4.5-18.5,1.4   c-4.9,5.3-5.2,14.3,1.7,20c6.3-6.5,12.6-12.9,19-19.4c-0.4-0.4-0.7-0.7-1.1-1L34.8,19z M39,21.2c-3.5,3.5-6.9,7.1-10.4,10.6   c-3.5,3.6-7,7.1-10.4,10.7l-1.2-1c-3.1-2.6-5.1-5.9-5.6-9.9s0.4-7.7,2.8-11C13,20,12.5,19,12.9,17.8c-0.1-0.2,0.1-0.4,0.2-0.7   c0.2-0.2,0.4-0.4,0.5-0.5c0.3-0.1,0.6-0.3,0.9-0.4c1.1-0.2,1.9,0.2,2.6,1.3c3.3-2.4,6.9-3.5,10.9-3C32.1,15,35.2,17,38,20L39,21.2   z M15.4,19c0.3-0.3,0.3-0.8,0-1.1c-0.3-0.3-0.8-0.3-1.1,0c-0.3,0.3-0.3,0.8,0,1.1C14.6,19.4,15.1,19.4,15.4,19z"></path>		<g id="_x38_jEVds.tif_1_">			<g>				<path fill="#002853" stroke="#002853" stroke-width="0.8" stroke-miterlimit="10" d="M46.8,42c0.3,0,0.5,0,0.7,0.1     c1.1,0.3,1.8,1.5,1.7,2.8S48.2,47,47,47c-2.1,0-4.1,0-6.2,0c-0.1,0-0.3,0-0.5,0H24.9c-0.1,0-0.3,0-0.4,0c-2.3,0-4.6,0-6.8,0     c-1.1,0-2.1-1-2.2-2.2c-0.1-1.3,0.6-2.5,1.7-2.8c0.2-0.1,0.4-0.1,0.7-0.1h1.5c8.7,0,17.5,0,26.2,0H46.8z M32.3,43.7     c-4.8,0-9.6,0-14.4,0c-0.1,0-0.3,0-0.4,0c-0.3,0-0.6,0.3-0.6,0.7s0.1,0.8,0.5,0.9c0.2,0.1,0.4,0.1,0.6,0.1c9.6,0,19.2,0,28.8,0     c0.1,0,0.2,0,0.4,0c0.4-0.1,0.7-0.4,0.7-0.9s-0.3-0.8-0.7-0.8c-0.1,0-0.2,0-0.4,0C42,43.7,37.2,43.7,32.3,43.7z"></path>			</g>		</g>		<path fill="#004A92" d="M28,36.5c-0.3-0.3-0.3-0.7,0-1c0.8-0.9,1.8-1.6,2.9-2.1c0.7-0.3,1.5-0.5,2.3-0.6c0.2,0,0.3-0.1,0.3-0.3   c0.2-0.5,0.4-0.9,0.5-1.3c0-0.1,0.1-0.2,0.2-0.4c1.3,0.8,2.5,1.6,3.8,2.4c0.5-1,1.3-1.7,2.5-1.9c0,0.1,0,0.1,0,0.2   c0,0.7-0.1,1.4-0.1,2.1c0,0.2,0,0.2,0.2,0.2c1.2,0.4,2.5,0.8,3.7,1.1c0.4,0.1,0.9,0.3,1.3,0.4c0.1-0.1,0.1-0.2,0.2-0.3   c0.5-1,1.1-2,1.8-2.8c0.2-0.3,0.5-0.5,0.9-0.6l0,0l-0.1,0.1c-0.4,1-0.7,2-0.8,3.1c-0.1,1.4,0,2.7,0.5,4c0.1,0.4,0.3,0.7,0.4,1.1   l0,0c-0.1,0-0.2,0-0.3-0.1c-0.2-0.2-0.4-0.3-0.6-0.5c-0.7-0.9-1.3-1.8-1.8-2.8c0-0.1-0.1-0.2-0.1-0.2c-1.5,0.5-3,1-4.5,1.4   l0.4,1.9c-0.9-0.1-1.7-0.6-2.2-1.2c-0.1-0.1-0.2-0.1-0.3-0.1c-0.8,0.2-1.6,0.4-2.3,0.5c-0.2,0-0.3,0.1-0.3,0.3   c-0.1,0.3-0.2,0.6-0.3,0.9c-0.3-0.3-0.6-0.6-0.9-0.9C35.3,39,35.2,39,35.1,39c-0.8,0-1.5-0.1-2.3-0.2l-1.3-0.4   C30,38,28.9,37.3,28,36.5z M30.2,35.5c0,0.4,0.3,0.6,0.7,0.6c0.4,0,0.7-0.3,0.7-0.6c0-0.4-0.3-0.7-0.7-0.7S30.2,35,30.2,35.5z"></path>	</g></g></svg>