<svg xmlns="http://www.w3.org/2000/svg" id="Capa_1" data-name="Capa 1" viewBox="0 0 300 112"><defs><style>.cls-1{fill:#fff;}.cls-2{fill:#f4d83f;}.cls-3{fill:#b2363c;}.cls-4{fill:#262424;}.cls-5{fill:#313c92;}</style></defs><path class="cls-1" d="M269.44,42.06a7.3,7.3,0,0,0-5.26-2.89c.06-4.81.18-14.89.18-14.89A4.24,4.24,0,0,0,262,20.42c-1.16-.58-1.16-.58-29.5-.45H189.65c-4.86.31-10.72-1.64-16.38-3.53-9-3-19-6.33-26.73-.69-7.66-5.64-17.7-2.31-26.72.69-5.68,1.89-11.56,3.84-16.43,3.53h-.27l-23.42,0a7.59,7.59,0,0,0-.49-.81C77,16,72.87,14.74,64.83,14.74H33.66c-9.51,0-17.31,8.53-17.94,16.16,0,.34,0,.67,0,1,0,5,3.25,8.61,8.68,9.51l4.47.74c0,.55,0,1.1,0,1.64,0,.76,0,1.52,0,2.26C24,59.86,16.36,81.34,16.36,81.34H44.18l1.41,0a34.12,34.12,0,0,0,6,3c10.27,4,21.72,3,28,.6,16.58,17.65,45.26,21.5,66.93,21.5,31.38,0,54.1-6.79,69.36-20.68,6,2.13,18.1,4.35,28.72-1.16a30.45,30.45,0,0,0,4.34-2.77h.92a12.35,12.35,0,0,0,11.56-8.34l3.12-8.79a11.45,11.45,0,0,0,.7-3.84A7.93,7.93,0,0,0,264,56.36a8.58,8.58,0,0,0-.71-.84h4.54l2.27-6.42a9.65,9.65,0,0,0,.57-3.16A6.57,6.57,0,0,0,269.44,42.06ZM28.07,36.31A4.65,4.65,0,0,1,27.61,35a5.83,5.83,0,0,1,1.21-.14v2.88Z"></path><path class="cls-1" d="M146.52,111.9c-21.41,0-50.22-3.68-68.47-20.77a49.13,49.13,0,0,1-28.46-1.69,40.57,40.57,0,0,1-5.48-2.61H8.61L22.8,46.69c-7.68-1.54-12.6-7.28-12.6-14.8,0-.47,0-.95.06-1.43.82-10,10.64-21.21,23.4-21.21H64.83c6.67,0,13.36.67,17.63,5.21l20.67,0,.61,0c3.8.23,9.17-1.54,14.35-3.27,8.66-2.88,19.2-6.38,28.45-1.87,9.29-4.52,19.82-1,28.46,1.88,5.18,1.72,10.51,3.5,14.3,3.26l.62,0h42.59c29.62-.14,29.62-.14,32,1a9.79,9.79,0,0,1,5.38,8.83l-.14,10.87a12,12,0,0,1,4.2,3.66h0a12.07,12.07,0,0,1,2.2,7.06,14.91,14.91,0,0,1-.89,5L271.66,61h-.94a17.08,17.08,0,0,1-1,5.5l-3.12,8.8a17.85,17.85,0,0,1-15.83,12,37.66,37.66,0,0,1-3.62,2.17c-9.91,5.14-21.44,4.75-30,2.44C200.92,105.35,177.76,111.9,146.52,111.9ZM81.08,78.49l2.51,2.67c15.35,16.34,42.69,19.77,62.93,19.77,30,0,51.44-6.29,65.66-19.25l2.44-2.22,3.1,1.11c6.21,2.22,16.3,3.32,24.35-.86a24.85,24.85,0,0,0,3.53-2.25l1.48-1.14h2.78a6.88,6.88,0,0,0,6.39-4.67l3.12-8.8a6.17,6.17,0,0,0,.38-2,2.5,2.5,0,0,0-.34-1.39l-.16-.17L250.53,50H263.9l1-2.76a4.1,4.1,0,0,0,.26-1.33,1.2,1.2,0,0,0-.17-.7h0a2.33,2.33,0,0,0-1.52-.62L258.63,44l.24-18.51c-3-.09-10.65-.06-26.33,0H189.92c-5.85.37-12.21-1.75-18.36-3.8-8.05-2.68-16.35-5.45-21.79-1.48l-3.24,2.38-3.24-2.39c-5.39-4-13.7-1.19-21.73,1.48-6.19,2.06-12.58,4.19-18.52,3.8l-26.65,0L74.85,22.5a2.12,2.12,0,0,0-.12-.2c-1-1.39-4.29-2.08-9.9-2.08H33.66c-6.4,0-12.06,6.09-12.47,11.13a4.87,4.87,0,0,0,0,.54,3.74,3.74,0,0,0,.77,2.49L21.38,31l4.82-1.28a10.52,10.52,0,0,1,2.48-.32l5.61-.14,0,8.21.11,0-.11,4.76c0,.51,0,1,0,1.52,0,.71,0,1.42,0,2.11l0,1-10.23,29H44.18l.94,0,2,0,1.4.89a29.08,29.08,0,0,0,5,2.52c9.29,3.59,19.5,2.31,24.11.57ZM28.94,40v.31l.07,0Zm4-6.3-1.12.59.18,0,1-.49Z"></path><path class="cls-2" d="M33,24.13l70.08.1c14.91.95,33.64-14.84,43.4-2.63,9.9-12.21,28.5,3.58,43.4,2.63h42.62c27.31-.13,27.57,0,27.57,0l-.21,17.33C258.41,97.24,217.63,82.49,215,80.74c-17.28,17.29-44.06,21.42-68.47,21.42-25.33,0-52.11-5.4-66-22.53-3.3,3.8-48.64,12.61-47.47-37.75Z"></path><path class="cls-3" d="M146.53,18.87c-6.82-6.51-16.53-3.29-25.95-.16-5.9,2-12,4-17.34,3.66h-.12l-70.07-.1a1.86,1.86,0,0,0-1.87,1.87l0,17.75c-.61,26.22,11.2,36.34,21.22,40.21,11,4.25,23,2.31,27.78,0,15.79,18.09,44.62,22,66.3,22,31.52,0,54-6.91,68.84-21.07,4.26,1.75,16.95,5.32,28.14-.5,11.55-6,17.7-19.74,18.26-40.83,0,0,.21-17.37.21-17.37a1.86,1.86,0,0,0-1-1.69c-.5-.25-.65-.33-28.42-.2H189.8c-5.32.34-11.41-1.69-17.29-3.65C163.11,15.58,153.42,12.36,146.53,18.87ZM148,22.78c5.3-6.55,13.67-3.76,23.36-.53,6.22,2.08,12.66,4.22,18.71,3.84h42.5c16.52-.08,23.07-.06,25.68,0,0,3-.19,15.48-.19,15.48C257.51,61,252.11,73.63,242,79c-11.22,6-24.58,1-26,.14a1.9,1.9,0,0,0-2.35.24c-14,14-36,20.88-67.15,20.88-21.37,0-49.92-3.79-64.51-21.84a1.91,1.91,0,0,0-2.86,0l0,0c-1.33,1.28-14.59,5-26.62-.28C40.85,73,34.93,61.43,34.93,43.81c0-.62,0-1.25,0-1.89,0,0,0-11.41,0-15.93l68.21.1H103c6.06.38,12.51-1.76,18.75-3.84,9.71-3.23,18.1-6,23.32.52a1.88,1.88,0,0,0,1.45.7A1.9,1.9,0,0,0,148,22.78Z"></path><path class="cls-1" d="M278.74,46.77a5.63,5.63,0,1,1,5.65,5.79A5.6,5.6,0,0,1,278.74,46.77Zm5.65,6.94a6.93,6.93,0,1,0-7-6.94A6.91,6.91,0,0,0,284.39,53.71Zm-1.47-6.39h1.39l2.11,3.46h1.36l-2.27-3.52a2.08,2.08,0,0,0,2.07-2.2c0-1.58-.94-2.27-2.82-2.27h-3.05v8h1.21Zm0-1V43.82h1.65c.84,0,1.74.18,1.74,1.17,0,1.23-.91,1.3-1.94,1.3Z"></path><path class="cls-4" d="M77.34,20.44C75.67,18,71.93,17,64.83,17H33.66C25.49,17,18.53,24.58,18,31.09c-.36,4.29,2.16,7.3,6.73,8.06l2.44.4L26,37.35a6,6,0,0,1-.76-2.6,2,2,0,0,1,.24-1c.58-.94,2.23-1.14,3.51-1.14h7L19.59,79.06H44.18c15.52,0,17.67-6.27,20.4-14.2l.6-1.71,9.26-26.21,1.2-3.3C77.82,27.69,79.4,23.39,77.34,20.44ZM58,34.92,49,60.33c-1.21,3.42-4.11,4.27-6.79,4.24,1-2.76,10.89-30.82,11.43-32.35,1.48,0,3.85.18,4.42,1a1,1,0,0,1,.15.58A3.61,3.61,0,0,1,58,34.92Z"></path><path class="cls-4" d="M106.66,44.75c-1.68-2.36-5.35-3.42-11.9-3.42-11.25,0-17.21,1.68-20.57,11.21L68.74,68c-1.5,4.24-1.59,7-.27,8.81,1.89,2.66,6,2.64,11.77,2.61h2c9.16,0,15.2,0,19-10.74l5.39-15.26C107.55,50.67,108.42,47.25,106.66,44.75Zm-15,9.52L87.33,66.54A2.76,2.76,0,0,1,84,68.2c-.38-.13-.52-.29-.33-.83L88,55.1a3.16,3.16,0,0,1,3.47-1.86.37.37,0,0,1,.29.41A1.84,1.84,0,0,1,91.67,54.27Z"></path><polygon class="cls-4" points="119.36 29.68 101.8 79.37 116.4 79.37 133.95 29.68 119.36 29.68"></polygon><path class="cls-4" d="M196.48,41.89c-2.13-1.52-5.8-.89-8.54,1.47,0,0-1.63,1.44-3.29,2.93.44-1.24,1.52-4.33,1.52-4.33H171.42L158.14,79.52H172.9l6.81-19.25,6.14-5.68-1,4.18h8.74L197.41,48C199,44.21,197.27,42.46,196.48,41.89Z"></path><path class="cls-4" d="M232.47,43.77c-1-1.41-2.84-2.13-5.46-2.13H209.54a10.26,10.26,0,0,0-9.32,6.49l-8.4,23.77c-.62,1.75-1.47,4.15-.17,6,.93,1.31,2.65,1.93,5.27,1.93h17.62c7.35,0,8.75-4,9.77-6.88l.16-.47.92-4.46H209.92l-.29.83a2.29,2.29,0,0,1-2.25,1.6c-.11,0-.2-.23-.2-.57a4.32,4.32,0,0,1,.3-1.41l.87-2.47h11.08c5.2-.31,8.15-2.32,9.63-6.49l3.67-10.38a8.31,8.31,0,0,0,.53-2.73A4.49,4.49,0,0,0,232.47,43.77Zm-16.56,9.85a11,11,0,0,1-.64,2.66h-3.62c.8-2.46,1.94-3,3.47-3a1.52,1.52,0,0,1,.75.11A.6.6,0,0,1,215.91,53.62Z"></path><path class="cls-4" d="M267.58,43.38c-1-1.36-2.68-2.05-5.11-2.05H247.05c-4.8,0-8.21,2.46-9.85,7.13l-3.52,10v0c-.64,2.51-.45,4.37.57,5.68s2.6,1.85,5,1.85h7.56c1.35,0,1.66.27,1.66.27s-.21.52-.29.7l-.14.36a4.9,4.9,0,0,1-2.52,2.73,2.52,2.52,0,0,1-1.19.32,2.14,2.14,0,0,1,.14-.64l.59-1.65H230.26L229,71.73a6.94,6.94,0,0,0,.9,5.69,5,5,0,0,0,4.25,2.1h15.74a10,10,0,0,0,9.41-6.8l3.12-8.81A9.51,9.51,0,0,0,263,60.8a5.54,5.54,0,0,0-.89-3.15,5.35,5.35,0,0,0-4.55-2.16l-4.5-.16c-2.46,0-3-.54-3.14-.7a.75.75,0,0,1-.11-.43,2.89,2.89,0,0,1,.21-1,4.41,4.41,0,0,1,3.09-2.12,3,3,0,0,1-.13.48l-.59,1.66h13.83l1.72-4.9A5.29,5.29,0,0,0,267.58,43.38Z"></path><path class="cls-4" d="M163.05,44.77c-1.68-2.38-5.39-3.44-12-3.44-11,0-16.89,1.68-20.27,11.21L125.3,68c-1.51,4.25-1.59,7-.28,8.83,1.88,2.64,5.93,2.62,11.53,2.59h1.89c9.25,0,15.36,0,19.16-10.74L163,53.37C164,50.67,164.81,47.26,163.05,44.77Zm-15.13,9.5-4.34,12.27a2.68,2.68,0,0,1-2,1.72,1.51,1.51,0,0,1-1.31-.22c-.13-.16,0-.48,0-.67L144.6,55.1a3.13,3.13,0,0,1,2.34-1.9,1.32,1.32,0,0,1,1.06.12C148.08,53.43,148.1,53.76,147.92,54.27Z"></path><path class="cls-3" d="M64.83,17.05H33.66c-11.91,0-20.74,17.67-8.73,19.65-1.53-3-1.65-6.55,4.1-6.55h8.74L21.35,76.6H44.18c15.68,0,16.74-6.36,19.83-15.08l9.26-26.21C77.68,22.81,81.51,17.05,64.83,17.05ZM59.19,34.12l-9,25.41c-1.75,5-6.46,5.37-9.68,5L52.8,29.75C57.36,29.75,60.52,30.35,59.19,34.12Z"></path><path class="cls-3" d="M94.76,41.36c-11.64,0-16.45,2-19.4,10.38L69.91,67.16c-3.72,10.53,2.22,9.75,12.29,9.75,9,0,14.32,0,17.82-9.91l5.4-15.26C108,44.51,106.09,41.36,94.76,41.36ZM92.84,53.47,88.5,65.75c-1.28,3.6-7.14,3.29-6,0l4.34-12.28C88.09,50,94.23,49.54,92.84,53.47Z"></path><path class="cls-3" d="M227,41.67H209.54a9,9,0,0,0-8.14,5.67l-8.34,23.59c-.89,2.52-2.44,6.45,3.86,6.45h17.62c6.77,0,7.67-3.47,8.73-6.45l.6-2.88H210.81c-1.12,3.14-6.28,3.82-4.51-1.21l1.17-3.3h12c5.15-.31,7.29-2.36,8.46-5.66l3.67-10.38C232.84,43.87,231.41,41.67,227,41.67ZM216.16,56.31H210c.69-3.31,1.95-5.51,5.09-5.51C217.64,50.8,217.55,52.37,216.16,56.31Z"></path><path class="cls-3" d="M151,41.36c-11.49,0-16.14,2-19.09,10.38l-5.45,15.42c-3.73,10.53,2.22,9.75,12,9.75,9.13,0,14.48,0,18-9.91l5.39-15.26C164.38,44.51,162.5,41.36,151,41.36Zm-1.92,12.11-4.34,12.28c-1.27,3.6-6.83,3.29-5.66,0l4.34-12.28C144.65,50,150.48,49.54,149.09,53.47Z"></path><path class="cls-4" d="M33.66,16.44c-7.84,0-14.52,7.25-15,13.49-.32,4,1.94,6.67,6.2,7.37l1.19.2-.55-1.08a6.45,6.45,0,0,1-.82-2.88A2.59,2.59,0,0,1,25,32.2c.59-1,1.95-1.45,4.05-1.45h7.88C36.36,32.32,20.49,77.2,20.49,77.2H44.18c15.06,0,17-5.78,19.8-13.76l.6-1.72,9.26-26.21,1.2-3.3c2.12-5.77,3.65-9.94,1.77-12.62-1.53-2.21-5.12-3.15-12-3.15ZM19.82,30.66c0-.21,0-.42,0-.63.46-5.61,6.73-12.37,13.82-12.37H64.83c6.25,0,9.74.83,11,2.62a3.93,3.93,0,0,1,.63,2.32c0,2.24-1.14,5.34-2.55,9.19l-1.21,3.32L63.43,61.32,62.83,63C60.15,70.84,58.38,76,44.18,76h-22c.55-1.57,16.42-46.45,16.42-46.45H29c-2.55,0-4.27.68-5.09,2a3.73,3.73,0,0,0-.51,2,6.59,6.59,0,0,0,.48,2.22C21.29,35,19.82,33.25,19.82,30.66Z"></path><path class="cls-4" d="M52.37,29.15,39.7,65l.75.1c3,.37,8.38.17,10.34-5.36l9-25.42a3.65,3.65,0,0,0-.15-3.39c-1-1.48-3.49-1.78-6.82-1.78Zm.85,1.22c2.2,0,4.65.2,5.41,1.26a1.61,1.61,0,0,1,.27.95,4,4,0,0,1-.28,1.34l-9,25.41c-1.47,4.16-5.16,4.85-8.27,4.61C41.87,62.51,52.94,31.16,53.22,30.37Z"></path><path class="cls-4" d="M74.79,51.54,69.34,67c-1.41,4-1.52,6.59-.35,8.23,1.69,2.39,5.7,2.36,11.25,2.33h2c8.88,0,14.75,0,18.39-10.32L106,51.94c1.34-3.79,1.39-6.27.14-8-1.54-2.18-5-3.15-11.37-3.15C83.81,40.76,78,42.37,74.79,51.54ZM70,74.48c-.91-1.27-.74-3.59.5-7.12l5.45-15.42c2.74-7.73,7-10,18.83-10,5.81,0,9.11.84,10.38,2.64,1,1.4.9,3.54-.3,6.93L99.45,66.8c-3.36,9.5-8.29,9.5-17.25,9.5h-2C75.25,76.34,71.31,76.36,70,74.48Z"></path><path class="cls-4" d="M86.29,53.27,82,65.54a2.33,2.33,0,0,0,1.46,3.2A4.68,4.68,0,0,0,89.08,66l4.33-12.27c.69-1.93-.21-3-1.28-3.4A5,5,0,0,0,86.29,53.27ZM83.82,67.59A1.12,1.12,0,0,1,83.1,66l4.33-12.27a3.79,3.79,0,0,1,4.3-2.26,1,1,0,0,1,.71,1,2.66,2.66,0,0,1-.17.85L87.93,65.54A3.44,3.44,0,0,1,83.82,67.59Z"></path><polygon class="cls-4" points="132.19 29.11 119.81 29.11 102.7 77.52 115.94 77.52 133.05 29.11 132.19 29.11"></polygon><path class="cls-3" d="M131.33,30.32c-.54,1.55-16,45.2-16.24,46H104.42c.54-1.55,16-45.2,16.25-46Z"></path><path class="cls-4" d="M188.35,42.63l-5.13,4.57,2.05-5.82h-13.4L159,77.67h13.41l6.71-19,7.78-7.21-1.26,5.43h7.48l3.65-10.33c1.33-3.29.13-4.79-.71-5.4C194.24,39.86,190.84,40.49,188.35,42.63Z"></path><path class="cls-3" d="M182.27,49.68l6.88-6.14c2-1.75,4.84-2.36,6.24-1.36a2,2,0,0,1,.79,1.77,6,6,0,0,1-.51,2.21S193,53.85,192.3,55.7h-5.09c.27-1.17,1.82-7.79,1.82-7.79L178.12,58s-6.25,17.67-6.53,18.45H160.76c.54-1.53,11.69-33.09,12-33.86h10.83l-3.05,8.65Z"></path><path class="cls-4" d="M209.54,41.06a9.62,9.62,0,0,0-8.72,6.07l-8.4,23.78c-.57,1.62-1.36,3.83-.24,5.41.79,1.12,2.34,1.67,4.74,1.67h17.62c6.9,0,8.16-3.59,9.17-6.47l.13-.39c0-.07.62-3,.62-3l.15-.73H210.37l-.14.41c-.51,1.44-2.14,2.32-3.07,2-.41-.15-.62-.56-.62-1.17a5.11,5.11,0,0,1,.33-1.62l1-2.9h11.53c4.94-.3,7.63-2.12,9-6.07l3.67-10.38a7.73,7.73,0,0,0,.48-2.51,3.78,3.78,0,0,0-.67-2.26c-.87-1.24-2.53-1.87-4.93-1.87ZM193.17,75.62c-.75-1.07-.12-2.87.4-4.31L202,47.54a8.43,8.43,0,0,1,7.57-5.26H227c2,0,3.32.46,3.94,1.35s.6,2.06,0,3.67l-3.67,10.38c-.89,2.53-2.48,4.92-7.92,5.26H207.05l-1.32,3.7c-1.16,3.28.5,4.15,1,4.34,1.4.49,3.49-.44,4.4-2.32h12c-.17.8-.44,2.12-.44,2.13s-.12.33-.12.33c-1,2.91-2,5.65-8,5.65H196.92C195,76.77,193.71,76.38,193.17,75.62Z"></path><path class="cls-4" d="M209.44,56.18l-.16.74h7.32l.14-.41c1-2.74,1.35-4.42.62-5.45a2.53,2.53,0,0,0-2.24-.87C211.2,50.19,210,53.39,209.44,56.18Zm5.68-4.78c.66,0,1.08.13,1.25.36a1.14,1.14,0,0,1,.16.67,12.34,12.34,0,0,1-.8,3.27h-4.89C211.61,52.72,212.87,51.4,215.12,51.4Z"></path><path class="cls-4" d="M247.05,40.76c-4.51,0-7.7,2.31-9.24,6.69l-3.51,9.91c-.6,2.36-.45,4,.44,5.18s2.31,1.61,4.47,1.61h7.56c1.64,0,2.07.37,2.17.54.21.32,0,.92-.21,1.32l-.13.32a5.5,5.5,0,0,1-3.78,3.42,1.18,1.18,0,0,1-1.06-.12c-.17-.2-.15-.69.07-1.31l.28-.81h-13.4l-1.14,3.22a6.29,6.29,0,0,0,.82,5.11,4.36,4.36,0,0,0,3.73,1.83h15.74a9.32,9.32,0,0,0,8.81-6.38l3.12-8.8a6.49,6.49,0,0,0-.26-5.7,4.8,4.8,0,0,0-4-1.88l-4.5-.16c-2,0-3.19-.32-3.64-1a2.19,2.19,0,0,1,0-2,5,5,0,0,1,3.37-2.5c.44-.08.77,0,.9.09s.14.52-.1,1.19l-.28.81h12.46l1.58-4.47a4.7,4.7,0,0,0-.23-4.38c-.84-1.18-2.38-1.77-4.59-1.77Z"></path><path class="cls-3" d="M239,47.86c1.38-3.91,4.1-5.89,8.1-5.89h15.42c1.77,0,3,.44,3.6,1.26a2.54,2.54,0,0,1,.42,1.49,5.58,5.58,0,0,1-.34,1.78l-1.3,3.67h-10a4.47,4.47,0,0,0,.09-.45,1.71,1.71,0,0,0-.38-1.13,2,2,0,0,0-2-.5,6.17,6.17,0,0,0-4.29,3.29,3.3,3.3,0,0,0,.13,3.1c.72,1,2.18,1.49,4.61,1.49l4.49.16a3.6,3.6,0,0,1,3.08,1.35c1.06,1.55.36,3.92.11,4.6l-3.11,8.81a8.22,8.22,0,0,1-7.67,5.57H234.12a3.17,3.17,0,0,1-2.74-1.32,5.16,5.16,0,0,1-.82-2.86,3.61,3.61,0,0,1,.16-1.15s.57-1.63.85-2.4h11c0,.15-.1.34-.1.47a1.83,1.83,0,0,0,.42,1.23,2.25,2.25,0,0,0,2.23.51,6.72,6.72,0,0,0,4.67-4.23l.09-.22A2.57,2.57,0,0,0,250,64c-.48-.73-1.53-1.08-3.19-1.08h-7.56c-1.76,0-2.91-.38-3.51-1.15a3.09,3.09,0,0,1-.55-1.94,9.18,9.18,0,0,1,.31-2.14Z"></path><path class="cls-4" d="M131.35,51.54,125.9,67c-1.41,4-1.52,6.61-.36,8.25,1.69,2.37,5.59,2.34,11,2.31h1.9c9.3,0,14.91,0,18.56-10.32l5.39-15.26c1.34-3.79,1.38-6.26.14-8-1.55-2.19-5.1-3.16-11.52-3.16C138.86,40.76,134.27,43.27,131.35,51.54Zm-4.82,23c-.9-1.28-.74-3.62.51-7.15l5.45-15.42c2.74-7.73,6.89-10,18.52-10,5.9,0,9.25.84,10.53,2.66,1,1.4.9,3.53-.29,6.91l-5.4,15.26c-3.36,9.5-8.35,9.5-17.41,9.5h-1.9C131.68,76.34,127.85,76.36,126.53,74.51Z"></path><path class="cls-4" d="M146.6,50.16a5,5,0,0,0-3.74,3.11l-4.34,12.27a2.44,2.44,0,0,0,.32,2.49,3.19,3.19,0,0,0,3,.84A4.45,4.45,0,0,0,145.32,66l4.34-12.27h0a2.67,2.67,0,0,0-.25-2.77A2.94,2.94,0,0,0,146.6,50.16Zm-6.84,17.09a1.26,1.26,0,0,1-.1-1.3L144,53.68a3.79,3.79,0,0,1,2.82-2.32,1.76,1.76,0,0,1,1.66.34,1.67,1.67,0,0,1,0,1.57l-4.34,12.27a3.28,3.28,0,0,1-2.52,2.14A2.06,2.06,0,0,1,139.76,67.25Z"></path><path class="cls-1" d="M278,10.25c-1.05-1.71-3-2.59-5.69-2.59a13.28,13.28,0,0,0-2.5.27H253.51L266.64.1H249.73l-8.27,7.83H232c.34-.67,2.71-5.25,2.71-5.25h-5.61l-13,8.65a5.52,5.52,0,0,0-.71-1.23c-1.31-1.64-3.59-2.44-7-2.44a21.76,21.76,0,0,0-3.53.3,24.43,24.43,0,0,0-3.62.88,23.69,23.69,0,0,0-3.62,1.54l-.7.37L192,20.32a10.33,10.33,0,0,0-1.9,2.56,7.55,7.55,0,0,0-.88,3.13v.21a4.44,4.44,0,0,0,1.77,3.56,6.8,6.8,0,0,0,4.33,1.2,13,13,0,0,0,4.34-.67c.28-.1.55-.26.82-.37a5.28,5.28,0,0,0,3.35,1,14.84,14.84,0,0,0,3.57-.4l4.21-1.22.41-.94.45-.87a5.49,5.49,0,0,0,.36.73c1.1,1.79,3.2,2.7,6.27,2.7a18.86,18.86,0,0,0,4.06-.5,23.88,23.88,0,0,0,3.5-1l.89-.35.4-.76a4.17,4.17,0,0,0,.68.94c1.12,1.13,2.84,1.68,5.26,1.68a13.45,13.45,0,0,0,2.78-.31h21.71l5.8-11.26.66-.53.43-.3L259,30.67h11.93l6-11.74C278.91,15.15,279.25,12.31,278,10.25ZM229.5,19l-2.22.91c-.74.3-1.31.5-1.8.65l1.69-3.27h3.22Zm12.53.23c-.41.34-.81.64-1.18.92.4-.79,3.15-6.13,4.88-9.47h.71Z"></path><path class="cls-5" d="M209.73,27.27c-1.1.36-2.09.65-3,.86a12.39,12.39,0,0,1-3,.33c-1,0-1.66-.18-1.88-.54a1.89,1.89,0,0,1-.18-1.33,17.56,17.56,0,0,1-2.94,1.34,10.37,10.37,0,0,1-3.51.53,4.55,4.55,0,0,1-2.77-.66,1.94,1.94,0,0,1-.81-1.68,5,5,0,0,1,.6-2.09,8,8,0,0,1,2.21-2.69,12.43,12.43,0,0,1,3.12-1.74A45.14,45.14,0,0,1,202,18.19l2.29-.63c.53-.14.92-.25,1.18-.34s.55-.18.86-.31a3.28,3.28,0,0,0,.51-2c-.1-.48-.73-.73-1.89-.73a11.36,11.36,0,0,0-4.27.91,26.81,26.81,0,0,0-4.42,2.32l2.47-4.79A20,20,0,0,1,202,11.24a20.64,20.64,0,0,1,3.24-.79,19,19,0,0,1,3.13-.27c2.56,0,4.24.5,5,1.49s.73,2.35-.16,4.08l-3.51,6.82a4.93,4.93,0,0,0-.57,1.45c0,.32.1.47.42.47a5.59,5.59,0,0,0,1.86-.5Zm-7-3.38,2.17-4.2a30.23,30.23,0,0,0-4.12,1.63,4.49,4.49,0,0,0-2,1.95,1.45,1.45,0,0,0-.19,1.36,1,1,0,0,0,1,.47,3.89,3.89,0,0,0,1.47-.35C201.56,24.51,202.14,24.22,202.76,23.89Z"></path><path class="cls-5" d="M225.7,27.12a23.28,23.28,0,0,1-3.15.91,16.1,16.1,0,0,1-3.5.43q-6.75,0-3.33-6.62l3.64-7.09h-2.82l.55-1.08L229.84,5.2h.71l-2.7,5.25h6l-2.22,4.3h-6l-2.93,5.69A9.86,9.86,0,0,0,222,22a1,1,0,0,0,.16,1,2,2,0,0,0,1.5.41,13.62,13.62,0,0,0,4.56-1.25Z"></path><path class="cls-5" d="M246.53,28.15h-6.27l1.3-2.52a18.93,18.93,0,0,1-3.87,2.13,10.52,10.52,0,0,1-3.85.7q-4,0-4-2.34a12.05,12.05,0,0,1,1.54-5.27l5.36-10.4H243l-4.74,9.2-.19.36a6.84,6.84,0,0,0-.82,2.53c-.05.73.45,1.09,1.52,1.09a4.65,4.65,0,0,0,2.58-.78,27.14,27.14,0,0,0,2.67-2l5.36-10.4h6.27Zm11-25.53-9.25,5.52H244.9l5.83-5.52Z"></path><path class="cls-5" d="M269.38,28.15h-6.26L267.83,19l.19-.36a7,7,0,0,0,.83-2.54c.06-.72-.45-1.08-1.52-1.08a4,4,0,0,0-1.48.28,7.94,7.94,0,0,0-1.41.74c-.46.3-.86.59-1.21.86l-1.1.89L256.8,28.15h-6.26l9.11-17.7h6.27L264.59,13a17.34,17.34,0,0,1,4.09-2.22,10.92,10.92,0,0,1,3.62-.64c4.23,0,5,2.53,2.43,7.6Z"></path></svg>