<svg xmlns="http://www.w3.org/2000/svg" xmlns:xlink="http://www.w3.org/1999/xlink" id="Layer_3" x="0px" y="0px" viewBox="0 0 339.1 137.8" style="enable-background:new 0 0 339.1 137.8;" xml:space="preserve"><style type="text/css">	.st0{fill:#FFFFFF;stroke:#FFFFFF;stroke-width:12;}	.st1{fill:#FFE14F;}	.st2{fill:#E31B23;}	.st3{fill:#FFFFFF;}	.st4{fill:#283A97;}</style><g>	<path class="st0" d="M299,57.6c-0.9-1.3-2.6-2.7-5.8-3.2c0.1-5.3,0.2-16.3,0.2-16.3c0-1.8-1-3.4-2.6-4.2c-1.3-0.6-1.3-0.6-32.3-0.5  H212c-0.1,0-0.2,0-0.3,0c-5.3,0.3-11.7-1.8-17.9-3.9c-9.8-3.3-20.8-6.9-29.2-0.8c-8.4-6.2-19.4-2.5-29.2,0.8  c-6.2,2.1-12.7,4.2-18,3.9c-0.1,0-0.2,0-0.3,0c0,0-11.5,0-25.6,0c-0.2-0.3-0.3-0.6-0.5-0.9c-2.4-3.4-6.9-4.8-15.7-4.8H41  c-10.4,0-18.9,9.3-19.6,17.7c0,0.4,0,0.7,0,1.1c0,5.5,3.6,9.4,9.5,10.4c0,0,2.8,0.5,4.9,0.8c0,0.6,0,1.2,0,1.8c0,0.8,0,1.7,0,2.5  c-5.3,15.1-13.7,38.6-13.7,38.6h30.4c0.5,0,1,0,1.5,0c2.2,1.4,4.4,2.5,6.5,3.3c11.2,4.3,23.8,3.3,30.7,0.7  c18.1,19.3,49.5,23.5,73.2,23.5c34.3,0,59.2-7.4,75.9-22.6c6.5,2.3,19.8,4.8,31.4-1.3c1.7-0.9,3.3-1.9,4.8-3h1  c4.7,0,10.4-2.8,12.7-9.1l3.4-9.6c0.5-1.4,0.8-2.9,0.8-4.2c0-1.8-0.5-3.5-1.4-4.9c-0.2-0.3-0.5-0.6-0.8-0.9c0.7,0,5,0,5,0l2.5-7  c0.4-1.2,0.6-2.4,0.6-3.5C300.3,60.2,299.9,58.8,299,57.6z M34.9,51.3c-0.3-0.7-0.5-1.1-0.5-1.4c0.3-0.1,0.7-0.1,1.3-0.2  c0,1.1,0,2.2,0,3.1C35.3,51.9,34.9,51.3,34.9,51.3z"></path>	<path class="st1" d="M40.4,37.9L117,38c16.3,1,36.8-16.2,47.5-2.9c10.8-13.4,31.2,3.9,47.5,2.9h46.6c29.9-0.1,30.2,0,30.2,0  l-0.2,19c-1.6,60.9-46.2,44.8-49.1,42.9c-18.9,18.9-48.2,23.4-74.9,23.4c-27.7,0-57-5.9-72.2-24.6c-3.6,4.2-53.2,13.8-51.9-41.3  L40.4,37.9z"></path>	<path class="st2" d="M164.5,32.2c-7.5-7.1-18.1-3.6-28.4-0.2c-6.5,2.1-13.1,4.4-19,4c0,0-0.1,0-0.1,0l-76.7-0.1  c-0.5,0-1.1,0.2-1.4,0.6c-0.4,0.4-0.6,0.9-0.6,1.4l0,19.4c-0.7,28.7,12.3,39.8,23.2,44c12,4.6,25.2,2.5,30.4-0.1  c17.3,19.8,48.8,24,72.5,24c34.5,0,59.1-7.6,75.3-23.1c4.7,1.9,18.5,5.8,30.8-0.5c12.6-6.6,19.4-21.6,20-44.7c0,0,0.2-19,0.2-19  c0-0.8-0.4-1.5-1.1-1.8c-0.5-0.3-0.7-0.4-31.1-0.2H212c0,0-0.1,0-0.1,0c-5.8,0.4-12.5-1.8-18.9-4C182.7,28.6,172.1,25.1,164.5,32.2  z M166.1,36.5c5.8-7.2,15-4.1,25.6-0.6c6.8,2.3,13.8,4.6,20.5,4.2c0,0-0.1,0-0.1,0h46.6c18.1-0.1,25.2-0.1,28.1,0  c0,3.2-0.2,16.9-0.2,16.9c-0.6,21.3-6.5,35.1-17.6,41c-12.3,6.5-26.9,1.1-28.4,0.2c-0.8-0.5-1.9-0.4-2.6,0.3  c-15.4,15.4-39.4,22.8-73.5,22.8c-23.4,0-54.6-4.1-70.6-23.9c-0.4-0.5-0.9-0.7-1.5-0.7c-0.6,0-1.2,0.2-1.6,0.7l0,0  c-1.5,1.4-16,5.5-29.1-0.3c-12.8-5.6-19.3-18.2-19.3-37.5c0-0.7,0-1.4,0-2.1c0,0,0-12.5,0-17.4c3.9,0,74.6,0.1,74.6,0.1  c0,0-0.1,0-0.1,0c6.6,0.4,13.7-1.9,20.5-4.2c10.6-3.5,19.8-6.6,25.5,0.6c0.4,0.5,1,0.8,1.6,0.8C165.1,37.2,165.7,36.9,166.1,36.5z"></path>	<path class="st3" d="M309.2,62.7c0-3.6,2.7-6.3,6.2-6.3c3.4,0,6.1,2.7,6.1,6.3c0,3.7-2.7,6.3-6.1,6.3  C311.9,69,309.2,66.4,309.2,62.7z M315.3,70.3c4.1,0,7.7-3.2,7.7-7.6c0-4.4-3.5-7.6-7.7-7.6c-4.2,0-7.7,3.2-7.7,7.6  C307.6,67.1,311.2,70.3,315.3,70.3z M313.7,63.3h1.5l2.3,3.8h1.5l-2.5-3.9c1.3-0.2,2.3-0.8,2.3-2.4c0-1.7-1-2.5-3.1-2.5h-3.3v8.7  h1.3V63.3z M313.7,62.2v-2.7h1.8c0.9,0,1.9,0.2,1.9,1.3c0,1.3-1,1.4-2.1,1.4H313.7z"></path>	<path d="M88.8,33.9c-1.8-2.6-5.9-3.7-13.7-3.7H41c-8.9,0-16.5,8.3-17.1,15.4c-0.4,4.7,2.4,8,7.4,8.8l2.7,0.4l-1.2-2.4  c-0.5-1.1-0.8-2.1-0.8-2.8c0-0.4,0.1-0.8,0.3-1.1c0.6-1,2.4-1.2,3.8-1.2c0,0,5.2,0,7.6,0c-1.2,3.4-18,50.8-18,50.8h26.9  c17,0,19.3-6.9,22.3-15.5l0.7-1.9c0,0,10.1-28.7,10.1-28.7l1.3-3.6C89.3,41.8,91.1,37.1,88.8,33.9z M67.7,49.7l-9.8,27.8  c-1.3,3.7-4.5,4.7-7.4,4.6c1.1-3,11.9-33.7,12.5-35.4c1.6,0,4.2,0.2,4.8,1.1c0.1,0.2,0.2,0.4,0.2,0.6  C67.9,48.9,67.8,49.4,67.7,49.7z"></path>	<path d="M120.9,60.5c-1.8-2.6-5.8-3.7-13-3.7c-12.3,0-18.8,1.8-22.5,12.3l-6,16.9c-1.6,4.6-1.7,7.6-0.3,9.6  c2.1,2.9,6.6,2.9,12.9,2.9l2.1,0c10,0,16.6,0,20.8-11.8l5.9-16.7C121.9,67,122.8,63.2,120.9,60.5z M104.5,70.9l-4.7,13.4  c-0.6,1.7-2.5,2.2-3.6,1.8c-0.4-0.1-0.6-0.3-0.4-0.9l4.7-13.4c0.6-1.6,2.8-2.4,3.8-2c0.1,0,0.3,0.1,0.3,0.5  C104.6,70.4,104.6,70.6,104.5,70.9z"></path>	<polygon points="134.8,44 115.6,98.4 131.6,98.4 150.8,44  "></polygon>	<path d="M219.2,57.4c-2.3-1.7-6.3-1-9.3,1.6c0,0-1.8,1.6-3.6,3.2c0.5-1.4,1.7-4.7,1.7-4.7h-16.1l-14.5,41.1h16.2  c0,0,7.2-20.4,7.4-21.1c0.3-0.3,3.8-3.5,6.7-6.2c-0.3,1.4-1.1,4.6-1.1,4.6h9.6l4.2-11.8C221.9,59.9,220,58,219.2,57.4z"></path>	<path d="M258.5,59.4c-1.1-1.5-3.1-2.3-6-2.3h-19.1c-3.7,0-8.6,2.5-10.2,7.1l-9.2,26c-0.7,1.9-1.6,4.5-0.2,6.6  c1,1.4,2.9,2.1,5.8,2.1h19.3c8,0,9.6-4.4,10.7-7.5l0.2-0.5l1-4.9h-16.9l-0.3,0.9c-0.5,1.3-1.9,2-2.5,1.8c-0.1,0-0.2-0.2-0.2-0.6  c0-0.4,0.1-0.9,0.3-1.5c0,0,0.6-1.7,1-2.7c1.7,0,12.1,0,12.1,0c5.7-0.3,8.9-2.5,10.5-7.1l4-11.4c0.4-1.1,0.6-2.1,0.6-3  C259.4,61.2,259.1,60.2,258.5,59.4z M240.4,70.2c0,0.4-0.2,1.2-0.7,2.9h-4c0.9-2.7,2.1-3.3,3.8-3.3c0.6,0,0.8,0.1,0.8,0.1  C240.4,70,240.4,70.1,240.4,70.2z"></path>	<path d="M297,59c-1.1-1.5-2.9-2.2-5.6-2.2h-16.9c-5.3,0-9,2.7-10.8,7.8l-3.9,10.9l0,0.1c-0.7,2.7-0.5,4.8,0.6,6.2  c1.1,1.4,2.8,2,5.4,2h8.3c1.5,0,1.8,0.3,1.8,0.3c0,0.1-0.2,0.6-0.3,0.8l-0.2,0.4c-0.5,1.5-1.8,2.5-2.8,3c-0.7,0.3-1.1,0.4-1.3,0.3  c0-0.1,0-0.3,0.2-0.7l0.6-1.8h-16.1l-1.4,4c-0.5,1.3-0.5,4.2,1,6.2c0.7,1,2.2,2.3,4.7,2.3h17.2c3.5,0,8.4-2,10.3-7.4l3.4-9.6  c0.2-0.7,0.6-2,0.6-3.4c0-1.1-0.2-2.4-1-3.4c-0.7-1-2.1-2.3-5-2.4l-4.9-0.2c-2.7,0-3.3-0.6-3.4-0.8c-0.1-0.1-0.1-0.3-0.1-0.5  c0-0.4,0.1-0.8,0.2-1.1c0.4-1.2,2.5-2.3,3.4-2.3c0,0.1-0.1,0.3-0.1,0.5l-0.6,1.8h15.1l1.9-5.4C298.1,62.3,297.9,60.4,297,59z"></path>	<path d="M182.6,60.5c-1.8-2.6-5.9-3.8-13.2-3.8c-12.1,0-18.5,1.8-22.2,12.3c0,0-6,16.9-6,16.9c-1.6,4.7-1.7,7.6-0.3,9.7  c2.1,2.9,6.5,2.9,12.6,2.8l2.1,0c10.1,0,16.8,0,21-11.8l5.9-16.7C183.6,67,184.5,63.2,182.6,60.5z M166,70.9l-4.7,13.4  c-0.5,1.5-1.8,1.8-2.2,1.9c-0.7,0.1-1.2,0-1.4-0.2c-0.1-0.2-0.1-0.5,0-0.7l4.7-13.4c0.4-1.2,1.6-1.9,2.6-2.1c0.7-0.1,1.1,0,1.2,0.1  C166.2,70,166.2,70.4,166,70.9z"></path>	<path class="st2" d="M75.1,30.2H41c-13,0-22.7,19.3-9.5,21.5c-1.7-3.3-1.8-7.2,4.5-7.2h9.6l-18,50.8h25c17.2,0,18.3-7,21.7-16.5  l10.1-28.7C89.2,36.5,93.4,30.2,75.1,30.2z M69,48.9l-9.8,27.8c-1.9,5.4-7.1,5.9-10.6,5.4l13.4-38C67,44.1,70.4,44.7,69,48.9z"></path>	<path class="st2" d="M107.9,56.8c-12.7,0-18,2.2-21.2,11.4l-6,16.9c-4.1,11.5,2.4,10.7,13.4,10.7c9.8,0,15.7,0,19.5-10.8l5.9-16.7  C122.3,60.2,120.3,56.8,107.9,56.8z M105.8,70L101,83.5c-1.4,3.9-7.8,3.6-6.5,0L99.2,70C100.6,66.3,107.3,65.7,105.8,70z"></path>	<path class="st2" d="M252.6,57.1h-19.1c-3.3,0-7.5,2.2-8.9,6.2l-9.1,25.8c-1,2.8-2.7,7.1,4.2,7.1h19.3c7.4,0,8.4-3.8,9.6-7.1  l0.6-3.2h-14.3c-1.2,3.4-6.9,4.2-4.9-1.3l1.3-3.6h13.1c5.6-0.3,8-2.6,9.3-6.2l4-11.4C258.9,59.5,257.4,57.1,252.6,57.1z   M240.7,73.1H234c0.8-3.6,2.1-6,5.6-6C242.3,67.1,242.2,68.8,240.7,73.1z"></path>	<path class="st2" d="M169.4,56.8c-12.6,0-17.7,2.2-20.9,11.4l-6,16.9c-4.1,11.5,2.4,10.7,13.1,10.7c10,0,15.8,0,19.7-10.8l5.9-16.7  C184,60.2,182,56.8,169.4,56.8z M167.3,70l-4.7,13.4c-1.4,3.9-7.5,3.6-6.2,0l4.7-13.4C162.5,66.3,168.8,65.7,167.3,70z"></path>	<path d="M41,29.5c-8.6,0-15.9,7.9-16.4,14.8c-0.4,4.4,2.1,7.3,6.8,8.1l1.3,0.2l-0.6-1.2c-0.6-1.2-0.9-2.3-0.9-3.2  c0-0.6,0.1-1.1,0.4-1.5c0.6-1,2.1-1.6,4.4-1.6c0,0,7.1,0,8.6,0C44,46.9,26.6,96,26.6,96h25.9c16.5,0,18.7-6.3,21.7-15.1l0.7-1.9  L85,50.4l1.3-3.6c2.3-6.3,4-10.9,1.9-13.8c-1.7-2.4-5.6-3.4-13.1-3.4H41z M25.9,45.1c0-0.2,0-0.5,0-0.7c0.5-6.1,7.4-13.5,15.1-13.5  h34.1c6.8,0,10.7,0.9,12,2.9c0.5,0.7,0.7,1.5,0.7,2.5c0,2.5-1.2,5.8-2.8,10.1l-1.3,3.6L73.6,78.6l-0.7,1.9  C70,89,68.1,94.7,52.5,94.7c0,0-22.3,0-24,0c0.6-1.7,18-50.8,18-50.8H36c-2.8,0-4.7,0.7-5.6,2.2c-0.4,0.6-0.6,1.3-0.6,2.2  c0,0.7,0.2,1.6,0.5,2.4C27.5,49.8,25.9,47.9,25.9,45.1z"></path>	<path d="M61.5,43.4L47.6,82.7l0.8,0.1c3.3,0.4,9.2,0.2,11.3-5.9l9.8-27.8c0.5-1.5,0.5-2.8-0.2-3.7c-1.1-1.6-3.8-2-7.5-2H61.5z   M62.4,44.8c2.4,0,5.1,0.2,5.9,1.4c0.2,0.3,0.3,0.6,0.3,1c0,0.4-0.1,0.9-0.3,1.5c0,0-9.8,27.8-9.8,27.8c-1.6,4.6-5.6,5.3-9.1,5  C50,79.9,62.1,45.6,62.4,44.8z"></path>	<path d="M86,67.9l-6,16.9c-1.5,4.3-1.7,7.2-0.4,9c1.9,2.6,6.2,2.6,12.3,2.6l2.1,0c9.7,0,16.1,0,20.1-11.3l5.9-16.7  c1.5-4.2,1.5-6.9,0.2-8.8c-1.7-2.4-5.5-3.4-12.4-3.4C95.9,56.1,89.6,57.9,86,67.9z M80.8,93c-1-1.4-0.8-3.9,0.6-7.8l6-16.9  c3-8.5,7.6-10.9,20.6-10.9c6.4,0,10,0.9,11.4,2.9c1.1,1.5,1,3.9-0.3,7.6L113,84.6C109.3,95,103.9,95,94.1,95L92,95  C86.5,95.1,82.2,95.1,80.8,93z"></path>	<path d="M98.6,69.8c0,0-4.7,13.4-4.7,13.4c-0.6,1.6,0.1,2.9,1.6,3.5c2.1,0.8,5.3-0.4,6.2-3c0,0,4.7-13.4,4.7-13.4  c0.7-2.1-0.2-3.3-1.4-3.7C102.9,65.8,99.6,67.1,98.6,69.8z M95.9,85.5c-0.8-0.3-1.1-0.9-0.8-1.8l4.7-13.4c0.7-2.1,3.4-2.9,4.7-2.5  c0.5,0.2,0.8,0.6,0.8,1.1c0,0.3-0.1,0.6-0.2,0.9l-4.7,13.4C99.7,85.3,97.2,86,95.9,85.5z"></path>	<polygon points="148.8,43.4 135.3,43.4 116.6,96.3 131.1,96.3 149.8,43.4  "></polygon>	<path class="st2" d="M147.9,44.7c-0.6,1.7-17.5,49.5-17.8,50.3c-0.8,0-10.1,0-11.7,0c0.6-1.7,17.5-49.5,17.8-50.3  C137,44.7,146.3,44.7,147.9,44.7z"></path>	<path d="M210.3,58.2c0,0-3.4,3-5.6,5c0.8-2.3,2.2-6.4,2.2-6.4h-14.7l-14,39.7h14.7c0,0,7.2-20.5,7.3-20.8c0.2-0.2,6.3-5.8,8.5-7.9  c-0.5,2.1-1.4,5.9-1.4,5.9h8.2l4-11.3c1.5-3.6,0.1-5.3-0.8-5.9C216.7,55.1,213,55.8,210.3,58.2z"></path>	<path class="st2" d="M203.6,65.9l7.5-6.7c2.2-1.9,5.3-2.6,6.8-1.5c0.6,0.4,0.9,1.1,0.9,1.9c0,0.7-0.2,1.5-0.6,2.4  c0,0-3,8.4-3.7,10.4c-0.7,0-4.4,0-5.6,0c0.3-1.3,2-8.5,2-8.5L199.1,75c0,0-6.8,19.3-7.1,20.2c-0.8,0-10.3,0-11.9,0  c0.6-1.7,12.8-36.2,13.1-37c0.8,0,10.3,0,11.8,0c-0.5,1.4-3.3,9.5-3.3,9.5L203.6,65.9z"></path>	<path d="M233.5,56.5c-3.5,0-8,2.3-9.5,6.6l-9.2,26c-0.6,1.8-1.5,4.2-0.3,5.9c0.9,1.2,2.6,1.8,5.2,1.8h19.3c7.6,0,8.9-3.9,10-7.1  l0.2-0.4c0-0.1,0.7-3.2,0.7-3.2l0.2-0.8h-15.6l-0.2,0.4c-0.6,1.6-2.3,2.5-3.4,2.2c-0.4-0.2-0.7-0.6-0.7-1.3c0-0.5,0.1-1.1,0.4-1.8  c0,0,0.8-2.2,1.1-3.2c0.9,0,12.6,0,12.6,0c5.4-0.3,8.4-2.3,9.9-6.6l4-11.4c0.4-1,0.5-1.9,0.5-2.7c0-1-0.2-1.8-0.7-2.5  c-1-1.4-2.8-2-5.4-2H233.5z M215.5,94.3c-0.8-1.2-0.1-3.1,0.4-4.7l9.2-26c1.3-3.6,5.2-5.8,8.3-5.8h19.1c2.1,0,3.6,0.5,4.3,1.5  c0.6,0.9,0.7,2.3,0,4l-4,11.4c-1,2.8-2.7,5.4-8.7,5.8h-13.5l-1.4,4.1c-1.3,3.6,0.5,4.5,1.1,4.8c1.5,0.5,3.8-0.5,4.8-2.5  c0.7,0,11.7,0,13.1,0c-0.2,0.9-0.5,2.3-0.5,2.3c0,0-0.1,0.4-0.1,0.4c-1.1,3.2-2.2,6.2-8.8,6.2h-19.3  C217.5,95.5,216.1,95.1,215.5,94.3z"></path>	<path d="M233.3,73l-0.2,0.8h8l0.2-0.4c1.1-3,1.5-4.8,0.7-6c-0.5-0.6-1.3-1-2.5-1C235.3,66.4,234,70,233.3,73z M239.6,67.8  c0.7,0,1.2,0.1,1.4,0.4c0.1,0.2,0.2,0.4,0.2,0.7c0,0.9-0.4,2.2-0.9,3.6c-0.7,0-4.1,0-5.3,0C235.7,69.2,237.1,67.8,239.6,67.8z"></path>	<path d="M274.5,56.1c-4.9,0-8.4,2.5-10.1,7.3l-3.8,10.8c-0.7,2.6-0.5,4.4,0.5,5.7c0.9,1.2,2.5,1.8,4.9,1.8h8.3  c1.8,0,2.3,0.4,2.4,0.6c0.2,0.4,0,1-0.2,1.5l-0.1,0.3c-0.6,1.9-2.6,3.4-4.1,3.7c-0.5,0.1-1,0.1-1.2-0.1c-0.2-0.2-0.2-0.8,0.1-1.4  l0.3-0.9h-14.7l-1.2,3.5c-0.4,1.2-0.4,3.7,0.9,5.6c0.9,1.3,2.3,2,4.1,2h17.2c3.3,0,7.8-1.8,9.6-7l3.4-9.6c0.8-2.4,0.7-4.7-0.3-6.2  c-0.9-1.3-2.4-2-4.4-2.1l-4.9-0.2c-2.2,0-3.5-0.4-4-1.1c-0.3-0.5-0.3-1.2,0-2.2c0.4-1.2,2.3-2.5,3.7-2.7c0.5-0.1,0.8,0,1,0.1  c0.1,0.1,0.2,0.6-0.1,1.3l-0.3,0.9h13.6l1.7-4.9c0.7-1.9,0.6-3.6-0.3-4.8c-0.9-1.3-2.6-1.9-5-1.9H274.5z"></path>	<path class="st2" d="M265.6,63.9c1.5-4.3,4.5-6.4,8.9-6.4h16.9c1.9,0,3.3,0.5,3.9,1.4c0.3,0.5,0.5,1.1,0.5,1.6  c0,0.7-0.2,1.4-0.4,1.9c0,0-1,2.9-1.4,4c-0.8,0-9.6,0-11,0c0-0.2,0.1-0.3,0.1-0.5c0-0.5-0.1-0.9-0.4-1.2c-0.3-0.4-1-0.8-2.2-0.5  c-1.8,0.3-4.1,1.9-4.7,3.6c-0.5,1.4-0.4,2.5,0.1,3.4c0.8,1.1,2.4,1.6,5,1.6c0,0,4.9,0.2,4.9,0.2c1.6,0.1,2.7,0.5,3.4,1.5  c1.2,1.7,0.4,4.3,0.1,5l-3.4,9.6c-2.1,5.9-7.8,6.1-8.4,6.1h-17.2c-1.3,0-2.3-0.5-3-1.4c-0.6-0.9-0.9-2.1-0.9-3.1  c0-0.5,0.1-0.9,0.2-1.3c0,0,0.6-1.8,0.9-2.6c0.8,0,10.6,0,12,0c0,0.2-0.1,0.4-0.1,0.5c0,0.7,0.2,1.1,0.5,1.3  c0.5,0.6,1.4,0.8,2.4,0.6c1.9-0.4,4.3-2.2,5.1-4.6c0,0,0.1-0.2,0.1-0.2c0.3-0.7,0.8-1.8,0.1-2.7c-0.5-0.8-1.7-1.2-3.5-1.2h-8.3  c-1.9,0-3.2-0.4-3.8-1.3c-0.4-0.5-0.6-1.2-0.6-2.1c0-0.7,0.1-1.5,0.3-2.3C261.8,74.7,265.6,63.9,265.6,63.9z"></path>	<path d="M147.9,67.9l-6,16.9c-1.5,4.4-1.7,7.2-0.4,9c1.8,2.6,6.1,2.6,12,2.5l2.1,0c10.2,0,16.3,0,20.3-11.3l5.9-16.7  c1.5-4.1,1.5-6.9,0.2-8.8c-1.7-2.4-5.6-3.5-12.6-3.5C156.1,56.1,151.1,58.9,147.9,67.9z M142.6,93.1c-1-1.4-0.8-4,0.6-7.8l6-16.9  c3-8.5,7.5-10.9,20.3-10.9c6.5,0,10.1,0.9,11.5,2.9c1.1,1.5,1,3.9-0.3,7.6l-5.9,16.7C171,95,165.6,95,155.7,95l-2.1,0  C148.3,95.1,144.1,95.1,142.6,93.1z"></path>	<path d="M164.6,66.4c-1.4,0.3-3.4,1.3-4.1,3.4l-4.7,13.4c-0.4,1.1-0.3,2,0.3,2.7c0.7,0.8,2,1.2,3.3,0.9c1.8-0.3,3.2-1.5,3.8-3.2  l4.7-13.4l0,0c0.6-1.6,0.2-2.5-0.3-3C167,66.5,165.9,66.2,164.6,66.4z M157.1,85.1c-0.3-0.3-0.3-0.8-0.1-1.4l4.7-13.4  c0.5-1.5,1.9-2.3,3.1-2.5c0.8-0.1,1.5,0,1.8,0.4c0.4,0.4,0.2,1.2,0,1.7l-4.7,13.4c-0.4,1.2-1.5,2.1-2.8,2.3  C158.3,85.7,157.5,85.6,157.1,85.1z"></path>	<path class="st3" d="M308.3,22.7c-1.1-1.9-3.2-2.8-6.2-2.8c-0.9,0-1.8,0.1-2.7,0.3h-17.8l14.4-8.6h-18.5l-9.1,8.6h-3.8  c0,0-1.5,0-3,0H258c0.4-0.7,3-5.7,3-5.7h-6.1l-14.2,9.5c-0.2-0.5-0.5-1-0.8-1.3c-1.4-1.8-3.9-2.7-7.7-2.7c-1.2,0-2.5,0.1-3.9,0.3  c-1.3,0.2-2.6,0.5-4,1c-1.3,0.4-2.7,1-4,1.7l-0.8,0.4c0,0-4.3,8.3-5.4,10.5c-0.8,0.8-1.5,1.7-2.1,2.8c-0.6,1.1-0.9,2.3-1,3.4  c0,0.1,0,0.2,0,0.2c0,1.5,0.7,2.9,1.9,3.9c1.1,0.9,2.7,1.3,4.7,1.3c1.8,0,3.4-0.2,4.7-0.7c0.3-0.1,0.6-0.3,0.9-0.4  c1.3,1.1,3,1.1,3.7,1.1c1.4,0,2.7-0.1,3.9-0.4l4.6-1.3l0.5-1l0.5-1c0.1,0.3,0.2,0.5,0.4,0.8c1.2,2,3.5,3,6.9,3  c1.3,0,2.8-0.2,4.4-0.5c1.6-0.3,2.8-0.7,3.8-1.1l1-0.4l0.4-0.8c0.2,0.4,0.4,0.7,0.8,1c1.2,1.2,3.1,1.8,5.8,1.8c1,0,2.1-0.1,3-0.3  h10.7c1.1,0,1.8,0,1.8,0h11.2c0,0,5.9-11.4,6.3-12.3c0.3-0.3,0.7-0.6,0.7-0.6c0,0,0.2-0.2,0.5-0.3c-1.2,2.3-6.8,13.2-6.8,13.2h13.1  l6.6-12.8C309.4,28.1,309.7,25,308.3,22.7z M255.3,32.3l-2.4,1c-0.8,0.3-1.4,0.5-2,0.7c0.5-1,1.3-2.5,1.8-3.6h3.5L255.3,32.3z   M269,32.6c-0.5,0.4-0.9,0.7-1.3,1c0.4-0.9,3.5-6.7,5.3-10.4h0.8C272.1,26.6,269.3,31.9,269,32.6z"></path>	<g>		<path class="st4" d="M233.7,41.4c-1.2,0.4-2.3,0.7-3.3,0.9c-1,0.2-2.1,0.4-3.3,0.4c-1.1,0-1.8-0.2-2-0.6c-0.2-0.4-0.3-0.9-0.2-1.4   c-1,0.6-2.1,1.1-3.2,1.5c-1.1,0.4-2.4,0.6-3.8,0.6c-1.4,0-2.4-0.2-3-0.7c-0.6-0.5-0.9-1.1-0.9-1.8c0-0.7,0.3-1.5,0.7-2.3   c0.6-1.2,1.4-2.2,2.4-2.9c1-0.8,2.1-1.4,3.4-1.9c1.3-0.5,2.9-1,4.8-1.5c1.1-0.3,1.9-0.5,2.5-0.7c0.6-0.2,1-0.3,1.3-0.4   c0.3-0.1,0.6-0.2,0.9-0.3c0.5-0.9,0.7-1.7,0.6-2.2c-0.1-0.5-0.8-0.8-2.1-0.8c-1.5,0-3.1,0.3-4.7,1c-1.6,0.7-3.2,1.5-4.8,2.5   l2.7-5.2c1.2-0.6,2.3-1.1,3.5-1.5c1.2-0.4,2.4-0.7,3.5-0.9c1.2-0.2,2.3-0.3,3.4-0.3c2.8,0,4.6,0.5,5.5,1.6   c0.9,1.1,0.8,2.6-0.2,4.5l-3.8,7.5c-0.4,0.7-0.6,1.2-0.6,1.6c0,0.3,0.1,0.5,0.5,0.5c0.4,0,1.1-0.2,2-0.5L233.7,41.4z M226,37.7   l2.4-4.6c-2,0.7-3.5,1.3-4.5,1.8c-1,0.5-1.8,1.2-2.2,2.1c-0.3,0.6-0.4,1.1-0.2,1.5c0.2,0.3,0.6,0.5,1,0.5c0.5,0,1-0.1,1.6-0.4   C224.7,38.4,225.4,38,226,37.7z"></path>		<path class="st4" d="M251.1,41.2c-0.9,0.3-2,0.7-3.4,1c-1.4,0.3-2.7,0.5-3.8,0.5c-4.9,0-6.1-2.4-3.6-7.3l4-7.7h-3.1l0.6-1.2   l14-9.3h0.8l-3,5.7h6.5l-2.4,4.7h-6.5l-3.2,6.2c-0.4,0.7-0.6,1.3-0.8,1.8c-0.1,0.4-0.1,0.8,0.2,1.1c0.3,0.3,0.8,0.4,1.6,0.4   c1.1,0,2.8-0.5,5-1.4L251.1,41.2z"></path>		<path class="st4" d="M273.9,42.3h-6.9l1.4-2.8c-1.5,1-2.9,1.8-4.2,2.3c-1.3,0.5-2.7,0.8-4.2,0.8c-2.9,0-4.4-0.9-4.4-2.6   c0-1.7,0.6-3.6,1.7-5.8l5.9-11.4h6.9L264.9,33l-0.2,0.4c-0.5,1.1-0.8,2-0.9,2.8c-0.1,0.8,0.5,1.2,1.7,1.2c1,0,1.9-0.3,2.8-0.9   c0.9-0.6,1.9-1.3,2.9-2.2L277,23h6.9L273.9,42.3z M285.9,14.4l-10.1,6h-3.7l6.4-6H285.9z"></path>		<path class="st4" d="M298.9,42.3h-6.9l5.2-10l0.2-0.4c0.5-1.1,0.8-2,0.9-2.8c0.1-0.8-0.5-1.2-1.7-1.2c-0.6,0-1.1,0.1-1.6,0.3   c-0.5,0.2-1,0.5-1.5,0.8c-0.5,0.3-0.9,0.6-1.3,0.9c-0.4,0.3-0.8,0.6-1.2,1l-5.8,11.3h-6.9l10-19.4h6.9l-1.5,2.8   c1.7-1.2,3.2-2,4.5-2.4c1.3-0.5,2.6-0.7,4-0.7c4.6,0,5.5,2.8,2.7,8.3L298.9,42.3z"></path>	</g></g></svg>