<svg xmlns="http://www.w3.org/2000/svg" xmlns:xlink="http://www.w3.org/1999/xlink" x="0px" y="0px" viewBox="0 0 44.5 44.5" style="enable-background:new 0 0 44.5 44.5;" xml:space="preserve"><style type="text/css">	.st0{display:none;}	.st1{display:inline;fill:none;stroke:#002853;stroke-width:2;stroke-linecap:round;stroke-linejoin:round;stroke-miterlimit:10;}	.st2{display:inline;fill:none;stroke:#004A92;stroke-width:2;stroke-linecap:round;stroke-linejoin:round;stroke-miterlimit:10;}	.st3{display:inline;}	.st4{fill:#002853;}	.st5{fill:#004A92;}	.st6{fill:none;stroke:#002853;stroke-width:2.3;stroke-linecap:round;stroke-linejoin:round;stroke-miterlimit:10;}	.st7{fill:none;stroke:#004A92;stroke-width:2.3;stroke-linecap:round;stroke-linejoin:round;stroke-miterlimit:10;}	.st8{fill:#002853;stroke:#002853;stroke-width:0.8;stroke-miterlimit:10;}</style><g id="para_todos" class="st0">	<path class="st1" d="M23.3,22.9c0.8-2,2.4-2.1,3.5-1.6l0,0c1.3,0.5,2.6,0.8,4,0.8c0.4,0,0.9,0,1.3-0.1c0.7-0.1,1.5,0.1,2.1,0.5"></path>			<ellipse transform="matrix(6.576324e-02 -0.9978 0.9978 6.576324e-02 -5.9322 46.256)" class="st2" cx="21.7" cy="26.3" rx="3.4" ry="3.4"></ellipse>	<path class="st2" d="M16.4,32.4c0.5-0.4,1.2-0.7,1.9-0.7c0.4,0,0.9,0.1,1.3,0.3c0.6,0.3,1.4,0.5,2.2,0.5c0.8,0,1.5-0.2,2.2-0.5  c0.4-0.2,0.8-0.3,1.3-0.3c0.8,0,1.6,0.4,2.1,0.9"></path>	<line class="st2" x1="28.4" y1="38.3" x2="28.4" y2="35.8"></line>	<line class="st2" x1="15" y1="38.3" x2="15" y2="35.8"></line>	<line class="st2" x1="18.3" y1="38.3" x2="18.3" y2="36"></line>	<line class="st2" x1="25.2" y1="38.3" x2="25.2" y2="36"></line>	<circle class="st1" cx="18.9" cy="10.6" r="4.3"></circle>	<circle class="st1" cx="30.5" cy="15.5" r="3.6"></circle>	<path class="st1" d="M22.9,16.7c0,0-2.1,1.1-3.7,1.2c-1.6,0.1-3.3-0.6-3.9-0.8c-1.9-0.6-4.1,0.3-5,2l-3.3,6.6  c-0.1,0.3-0.2,0.6-0.2,0.9c0,0.3,0.1,0.7,0.2,1c0.1,0.1,0.2,0.3,0.3,0.4l0,0"></path>	<line class="st1" x1="13.9" y1="21.7" x2="11.5" y2="26.6"></line>	<path class="st1" d="M11.5,26.6l3.9,5.8l0.1,0.2c0.7,1,0.4,2.3-0.6,2.9c-0.2,0.1-0.3,0.2-0.5,0.2c-0.2,0.1-0.5,0.1-0.7,0.1  c-0.7,0-1.4-0.3-1.8-0.9l-4.6-6.8l0,0l-0.3-0.4"></path>	<path class="st1" d="M36.7,31.7l0.1-0.1c0.5-0.3,0.8-0.9,0.8-1.5c0-0.2,0-0.5-0.1-0.7l-1.5-3.9"></path>	<line class="st1" x1="33.4" y1="29.4" x2="32.3" y2="26.6"></line>	<path class="st1" d="M33.4,29.4l-5,3.1c-0.1,0-0.1,0.1-0.2,0.1c-0.7,0.6-0.9,1.6-0.4,2.4c0.3,0.4,0.7,0.7,1.2,0.8  c0.1,0,0.3,0,0.4,0c0.3,0,0.7-0.1,1-0.3l6.3-3.9l0.1-0.1"></path>	<path class="st1" d="M34.3,24.9l-0.2-0.3c-0.6-0.8-0.4-1.9,0.4-2.5l0.2-0.2c1.2-0.7,3.6,2.5,2.4,3.2l-0.2,0.2  C36.1,25.9,34.9,25.7,34.3,24.9z"></path></g><g id="saludables" class="st0">	<g class="st3">		<path class="st4" d="M25.2,15.9c-0.5-0.5-0.9-1.1-1.4-1.6c-0.4-0.5-0.6-1.2-0.6-1.9c0.1-2.1-0.8-3.8-2.6-5c-1.2-0.8-2.7-1.2-4.5-1   c-2.3,0.2-3.9,1-5.1,2.5c-0.6,0.8-1.2,1.3-1.8,1.6c-1.5,0.7-2.6,1.8-3.4,3.4c-0.9,1.7-1.3,3.5-1.7,5l-0.1,0.4H3.6H3.3   c-0.5,0-0.8,0.1-1.1,0.4c-0.2,0.2-0.3,0.6-0.3,1l0,0.5c0.1,1.1,0.1,2.2,0.4,3.2c1.5,7,5.5,12.1,12.1,15.1c0.1,0.1,0.3,0.1,0.5,0.1   c5.1,0,10.3,0,15.4,0c0.2,0,0.4,0,0.6-0.1c2.6-1.2,4.8-2.7,6.6-4.7c3.7-3.9,5.6-8.7,5.7-14c0-0.5-0.1-0.8-0.3-1   c-0.2-0.2-0.6-0.4-1.1-0.4l-1.9,0l0.2-0.7c0-0.1,0.1-0.2,0.1-0.3c0.9-2.9,0.5-5.4-1.3-7.5c-0.3-0.3-0.6-0.7-1-0.9   c-0.6-0.4-1.2-0.3-1.7,0.4l-1.3,1.6c-1.9,2.3-3.8,4.6-5.7,6.9c-0.5,0.7-1.2,0.7-1.7,0.6L27,19.2L27,18.8c-0.2-1-0.8-1.8-1.5-2.7   L25.2,15.9z M6.7,18.7c0.4-1.9,1-3.8,2.5-5.3c0.3-0.3,0.6-0.5,0.9-0.6c0.8-0.3,1.5-0.9,2.2-1.6l0.2-0.3c0.1-0.1,0.2-0.3,0.4-0.4   l0.1-0.1c0.5-0.6,1.1-1.2,2-1.4c1.1-0.2,2.4-0.4,3.6,0c1.5,0.5,2.3,1.6,2.3,3.2c0,0.2,0,0.3,0,0.5c0,0.3,0,0.6,0,1   c0.2,1.1,0.8,2,1.4,2.7c0.4,0.5,0.9,1,1.3,1.5l1.3,1.4H12l1-1c0.2-0.2,0.3-0.3,0.5-0.5l0.1-0.1c0.4-0.5,0.9-1,1.3-1.5   c0.2-0.2,0.5-0.5,1-0.3c0.5,0.2,1.1,0.3,1.6,0.4c0.6,0.1,1.1-0.2,1.3-0.8c0.2-0.6-0.1-1.2-0.7-1.4c-0.2-0.1-0.4-0.1-0.6-0.2   l-0.9-0.3l0.3-0.7c0-0.1,0.1-0.2,0.1-0.3c0.3-0.6,0.1-1.3-0.4-1.6c-0.6-0.3-1.2-0.2-1.6,0.4c-0.2,0.3-0.4,0.7-0.6,1   c-0.5,0.9-1.1,1.8-1.8,2.6c-0.6,0.7-1.3,1.4-2,2L10,17.7c-0.6,0.5-0.6,0.5-0.8,1.3l-0.1,0.3H6.5L6.7,18.7z M37.4,12.3l0.3,0.7   c0,0.1,0.1,0.2,0.1,0.3c0.1,0.3,0.2,0.5,0.3,0.7c0.4,1.6,0.2,3.2-0.7,4.7c-0.1,0.2-0.4,0.4-0.7,0.4c-0.8,0-1.5,0-2.3,0   c-0.3,0-0.6,0-0.8,0l-1.9,0L37.4,12.3z M40.9,21.6l0,0.5c-0.1,1.2-0.3,2.4-0.7,3.6c-1.5,4.6-4.2,8.2-8.3,10.5   c-0.5,0.3-1.1,0.5-1.6,0.8c-0.2,0.1-0.5,0.1-0.7,0.1c-2.1,0-4.1,0-6.2,0c-2.6,0-5.1,0-7.7,0c-0.3,0-0.6-0.1-0.9-0.2   C9,34,5.5,29.3,4.5,22.9c0-0.2,0-0.4-0.1-0.5c0-0.1,0-0.2,0-0.3l0.1-0.4l0.4-0.1H40.9z"></path>		<path class="st5" d="M16.8,33.7c-0.1-0.1-0.2-0.2-0.3-0.2c-0.8-0.4-1.6-0.9-2.3-1.4c-1.5-1.1-2.8-2.5-3.8-4.1   c0-0.1-0.1-0.2-0.2-0.3c-0.2-0.2-0.5-0.4-0.8-0.4c-0.6,0-1.1,0.5-1.1,1.1c0,0.2,0.1,0.3,0.1,0.5c0,0.1,0.1,0.2,0.1,0.2   c1.6,2.5,3.8,4.6,6.4,6c0.2,0.1,0.4,0.2,0.6,0.3c0.2,0.1,0.3,0.2,0.6,0.2c0.6,0,1.1-0.5,1.1-1.1C17.2,34.2,17,33.9,16.8,33.7z"></path>	</g></g><g id="_x35_minutos" class="st0">	<g class="st3">		<path class="st6" d="M15.3,17.2c2.4-3.2,6.2-5.2,10.5-5.2c7.2,0,13.1,5.9,13.1,13.1S33,38.2,25.7,38.2c-5.1,0-9.5-2.9-11.6-7.1"></path>		<polyline class="st7" points="20.6,24.8 23.6,28 31.6,21.4   "></polyline>		<line class="st6" x1="25.7" y1="12" x2="25.7" y2="6.8"></line>		<line class="st6" x1="23.1" y1="6.4" x2="28.3" y2="6.4"></line>		<line class="st7" x1="14.2" y1="24.2" x2="5.4" y2="24.2"></line>		<line class="st7" x1="15.4" y1="20.6" x2="8" y2="20.6"></line>		<line class="st7" x1="14.4" y1="27.8" x2="7.4" y2="27.8"></line>	</g></g><g id="lucete">	<g>		<path class="st5" d="M9.4,25.2c0-0.1-0.1-0.2-0.1-0.3c-0.1-0.2-0.1-0.3-0.2-0.5c-0.6-1.7-0.6-3.5-0.1-5.2c0.1-0.4,0.2-0.8-0.2-1.2   c-0.2-0.2-0.6-0.3-0.9-0.3c-0.3,0.1-0.6,0.3-0.7,0.7c-0.9,2.6-0.7,5.1,0.4,7.6c0.1,0.3,0.3,0.5,0.6,0.5c0.1,0,0.2,0.1,0.3,0.1   c0.1,0,0.3,0,0.4-0.1C9.4,26.2,9.6,25.7,9.4,25.2z"></path>		<path class="st8" d="M27,11.3c-4.6-4-13.1-4.5-18.5,1.4C3.6,18,3.3,27,10.2,32.7c6.3-6.5,12.6-12.9,19-19.4   c-0.4-0.4-0.7-0.7-1.1-1L27,11.3z M31.2,13.5c-3.5,3.5-6.9,7.1-10.4,10.6c-3.5,3.6-7,7.1-10.4,10.7l-1.2-1   c-3.1-2.6-5.1-5.9-5.6-9.9c-0.5-4,0.4-7.7,2.8-11c-1.2-0.7-1.7-1.7-1.3-2.8C5,9.9,5.2,9.7,5.3,9.4c0.2-0.2,0.4-0.4,0.5-0.5   c0.3-0.1,0.6-0.3,0.9-0.4c1.1-0.2,1.9,0.2,2.6,1.3c3.3-2.4,6.9-3.5,10.9-3c4.1,0.4,7.3,2.4,10,5.4L31.2,13.5z M7.7,11.3   C8,11,8,10.5,7.7,10.2c-0.3-0.3-0.8-0.3-1.1,0c-0.3,0.3-0.3,0.8,0,1.1C6.9,11.6,7.4,11.6,7.7,11.3z"></path>		<g id="_x38_jEVds.tif_1_">			<g>				<path class="st8" d="M39.1,34.2c0.3,0,0.5,0,0.7,0.1c1.1,0.3,1.8,1.5,1.7,2.8c-0.1,1.3-1.1,2.2-2.2,2.2c-2.1,0-4.1,0-6.2,0     c-0.1,0-0.3,0-0.5,0H17.1c-0.1,0-0.3,0-0.4,0c-2.3,0-4.6,0-6.8,0c-1.1,0-2.1-1-2.2-2.2c-0.1-1.3,0.6-2.5,1.7-2.8     c0.2-0.1,0.4-0.1,0.7-0.1l1.5,0c8.7,0,17.5,0,26.2,0L39.1,34.2z M24.6,35.9c-4.8,0-9.6,0-14.4,0c-0.1,0-0.3,0-0.4,0     c-0.3,0-0.6,0.3-0.6,0.7c0,0.4,0.1,0.8,0.5,0.9c0.2,0.1,0.4,0.1,0.6,0.1c9.6,0,19.2,0,28.8,0c0.1,0,0.2,0,0.4,0     c0.4-0.1,0.7-0.4,0.7-0.9c0-0.5-0.3-0.8-0.7-0.8c-0.1,0-0.2,0-0.4,0C34.2,35.9,29.4,35.9,24.6,35.9z"></path>			</g>		</g>		<path class="st5" d="M20.3,28.7c-0.3-0.3-0.3-0.7,0-1c0.8-0.9,1.8-1.6,2.9-2.1c0.7-0.3,1.5-0.5,2.3-0.6c0.2,0,0.3-0.1,0.3-0.3   c0.2-0.5,0.4-0.9,0.5-1.3c0-0.1,0.1-0.2,0.2-0.4c1.3,0.8,2.5,1.6,3.8,2.4c0.5-1,1.3-1.7,2.5-1.9c0,0.1,0,0.1,0,0.2   c0,0.7-0.1,1.4-0.1,2.1c0,0.2,0,0.2,0.2,0.2c1.2,0.4,2.5,0.8,3.7,1.1c0.4,0.1,0.9,0.3,1.3,0.4c0.1-0.1,0.1-0.2,0.2-0.3   c0.5-1,1.1-2,1.8-2.8c0.2-0.3,0.5-0.5,0.9-0.6c0,0,0,0,0,0c0,0-0.1,0.1-0.1,0.1c-0.4,1-0.7,2-0.8,3.1c-0.1,1.4,0,2.7,0.5,4   c0.1,0.4,0.3,0.7,0.4,1.1c0,0,0,0,0,0c-0.1,0-0.2,0-0.3-0.1c-0.2-0.2-0.4-0.3-0.6-0.5c-0.7-0.9-1.3-1.8-1.8-2.8   c0-0.1-0.1-0.2-0.1-0.2c-1.5,0.5-3,1-4.5,1.4l0.4,1.9c-0.9-0.1-1.7-0.6-2.2-1.2c-0.1-0.1-0.2-0.1-0.3-0.1   c-0.8,0.2-1.6,0.4-2.3,0.5c-0.2,0-0.3,0.1-0.3,0.3c-0.1,0.3-0.2,0.6-0.3,0.9c-0.3-0.3-0.6-0.6-0.9-0.9c-0.1-0.1-0.2-0.1-0.3-0.1   c-0.8,0-1.5-0.1-2.3-0.2l-1.3-0.4C22.2,30.3,21.1,29.6,20.3,28.7z M22.5,27.7c0,0.4,0.3,0.6,0.7,0.6c0.4,0,0.7-0.3,0.7-0.6   c0-0.4-0.3-0.7-0.7-0.7C22.8,27,22.5,27.3,22.5,27.7z"></path>	</g></g></svg>