<svg xmlns="http://www.w3.org/2000/svg" xmlns:xlink="http://www.w3.org/1999/xlink" id="Capa_1" x="0px" y="0px" viewBox="0 0 510.5 510.5" style="enable-background:new 0 0 510.5 510.5;" xml:space="preserve"><style type="text/css">	.st0{fill:#004A92;}</style><g>	<path class="st0" d="M261.8,90.4c-56.6-33-129.4-14-162.4,42.3c-4.4,7-2.2,16.4,5.1,21.3c7,4.7,16.7,2.5,21.6-4.9l0.3-0.5  c11.8-20.1,30.7-34.4,53.3-40.3c22.5-5.9,46-2.6,66.1,9.2c24,14,40,39.4,42.9,67.9c0.3,7.2,5.8,13.1,13,14.3l0.5,0.2h3.2l0.7-0.1  c8.4-1.2,14.6-9.1,13.6-17.3C316.6,144.3,295,109.9,261.8,90.4z"></path>	<path class="st0" d="M487.2,412.2L368.3,293.3c17.5-31.7,25.7-67,23.9-102.5C387.7,94.6,308.7,14.5,212.4,8.5  C157.3,5,103.4,25.2,64.6,64.1C25.4,103.2,5,157.3,8.5,212.4c6,96.3,86.1,175.3,182.3,179.8c35.6,1.8,70.8-6.4,102.5-23.9  l118.4,118.8l0.2,0.2c10.4,9.8,23.7,15.2,37.5,15.2h0c13.5,0,26.8-5.1,37.3-14.5l0.4-0.4c9.9-9.9,15.4-23.3,15.4-37.7  C502.6,435.5,497.1,422.1,487.2,412.2z M463.3,436.5c3.4,3.4,5.4,8.4,5.4,13.4c0,5.1-1.9,9.8-5.4,13.3c-7.7,7.3-19.7,7.3-27.5,0  L295.7,322.3l-7.4,7.4c-2.2,2.2-4.6,4.1-7.1,5.6c-26.8,16.5-57.6,24.3-89.3,22.7c-79.2-3.6-145.2-68.5-150.1-147.8  C39.1,164.5,55.9,120,87.9,88c32.6-32.2,77.3-48.9,122.7-45.8c78.7,4.9,143.9,71,148.3,150.6c1.3,33.6-7.6,66.2-25.8,94.1  l-7.6,11.4L463.3,436.5z"></path></g></svg>