<svg id="Capa_1" data-name="Capa 1" xmlns="http://www.w3.org/2000/svg" xmlns:xlink="http://www.w3.org/1999/xlink" viewBox="0 0 1920 65.8"><defs><style>.cls-1{fill:url(#Degradado_sin_nombre_22);}</style><linearGradient id="Degradado_sin_nombre_22" y1="32.9" x2="1920" y2="32.9" gradientUnits="userSpaceOnUse"><stop offset="0" stop-color="#aa8952"/><stop offset="0.25" stop-color="#dcbb82"/><stop offset="0.5" stop-color="#aa8952"/><stop offset="0.75" stop-color="#dcbb82"/><stop offset="1" stop-color="#aa8952"/></linearGradient></defs><path class="cls-1" d="M1920,20.81c-16.81,2.28-33.61,4.7-50.44,6.83-41,5.17-81.91,10.67-123,15.18-44.7,4.92-89.47,9.2-134.26,13.2-96.36,8.6-192.85,12.66-289.58,7.5-46.92-2.5-93.89-4.06-140.78-7-49.2-3.1-98.37-7-147.5-11.21-69.7-6-139.31-13-209-18.69-116-9.47-232.29-11.31-348.62-11.84-61-.28-122,.33-182.87,4.52-57.48,4-114.9,9.17-172.2,15.22C82.7,38.61,43.9,45.12,5,50.53c-1.64.23-3.32.19-5,.27v-16l39.48-4.93c40.65-5.06,81.22-10.93,122-14.95C208.52,10.28,255.7,6.2,302.93,3.86Q380.3,0,457.83,0c66.65,0,133.34.8,200,3q89.4,2.88,178.66,9.62c65.1,4.86,130,12.07,195.09,17.64,48.13,4.12,96.31,7.87,144.54,10.66,62.21,3.61,124.47,6.47,186.73,9a1374,1374,0,0,0,158.88-2.48c47.17-3.56,94.41-6.51,141.5-11,51.39-4.89,102.68-11,153.94-17.06,30.75-3.66,61.38-8.33,92.06-12.59,3.63-.51,7.21-1.27,10.82-1.92Z" transform="translate(0 0)"/></svg>