<svg xmlns="http://www.w3.org/2000/svg" xmlns:xlink="http://www.w3.org/1999/xlink" id="Capa_1" x="0px" y="0px" viewBox="0 0 111 130" xml:space="preserve"><path fill="#F6E031" d="M0,0.5h111V75c0,30.7-24.8,55.5-55.5,55.5l0,0C24.8,130.5,0,105.7,0,75V0.5z"></path><g id="para_todos">	<path fill="none" stroke="#002853" stroke-width="2" stroke-linecap="round" stroke-linejoin="round" stroke-miterlimit="10" d="  M57.2,66.6c1.6-3.9,4.7-4.1,6.8-3.1l0,0c2.6,1,5.1,1.6,7.8,1.6c0.8,0,1.8,0,2.6-0.2c1.3-0.2,2.9,0.2,4.1,1"></path>			<ellipse fill="none" stroke="#004A92" stroke-width="1.9999" stroke-linecap="round" stroke-linejoin="round" stroke-miterlimit="9.9996" cx="54.1" cy="73.2" rx="6.7" ry="6.7"></ellipse>	<path fill="none" stroke="#004A92" stroke-width="2" stroke-linecap="round" stroke-linejoin="round" stroke-miterlimit="10" d="  M43.8,85c1-0.8,2.3-1.3,3.7-1.3c0.8,0,1.8,0.2,2.6,0.6c1.2,0.6,2.8,1,4.3,1s2.9-0.4,4.3-1c0.8-0.4,1.6-0.6,2.6-0.6  c1.6,0,3.1,0.8,4.1,1.8"></path>			<line fill="none" stroke="#004A92" stroke-width="2" stroke-linecap="round" stroke-linejoin="round" stroke-miterlimit="10" x1="67.1" y1="96.5" x2="67.1" y2="91.6"></line>			<line fill="none" stroke="#004A92" stroke-width="2" stroke-linecap="round" stroke-linejoin="round" stroke-miterlimit="10" x1="41" y1="96.5" x2="41" y2="91.6"></line>			<line fill="none" stroke="#004A92" stroke-width="2" stroke-linecap="round" stroke-linejoin="round" stroke-miterlimit="10" x1="47.5" y1="96.5" x2="47.5" y2="92.1"></line>			<line fill="none" stroke="#004A92" stroke-width="2" stroke-linecap="round" stroke-linejoin="round" stroke-miterlimit="10" x1="60.9" y1="96.5" x2="60.9" y2="92.1"></line>			<circle fill="none" stroke="#002853" stroke-width="2" stroke-linecap="round" stroke-linejoin="round" stroke-miterlimit="10" cx="48.7" cy="42.6" r="8.3"></circle>			<circle fill="none" stroke="#002853" stroke-width="2" stroke-linecap="round" stroke-linejoin="round" stroke-miterlimit="10" cx="71.2" cy="52.2" r="7"></circle>	<path fill="none" stroke="#002853" stroke-width="2" stroke-linecap="round" stroke-linejoin="round" stroke-miterlimit="10" d="  M56.4,54.5c0,0-4.1,2.1-7.2,2.3c-3.1,0.2-6.4-1.2-7.5-1.6c-3.7-1.2-8,0.6-9.8,3.9L25.5,72c-0.2,0.6-0.4,1.2-0.4,1.8  c0,0.6,0.2,1.3,0.4,2c0.2,0.2,0.4,0.6,0.6,0.8l0,0"></path>			<line fill="none" stroke="#002853" stroke-width="2" stroke-linecap="round" stroke-linejoin="round" stroke-miterlimit="10" x1="38.9" y1="64.2" x2="34.3" y2="73.8"></line>	<path fill="none" stroke="#002853" stroke-width="2" stroke-linecap="round" stroke-linejoin="round" stroke-miterlimit="10" d="  M34.3,73.8L41.8,85l0.2,0.4c1.3,2,0.8,4.4-1.2,5.7c-0.4,0.2-0.6,0.4-1,0.4c-0.4,0.2-1,0.2-1.3,0.2c-1.3,0-2.8-0.6-3.5-1.8L26,76.7  l0,0l-0.6-0.8"></path>	<path fill="none" stroke="#002853" stroke-width="2" stroke-linecap="round" stroke-linejoin="round" stroke-miterlimit="10" d="  M83.3,83.6l0.2-0.2c1-0.6,1.6-1.8,1.6-2.9c0-0.4,0-1-0.2-1.3l-2.9-7.5"></path>			<line fill="none" stroke="#002853" stroke-width="2" stroke-linecap="round" stroke-linejoin="round" stroke-miterlimit="10" x1="76.8" y1="79.2" x2="74.7" y2="73.8"></line>	<path fill="none" stroke="#002853" stroke-width="2" stroke-linecap="round" stroke-linejoin="round" stroke-miterlimit="10" d="  M76.8,79.2l-9.8,6c-0.2,0-0.2,0.2-0.4,0.2c-1.3,1.2-1.8,3.1-0.8,4.7c0.6,0.8,1.3,1.3,2.3,1.6c0.2,0,0.6,0,0.8,0  c0.6,0,1.3-0.2,2-0.6l12.3-7.5l0.2-0.2"></path>	<path fill="none" stroke="#002853" stroke-width="2" stroke-linecap="round" stroke-linejoin="round" stroke-miterlimit="10" d="  M78.6,70.5l-0.4-0.6c-1.2-1.6-0.8-3.7,0.8-4.9l0.4-0.4c2.3-1.3,7,4.9,4.7,6.2l-0.4,0.4C82.1,72.3,79.7,72,78.6,70.5z"></path></g></svg>