<svg xmlns="http://www.w3.org/2000/svg" xmlns:xlink="http://www.w3.org/1999/xlink" id="Capa_1" x="0px" y="0px" viewBox="0 0 111 130" xml:space="preserve"><path fill="#F6E031" d="M0,0.5h111V75c0,30.7-24.8,55.5-55.5,55.5l0,0C24.8,130.5,0,105.7,0,75V0.5z"></path><g id="_x35_minutos">	<g>					<path fill="none" stroke="#002853" stroke-width="2.3" stroke-linecap="round" stroke-linejoin="round" stroke-miterlimit="10" d="   M41.7,56.5c4.3-5.7,11.1-9.3,18.8-9.3C73.4,47.2,84,57.8,84,70.7S73.4,94.1,60.3,94.1c-9.1,0-17-5.2-20.8-12.7"></path>					<polyline fill="none" stroke="#004A92" stroke-width="2.3" stroke-linecap="round" stroke-linejoin="round" stroke-miterlimit="10" points="   51.2,70.1 56.6,75.9 70.9,64   "></polyline>					<line fill="none" stroke="#002853" stroke-width="2.3" stroke-linecap="round" stroke-linejoin="round" stroke-miterlimit="10" x1="60.3" y1="47.2" x2="60.3" y2="37.9"></line>					<line fill="none" stroke="#002853" stroke-width="2.3" stroke-linecap="round" stroke-linejoin="round" stroke-miterlimit="10" x1="55.7" y1="37.2" x2="65" y2="37.2"></line>					<line fill="none" stroke="#004A92" stroke-width="2.3" stroke-linecap="round" stroke-linejoin="round" stroke-miterlimit="10" x1="39.7" y1="69.1" x2="24" y2="69.1"></line>					<line fill="none" stroke="#004A92" stroke-width="2.3" stroke-linecap="round" stroke-linejoin="round" stroke-miterlimit="10" x1="41.9" y1="62.6" x2="28.6" y2="62.6"></line>					<line fill="none" stroke="#004A92" stroke-width="2.3" stroke-linecap="round" stroke-linejoin="round" stroke-miterlimit="10" x1="40.1" y1="75.5" x2="27.5" y2="75.5"></line>	</g></g></svg>