<svg xmlns="http://www.w3.org/2000/svg" xmlns:xlink="http://www.w3.org/1999/xlink" id="Capa_1" x="0px" y="0px" viewBox="0 0 111 130" xml:space="preserve"><path fill="#F6E031" d="M0,0.5h111V75c0,30.7-24.8,55.5-55.5,55.5l0,0C24.8,130.5,0,105.7,0,75V0.5z"></path><g id="toda_la_familia">	<g>		<g>			<path fill="#004A92" d="M57.4,67.6c-0.2,0-0.5-0.1-0.7-0.2c-0.9-0.4-1.4-1.5-1-2.4c1-2.5,2.6-3.6,3.8-4.1c1.6-0.7,3.4-0.6,5,0.1    c2.1,0.9,4.3,1.3,6.6,1.3c0.8,0,1.5-0.1,2.2-0.1c1.8-0.2,3.6,0.2,5,1.2c0.8,0.6,1.1,1.7,0.5,2.5c-0.6,0.8-1.7,1.1-2.5,0.5    c-0.7-0.5-1.6-0.7-2.5-0.6c-0.9,0.1-1.7,0.2-2.6,0.2c-2.7,0-5.4-0.5-8-1.6c-0.4-0.2-1.3-0.5-2.2-0.1c-0.7,0.3-1.3,1-1.8,2.1    C58.8,67.2,58.1,67.6,57.4,67.6z"></path>		</g>		<g>			<path fill="#004A92" d="M54.6,80.1c-4.4,0-8-3.6-8-8s3.6-8,8-8s8,3.6,8,8S59,80.1,54.6,80.1z M54.6,67.8c-2.4,0-4.3,1.9-4.3,4.3    s1.9,4.3,4.3,4.3c2.4,0,4.3-1.9,4.3-4.3C58.9,69.7,57,67.8,54.6,67.8z"></path>		</g>		<g>			<path fill="#004A92" d="M64.7,85.5c-0.5,0-1-0.2-1.4-0.6c-1-1.1-2.8-1.3-3.9-0.7c-3,1.6-6.8,1.6-9.8,0c-1-0.6-2.7-0.4-3.7,0.5    c-0.8,0.7-1.9,0.6-2.6-0.2c-0.7-0.8-0.6-1.9,0.2-2.6c2.1-1.9,5.5-2.3,7.9-1c1.9,1,4.3,1,6.3,0c0.9-0.5,2-0.8,3.2-0.8    c2,0,3.9,0.8,5.2,2.3c0.7,0.8,0.6,1.9-0.1,2.6C65.6,85.3,65.1,85.5,64.7,85.5z"></path>		</g>		<g>			<path fill="#004A92" d="M66.7,96c-1,0-1.8-0.8-1.8-1.8v-4.6c0-1,0.8-1.8,1.8-1.8s1.8,0.8,1.8,1.8v4.6C68.6,95.2,67.7,96,66.7,96z    "></path>		</g>		<g>			<path fill="#004A92" d="M42.2,96c-1,0-1.8-0.8-1.8-1.8v-4.7c0-1,0.8-1.8,1.8-1.8s1.8,0.8,1.8,1.8v4.7C44,95.2,43.2,96,42.2,96z"></path>		</g>		<g>			<path fill="#004A92" d="M48.2,95.9c-1,0-1.8-0.8-1.8-1.8v-4.1c0-1,0.8-1.8,1.8-1.8s1.8,0.8,1.8,1.8v4.1    C50,95.1,49.2,95.9,48.2,95.9z"></path>		</g>		<g>			<path fill="#004A92" d="M60.9,95.9c-1,0-1.8-0.8-1.8-1.8v-4.1c0-1,0.8-1.8,1.8-1.8s1.8,0.8,1.8,1.8v4.1    C62.8,95.1,61.9,95.9,60.9,95.9z"></path>		</g>		<g>			<path fill="#004A92" d="M49.3,52.8c-5.3,0-9.7-4.3-9.7-9.7s4.3-9.7,9.7-9.7s9.7,4.3,9.7,9.7C58.9,48.5,54.6,52.8,49.3,52.8z     M49.3,37.2c-3.3,0-6,2.7-6,6c0,3.3,2.7,6,6,6c3.3,0,6-2.7,6-6S52.5,37.2,49.3,37.2z"></path>		</g>		<g>			<path fill="#004A92" d="M70.7,60.6c-4.6,0-8.4-3.8-8.4-8.4s3.8-8.4,8.4-8.4s8.4,3.8,8.4,8.4S75.3,60.6,70.7,60.6z M70.7,47.5    c-2.6,0-4.7,2.1-4.7,4.7s2.1,4.7,4.7,4.7s4.7-2.1,4.7-4.7S73.3,47.5,70.7,47.5z"></path>		</g>		<g>			<path fill="#004A92" d="M28.3,77.3c-0.6,0-1.1-0.3-1.5-0.7c-0.3-0.3-0.5-0.7-0.7-1c-0.4-0.8-0.6-1.7-0.6-2.6    c0-0.9,0.2-1.7,0.6-2.5l6-12.2c2-4.1,7-6.2,11.4-4.7l0.3,0.1c1.1,0.4,3.8,1.3,6.1,1.2c2.1-0.1,5-1.4,6-1.9c0.9-0.5,2-0.1,2.5,0.8    c0.5,0.9,0.1,2-0.8,2.5c-0.2,0.1-4.2,2.2-7.5,2.3c-3.1,0.2-6.2-0.9-7.5-1.4l-0.3-0.1c-2.6-0.9-5.8,0.4-6.9,2.8l-6,12.2    c-0.2,0.3-0.2,0.6-0.2,0.9c0,0.3,0.1,0.7,0.2,1c0.1,0.2,0.2,0.3,0.3,0.4c0.1,0.1,0.2,0.2,0.2,0.3c0.5,0.9,0.2,2-0.7,2.5    C28.9,77.2,28.6,77.3,28.3,77.3z"></path>		</g>		<g>			<path fill="#004A92" d="M35.7,74.4c-0.3,0-0.6-0.1-0.8-0.2c-0.9-0.5-1.3-1.5-0.8-2.5l4.4-9c0.5-0.9,1.5-1.3,2.5-0.8    c0.9,0.5,1.3,1.5,0.8,2.5l-4.4,9C37.1,74,36.4,74.4,35.7,74.4z"></path>		</g>		<g>			<path fill="#004A92" d="M39.9,91.5c-1.9,0-3.7-1-4.8-2.5l-8.9-13.3c-0.6-0.8-0.3-2,0.5-2.5c0.8-0.6,2-0.4,2.5,0.5l8.9,13.3    c0.5,0.8,1.6,1.1,2.4,0.8c0.2-0.1,0.4-0.2,0.5-0.3c0.5-0.3,0.8-0.8,0.9-1.3s0-1.1-0.3-1.5l-0.2-0.3l-7.2-10.7    c-0.6-0.8-0.3-2,0.5-2.5c0.8-0.6,2-0.4,2.5,0.5l7.4,11c0.9,1.3,1.2,2.8,0.9,4.3c-0.3,1.5-1.2,2.8-2.4,3.7    c-0.4,0.3-0.9,0.5-1.3,0.7C41.2,91.4,40.6,91.5,39.9,91.5z"></path>		</g>		<g>			<path fill="#004A92" d="M82,83.9c-0.6,0-1.2-0.3-1.6-0.9c-0.5-0.9-0.3-2,0.6-2.5l0.2-0.1c0.3-0.2,0.6-0.7,0.6-1.2    c0-0.2,0-0.4-0.1-0.6l-2.8-7.1c-0.4-0.9,0.1-2,1-2.4c1-0.4,2,0.1,2.4,1l2.8,7.1c0.3,0.6,0.4,1.3,0.4,1.9c0,1.7-0.8,3.3-2.2,4.3    L83,83.7C82.7,83.8,82.3,83.9,82,83.9z"></path>		</g>		<g>			<path fill="#004A92" d="M76.1,79.6c-0.7,0-1.4-0.4-1.7-1.2l-2.1-5.2c-0.4-0.9,0.1-2,1-2.4c0.9-0.4,2,0.1,2.4,1l2.1,5.2    c0.4,0.9-0.1,2-1,2.4C76.5,79.6,76.3,79.6,76.1,79.6z"></path>		</g>		<g>			<path fill="#004A92" d="M68.7,91.5c-0.4,0-0.8-0.1-1.2-0.1c-1.4-0.3-2.6-1.1-3.3-2.4c-1.4-2.2-0.9-5.2,1.2-6.8    c0.1-0.1,0.3-0.2,0.5-0.4l9.2-5.6c0.9-0.5,2-0.3,2.5,0.6c0.5,0.9,0.3,2-0.6,2.5L67.8,85c0,0-0.1,0.1-0.2,0.1    c-0.6,0.5-0.8,1.4-0.4,2c0.2,0.4,0.6,0.6,1,0.7c0.5,0.1,0.8,0,1.2-0.2l11.8-7.2c0.9-0.5,2-0.3,2.5,0.6c0.5,0.9,0.3,2-0.6,2.5    l-11.8,7.2C70.5,91.3,69.6,91.5,68.7,91.5z"></path>		</g>		<g>			<path fill="#004A92" d="M80.4,72.6c-0.3,0-0.5,0-0.8-0.1c-1.4-0.2-2.6-0.9-3.4-2L75.8,70c-1.7-2.3-1.2-5.5,1.1-7.2l0.4-0.3    c2.5-1.5,5.3,0.4,6.9,3c1.8,3,0.9,5.1-0.5,5.9l-0.3,0.2C82.5,72.3,81.5,72.6,80.4,72.6z M79.2,65.7l-0.1,0.1    c-0.7,0.5-0.8,1.4-0.3,2l0.4,0.6l0,0c0.2,0.3,0.6,0.5,1,0.6c0.4,0.1,0.8-0.1,1.1-0.3l0.3-0.2c-0.1-0.4-0.4-1-0.9-1.7    C80,66.1,79.4,65.8,79.2,65.7z M81.6,68.4C81.6,68.4,81.6,68.4,81.6,68.4L81.6,68.4z"></path>		</g>	</g></g></svg>