<svg xmlns="http://www.w3.org/2000/svg" xmlns:xlink="http://www.w3.org/1999/xlink" id="Capa_1" x="0px" y="0px" viewBox="0 0 111 130" xml:space="preserve"><path fill="#F6E031" d="M0,0.5h111V75c0,30.7-24.8,55.5-55.5,55.5l0,0C24.8,130.5,0,105.7,0,75V0.5z"></path><g id="lucete">	<g>		<path fill="#004A92" d="M34.4,69.1c0-0.2-0.2-0.3-0.2-0.5c-0.2-0.3-0.2-0.5-0.3-0.8c-0.9-2.7-0.9-5.5-0.2-8.2   c0.2-0.6,0.3-1.3-0.3-1.9c-0.3-0.3-0.9-0.5-1.4-0.5c-0.5,0.2-0.9,0.5-1.1,1.1c-1.4,4.1-1.1,8,0.6,12c0.2,0.5,0.5,0.8,0.9,0.8   c0.2,0,0.3,0.2,0.5,0.2c0.2,0,0.5,0,0.6-0.2C34.4,70.7,34.8,69.9,34.4,69.1z"></path>		<path fill="#002853" stroke="#002853" stroke-width="0.8" stroke-miterlimit="10" d="M62.2,47.2c-7.3-6.3-20.7-7.1-29.2,2.2   c-7.7,8.4-8.2,22.6,2.7,31.5c9.9-10.3,19.9-20.3,30-30.6c-0.6-0.6-1.1-1.1-1.7-1.6L62.2,47.2z M68.8,50.6   c-5.5,5.5-10.9,11.2-16.4,16.7C46.9,73,41.4,78.5,36,84.2l-1.9-1.6c-4.9-4.1-8-9.3-8.8-15.6c-0.8-6.3,0.6-12.1,4.4-17.3   c-1.9-1.1-2.7-2.7-2.1-4.4c-0.2-0.3,0.2-0.6,0.3-1.1c0.3-0.3,0.6-0.6,0.8-0.8c0.5-0.2,0.9-0.5,1.4-0.6c1.7-0.3,3,0.3,4.1,2.1   c5.2-3.8,10.9-5.5,17.2-4.7c6.5,0.6,11.5,3.8,15.8,8.5L68.8,50.6z M31.8,47.2c0.5-0.5,0.5-1.3,0-1.7s-1.3-0.5-1.7,0   c-0.5,0.5-0.5,1.3,0,1.7C30.5,47.6,31.3,47.6,31.8,47.2z"></path>		<g id="_x38_jEVds.tif_1_">			<g>				<path fill="#002853" stroke="#002853" stroke-width="0.8" stroke-miterlimit="10" d="M81.3,83.3c0.5,0,0.8,0,1.1,0.2     c1.7,0.5,2.8,2.4,2.7,4.4c-0.2,2.1-1.7,3.5-3.5,3.5c-3.3,0-6.5,0-9.8,0c-0.2,0-0.5,0-0.8,0H46.6c-0.2,0-0.5,0-0.6,0     c-3.6,0-7.3,0-10.7,0c-1.7,0-3.3-1.6-3.5-3.5c-0.2-2.1,0.9-3.9,2.7-4.4c0.3-0.2,0.6-0.2,1.1-0.2h2.4c13.7,0,27.6,0,41.3,0H81.3z      M58.4,85.9c-7.6,0-15.1,0-22.7,0c-0.2,0-0.5,0-0.6,0c-0.5,0-0.9,0.5-0.9,1.1s0.2,1.3,0.8,1.4c0.3,0.2,0.6,0.2,0.9,0.2     c15.1,0,30.3,0,45.4,0c0.2,0,0.3,0,0.6,0c0.6-0.2,1.1-0.6,1.1-1.4s-0.5-1.3-1.1-1.3c-0.2,0-0.3,0-0.6,0     C73.6,85.9,66,85.9,58.4,85.9z"></path>			</g>		</g>		<path fill="#004A92" d="M51.6,74.6c-0.5-0.5-0.5-1.1,0-1.6c1.3-1.4,2.8-2.5,4.6-3.3c1.1-0.5,2.4-0.8,3.6-0.9   c0.3,0,0.5-0.2,0.5-0.5c0.3-0.8,0.6-1.4,0.8-2.1c0-0.2,0.2-0.3,0.3-0.6c2.1,1.3,3.9,2.5,6,3.8c0.8-1.6,2.1-2.7,3.9-3   c0,0.2,0,0.2,0,0.3c0,1.1-0.2,2.2-0.2,3.3c0,0.3,0,0.3,0.3,0.3c1.9,0.6,3.9,1.3,5.8,1.7c0.6,0.2,1.4,0.5,2.1,0.6   c0.2-0.2,0.2-0.3,0.3-0.5c0.8-1.6,1.7-3.2,2.8-4.4c0.3-0.5,0.8-0.8,1.4-0.9l0,0L83.8,67c-0.6,1.6-1.1,3.2-1.3,4.9   c-0.2,2.2,0,4.3,0.8,6.3c0.2,0.6,0.5,1.1,0.6,1.7l0,0c-0.2,0-0.3,0-0.5-0.2c-0.3-0.3-0.6-0.5-0.9-0.8c-1.1-1.4-2.1-2.8-2.8-4.4   c0-0.2-0.2-0.3-0.2-0.3c-2.4,0.8-4.7,1.6-7.1,2.2l0.6,3c-1.4-0.2-2.7-0.9-3.5-1.9c-0.2-0.2-0.3-0.2-0.5-0.2   c-1.3,0.3-2.5,0.6-3.6,0.8c-0.3,0-0.5,0.2-0.5,0.5c-0.2,0.5-0.3,0.9-0.5,1.4c-0.5-0.5-0.9-0.9-1.4-1.4c-0.2-0.2-0.3-0.2-0.5-0.2   c-1.3,0-2.4-0.2-3.6-0.3L57,77.6C54.6,77.1,52.9,76,51.6,74.6z M55.1,73c0,0.6,0.5,0.9,1.1,0.9c0.6,0,1.1-0.5,1.1-0.9   c0-0.6-0.5-1.1-1.1-1.1C55.6,71.9,55.1,72.4,55.1,73z"></path>	</g></g></svg>