<svg xmlns="http://www.w3.org/2000/svg" xmlns:xlink="http://www.w3.org/1999/xlink" id="Capa_1" x="0px" y="0px" viewBox="0 0 111 130" xml:space="preserve"><path fill="#F6E031" d="M0,0.5h111V75c0,30.7-24.8,55.5-55.5,55.5l0,0C24.8,130.5,0,105.7,0,75V0.5z"></path><g id="saludables">	<g>		<path fill="#002853" d="M59,55.2c-0.7-0.7-1.3-1.6-2-2.3c-0.6-0.7-0.9-1.7-0.9-2.8c0.1-3.1-1.2-5.5-3.8-7.3   c-1.7-1.2-3.9-1.7-6.5-1.5c-3.3,0.3-5.7,1.5-7.4,3.6c-0.9,1.2-1.7,1.9-2.6,2.3c-2.2,1-3.8,2.6-4.9,4.9c-1.3,2.5-1.9,5.1-2.5,7.3   l-0.1,0.6h-0.6h-0.4c-0.7,0-1.2,0.1-1.6,0.6c-0.3,0.3-0.4,0.9-0.4,1.5v0.7c0.1,1.6,0.1,3.2,0.6,4.6c2.2,10.2,8,17.6,17.6,21.9   c0.1,0.1,0.4,0.1,0.7,0.1c7.4,0,15,0,22.4,0c0.3,0,0.6,0,0.9-0.1c3.8-1.7,7-3.9,9.6-6.8C82.2,77,85,70,85.1,62.3   c0-0.7-0.1-1.2-0.4-1.5s-0.9-0.6-1.6-0.6h-2.8l0.3-1c0-0.1,0.1-0.3,0.1-0.4c1.3-4.2,0.7-7.8-1.9-10.9c-0.4-0.4-0.9-1-1.5-1.3   c-0.9-0.6-1.7-0.4-2.5,0.6l-1.9,2.3c-2.8,3.3-5.5,6.7-8.3,10c-0.7,1-1.7,1-2.5,0.9L61.6,60v-0.6c-0.3-1.5-1.2-2.6-2.2-3.9L59,55.2   z M32.1,59.3c0.6-2.8,1.5-5.5,3.6-7.7c0.4-0.4,0.9-0.7,1.3-0.9c1.2-0.4,2.2-1.3,3.2-2.3l0.3-0.4c0.1-0.1,0.3-0.4,0.6-0.6l0.1-0.1   c0.7-0.9,1.6-1.7,2.9-2c1.6-0.3,3.5-0.6,5.2,0c2.2,0.7,3.3,2.3,3.3,4.6c0,0.3,0,0.4,0,0.7c0,0.4,0,0.9,0,1.5   c0.3,1.6,1.2,2.9,2,3.9c0.6,0.7,1.3,1.5,1.9,2.2l1.9,2H39.8l1.5-1.5c0.3-0.3,0.4-0.4,0.7-0.7l0.1-0.1c0.6-0.7,1.3-1.5,1.9-2.2   c0.3-0.3,0.7-0.7,1.5-0.4c0.7,0.3,1.6,0.4,2.3,0.6c0.9,0.1,1.6-0.3,1.9-1.2c0.3-0.9-0.1-1.7-1-2c-0.3-0.1-0.6-0.1-0.9-0.3   l-1.3-0.4l0.4-1c0-0.1,0.1-0.3,0.1-0.4c0.4-0.9,0.1-1.9-0.6-2.3c-0.9-0.4-1.7-0.3-2.3,0.6c-0.3,0.4-0.6,1-0.9,1.5   c-0.7,1.3-1.6,2.6-2.6,3.8c-0.9,1-1.9,2-2.9,2.9l-0.9,1c-0.9,0.7-0.9,0.7-1.2,1.9l-0.1,0.4h-3.8L32.1,59.3z M76.7,50l0.4,1   c0,0.1,0.1,0.3,0.1,0.4c0.1,0.4,0.3,0.7,0.4,1c0.6,2.3,0.3,4.6-1,6.8c-0.1,0.3-0.6,0.6-1,0.6c-1.2,0-2.2,0-3.3,0   c-0.4,0-0.9,0-1.2,0h-2.8L76.7,50z M81.8,63.5v0.7c-0.1,1.7-0.4,3.5-1,5.2c-2.2,6.7-6.1,11.9-12.1,15.3c-0.7,0.4-1.6,0.7-2.3,1.2   c-0.3,0.1-0.7,0.1-1,0.1c-3.1,0-6,0-9,0c-3.8,0-7.4,0-11.2,0c-0.4,0-0.9-0.1-1.3-0.3c-8.4-4.2-13.5-11-15-20.3   c0-0.3,0-0.6-0.1-0.7c0-0.1,0-0.3,0-0.4l0.1-0.6l0.6-0.1H81.8z"></path>		<path fill="#004A92" d="M46.8,81.1c-0.1-0.1-0.3-0.3-0.4-0.3c-1.2-0.6-2.3-1.3-3.3-2c-2.2-1.6-4.1-3.6-5.5-6   c0-0.1-0.1-0.3-0.3-0.4c-0.3-0.3-0.7-0.6-1.2-0.6c-0.9,0-1.6,0.7-1.6,1.6c0,0.3,0.1,0.4,0.1,0.7c0,0.1,0.1,0.3,0.1,0.3   c2.3,3.6,5.5,6.7,9.3,8.7c0.3,0.1,0.6,0.3,0.9,0.4c0.3,0.1,0.4,0.3,0.9,0.3c0.9,0,1.6-0.7,1.6-1.6C47.4,81.8,47.1,81.4,46.8,81.1z   "></path>	</g></g></svg>