<svg xmlns="http://www.w3.org/2000/svg" width="54" height="50" viewBox="0 0 54 50" fill="none"><path d="M22.2389 47.8676C10.7807 46.4479 2.14006 36.6561 2.14006 25.0917C2.14006 12.4361 12.4361 2.14006 25.0917 2.14006C37.7472 2.14006 48.0433 12.4361 48.0433 25.0917C48.0433 25.9125 47.9996 26.7402 47.9131 27.5512C47.8679 27.9732 47.8108 28.3971 47.7424 28.8173L45.1985 28.4771C44.8194 28.4266 44.4425 28.5819 44.2089 28.8846C43.9757 29.1873 43.9215 29.5919 44.067 29.9452L46.8438 36.6863C46.9893 37.0399 47.3124 37.2888 47.6915 37.3394C47.7388 37.3456 47.7864 37.3488 47.8334 37.3488C48.1626 37.3488 48.4766 37.1967 48.6807 36.9319L53.1304 31.1564C53.491 30.6882 53.404 30.0162 52.9358 29.6556C52.4675 29.2947 51.7955 29.382 51.4349 29.8502L48.1164 34.1573L46.7517 30.8439L48.2478 31.044C48.2918 31.0596 48.3373 31.0727 48.3846 31.0825C48.9631 31.2033 49.5303 30.8326 49.6511 30.2541C49.6711 30.158 49.6907 30.062 49.7097 29.9656C49.8516 29.2456 49.9629 28.5095 50.0407 27.7775C50.135 26.8912 50.183 25.9878 50.183 25.0913C50.183 21.7044 49.5194 18.4183 48.2107 15.3242C46.9467 12.3361 45.1377 9.65283 42.8336 7.34868C40.5294 5.04453 37.8462 3.23556 34.8584 1.97161C31.7647 0.66363 28.4786 0 25.0917 0C21.7048 0 18.4186 0.66363 15.3246 1.97233C12.3365 3.23629 9.65319 5.04526 7.34941 7.34941C5.04526 9.65319 3.23592 12.3365 1.97233 15.3246C0.66363 18.4186 0 21.7048 0 25.0917C0 31.2495 2.25248 37.1716 6.34232 41.7672C10.398 46.3242 15.95 49.245 21.9758 49.9916C22.0206 49.9971 22.065 50 22.1086 50C22.6409 50 23.1023 49.6031 23.1692 49.0613C23.242 48.4748 22.8254 47.9403 22.2389 47.8676Z" fill="#A98B55"></path><path d="M15.3989 10.3913C15.5972 10.7348 15.9567 10.9265 16.3267 10.9265C16.5083 10.9265 16.6924 10.8803 16.8608 10.7828C17.3727 10.4874 17.5481 9.83283 17.2527 9.32091L16.6105 8.20868C16.3151 7.69677 15.6605 7.5214 15.1486 7.81683C14.6367 8.11226 14.4613 8.7668 14.7568 9.27871L15.3989 10.3913Z" fill="#A98B55"></path><path d="M33.5728 41.8708C33.7711 42.2143 34.1305 42.406 34.5005 42.406C34.6821 42.406 34.8662 42.3598 35.0346 42.2623C35.5466 41.9669 35.7219 41.3123 35.4265 40.8004L34.7843 39.6882C34.4889 39.1763 33.8344 39.0009 33.3225 39.2963C32.8105 39.5918 32.6352 40.2463 32.9306 40.7582L33.5728 41.8708Z" fill="#A98B55"></path><path d="M40.2763 17.3441C40.4579 17.3441 40.642 17.2979 40.8105 17.2004L41.9227 16.5583C42.4346 16.2628 42.61 15.6083 42.3145 15.0964C42.0191 14.5845 41.3646 14.4091 40.8527 14.7045L39.7404 15.3467C39.2285 15.6421 39.0531 16.2967 39.3486 16.8086C39.5469 17.152 39.9067 17.3441 40.2763 17.3441Z" fill="#A98B55"></path><path d="M8.79587 35.5189C8.97743 35.5189 9.16153 35.4727 9.32998 35.3752L10.4422 34.7331C10.9541 34.4376 11.1295 33.7831 10.8341 33.2712C10.5386 32.7593 9.8841 32.5839 9.37218 32.8793L8.25995 33.5215C7.74804 33.8169 7.57267 34.4715 7.8681 34.9834C8.06639 35.3272 8.42622 35.5189 8.79587 35.5189Z" fill="#A98B55"></path><path d="M15.1486 42.2629C15.3171 42.36 15.5012 42.4066 15.6827 42.4066C16.0524 42.4066 16.4122 42.2145 16.6105 41.8714L17.2527 40.7592C17.5481 40.2473 17.3727 39.5927 16.8608 39.2973C16.3489 39.0019 15.6944 39.1772 15.3989 39.6891L14.7568 40.8014C14.4613 41.3129 14.6367 41.9675 15.1486 42.2629Z" fill="#A98B55"></path><path d="M33.8566 10.9266C34.2262 10.9266 34.586 10.7345 34.7843 10.3914L35.4265 9.2792C35.7219 8.76729 35.5466 8.11275 35.0346 7.81732C34.5227 7.52189 33.8682 7.69726 33.5728 8.20917L32.9306 9.3214C32.6352 9.83332 32.8105 10.4878 33.3225 10.7833C33.4909 10.8804 33.675 10.9266 33.8566 10.9266Z" fill="#A98B55"></path><path d="M10.4422 15.3472L9.32998 14.705C8.81807 14.4096 8.16353 14.585 7.8681 15.0969C7.57267 15.6088 7.74804 16.2633 8.25995 16.5587L9.37218 17.2009C9.54064 17.298 9.72474 17.3446 9.90629 17.3446C10.2759 17.3446 10.6358 17.1525 10.8341 16.8094C11.1295 16.2971 10.9541 15.6426 10.4422 15.3472Z" fill="#A98B55"></path><path d="M39.7404 34.7327L40.8527 35.3749C41.0211 35.472 41.2052 35.5186 41.3868 35.5186C41.7564 35.5186 42.1162 35.3265 42.3145 34.9834C42.61 34.4715 42.4346 33.8169 41.9227 33.5215L40.8105 32.8793C40.2985 32.5839 39.644 32.7593 39.3486 33.2712C39.0531 33.7827 39.2285 34.4373 39.7404 34.7327Z" fill="#A98B55"></path><path d="M8.62947 25.0402C8.62947 24.4494 8.1503 23.9702 7.55944 23.9702H6.27511C5.68425 23.9702 5.20508 24.4494 5.20508 25.0402C5.20508 25.6311 5.68425 26.1103 6.27511 26.1103H7.55944C8.1503 26.1103 8.62947 25.6311 8.62947 25.0402Z" fill="#A98B55"></path><path d="M43.909 26.1103C44.4999 26.1103 44.9791 25.6311 44.9791 25.0402C44.9791 24.4494 44.4999 23.9702 43.909 23.9702H42.6247C42.0339 23.9702 41.5547 24.4494 41.5547 25.0402C41.5547 25.6311 42.0339 26.1103 42.6247 26.1103H43.909Z" fill="#A98B55"></path><path d="M25.0915 8.57771C25.6824 8.57771 26.1615 8.09854 26.1615 7.50768V6.22335C26.1615 5.63249 25.6824 5.15332 25.0915 5.15332C24.5007 5.15332 24.0215 5.63249 24.0215 6.22335V7.50768C24.0215 8.09854 24.5007 8.57771 25.0915 8.57771Z" fill="#A98B55"></path><path d="M25.0915 41.5024C24.5007 41.5024 24.0215 41.9816 24.0215 42.5725V43.8568C24.0215 44.4477 24.5007 44.9268 25.0915 44.9268C25.6824 44.9268 26.1615 44.4477 26.1615 43.8568V42.5725C26.1615 41.9816 25.6827 41.5024 25.0915 41.5024Z" fill="#A98B55"></path><path d="M25.0912 28.2409C26.8561 28.2409 28.2918 26.8052 28.2918 25.0403C28.2918 23.6508 27.4015 22.4658 26.1616 22.0245V11.3606C26.1616 10.7697 25.6824 10.2905 25.0915 10.2905C24.5007 10.2905 24.0215 10.7697 24.0215 11.3606V22.0245C22.7816 22.4658 21.8909 23.6508 21.8909 25.0403C21.8909 25.2859 21.9196 25.5249 21.9724 25.7548L15.4431 29.7723C14.9399 30.0819 14.7827 30.7412 15.0923 31.2444C15.2946 31.5729 15.6454 31.7537 16.0048 31.7537C16.1962 31.7537 16.3898 31.7024 16.5648 31.5947L23.1217 27.5602C23.6653 27.9859 24.349 28.2409 25.0912 28.2409ZM25.0912 26.1005C24.5065 26.1005 24.031 25.625 24.031 25.0403C24.031 24.4556 24.5065 23.9801 25.0912 23.9801C25.6759 23.9801 26.1514 24.4556 26.1514 25.0403C26.1514 25.625 25.6759 26.1005 25.0912 26.1005Z" fill="#A98B55"></path></svg>