<svg xmlns="http://www.w3.org/2000/svg" width="1746" height="172" viewBox="0 0 1746 172" fill="none"><path d="M842.915 103.827C846.699 109.26 846.449 122.266 838.943 135.586C853.034 127.81 863.93 120.905 867.206 114.124" stroke="#48A1DD" stroke-width="4.5" stroke-miterlimit="10" stroke-linecap="round" stroke-linejoin="round"></path><path d="M912.519 64.3675C910.515 55.4578 905.285 46.0168 897.791 41.4241C890.451 50.7932 879.253 54.1823 873.571 55.7213C876.233 58.4395 877.473 61.5269 877.169 65.46" stroke="#48A1DD" stroke-width="4.5" stroke-miterlimit="10" stroke-linecap="round" stroke-linejoin="round"></path><path d="M865.789 69.1119C862.223 65.969 855.481 55.1717 830.678 53.0969C836.081 59.3818 844.937 70.6662 844.059 79.1439" stroke="#48A1DD" stroke-width="4.5" stroke-miterlimit="10" stroke-linecap="round" stroke-linejoin="round"></path><path d="M901.782 109.485C901.811 108.05 894.966 100.479 888.268 101.745C882.984 110.358 872.847 127.144 871.166 129.848C888.716 128.393 901.658 115.452 901.782 109.485Z" stroke="#48A1DD" stroke-width="4.5" stroke-miterlimit="10" stroke-linecap="round" stroke-linejoin="round"></path><path d="M898.152 116.573C911.257 114.38 928.789 108.48 936.809 92.7467C940.821 84.2862 937.18 79.6756 934.656 77.6838C933.155 76.496 913.39 60.271 897.977 61.6602C863.661 64.7624 836.7 83.3768 832.398 86.4568C824.837 71.5547 804.858 64.2302 799.665 63.4154C806.612 76.4508 817.309 93.9206 817.487 95.8485C817.667 97.8414 812.354 112.127 805.42 127.085C818.266 122.725 828.553 113.334 834.318 99.7622C848.174 106.129 863.551 114.63 878.988 117.009" stroke="#48A1DD" stroke-width="4.5" stroke-miterlimit="10" stroke-linecap="round" stroke-linejoin="round"></path><path d="M909.425 87.0564L909.656 87.0372" stroke="#48A1DD" stroke-width="4.5" stroke-miterlimit="10" stroke-linecap="round" stroke-linejoin="round"></path><path d="M842.113 90.2341C853.114 86.0111 881.262 78.1754 898.4 82.319C900.174 78.7463 903.702 76.1522 907.964 75.7631C914.491 75.1747 920.252 79.9819 920.848 86.5062C924.205 86.3427 927.089 85.5971 929.565 84.6376" stroke="#48A1DD" stroke-width="4.5" stroke-miterlimit="10" stroke-linecap="round" stroke-linejoin="round"></path><rect x="38" y="84" width="705" height="6" fill="#012853"></rect><rect x="1003" y="84" width="707" height="6" fill="#012853"></rect></svg>