<svg xmlns="http://www.w3.org/2000/svg" width="265" height="245" viewBox="0 0 265 245" fill="none"><path d="M131.829 30.432C140.499 20.932 148.819 13.812 159.109 9.22197C187.309 -3.36803 219.759 3.80197 239.949 27.992C263.039 55.642 267.349 86.962 255.779 120.602C248.849 140.742 236.639 157.772 222.449 173.392C197.809 200.482 168.679 221.892 137.189 240.302C133.849 242.252 130.969 242.302 127.729 240.402C92.4788 219.782 60.2988 195.432 34.1188 163.732C33.2588 162.692 32.4388 161.612 31.6988 160.492C30.0888 158.072 30.3088 155.602 32.4688 153.812C34.6188 152.042 37.0688 152.212 39.1688 154.242C39.8188 154.862 40.3988 155.552 40.9688 156.252C61.9288 182.402 87.8088 202.902 115.609 221.172C121.039 224.742 126.659 228.022 132.199 231.452C151.399 220.402 169.089 208.042 185.749 194.212C203.499 179.472 219.709 163.252 232.579 143.962C240.899 131.492 247.609 118.212 250.189 103.332C255.289 73.962 248.189 48.122 225.629 27.942C201.669 6.51197 167.019 8.36197 144.609 31.532C141.959 34.272 139.679 37.392 137.179 40.282C133.609 44.392 130.919 44.222 127.249 40.112C123.059 35.422 119.119 30.342 114.269 26.442C87.9888 5.32197 52.1388 9.47198 30.7588 36.282C13.0588 58.472 8.86876 83.612 16.1888 110.842C16.6588 112.582 17.2988 114.272 17.7188 116.022C18.3888 118.802 17.4288 120.932 14.7788 122.092C12.2888 123.182 9.43876 122.012 8.41876 118.882C6.73876 113.762 5.09876 108.542 4.30876 103.242C-0.251238 72.632 6.87876 45.442 29.2588 23.322C56.8688 -3.97803 98.6588 -3.68803 126.299 23.682C128.199 25.562 129.719 27.832 131.829 30.432Z" fill="#004A92" stroke="#004A92" stroke-width="6" stroke-miterlimit="10"></path><path d="M97.299 83.3621C94.089 92.2421 91.269 99.9821 88.489 107.732C85.149 117.052 81.879 126.402 78.499 135.702C76.229 141.952 75.679 142.402 69.309 142.412C49.719 142.462 30.129 142.432 10.529 142.432C10.079 142.432 9.62895 142.442 9.17895 142.412C4.96895 142.122 3.11895 140.682 3.05895 137.662C2.99895 134.632 4.95895 132.912 8.91895 132.652C10.489 132.552 12.069 132.622 13.649 132.622C29.639 132.622 45.629 132.622 61.619 132.612C63.849 132.612 66.089 132.612 68.709 132.612C70.329 128.442 71.939 124.522 73.369 120.542C79.289 104.012 85.099 87.4521 91.059 70.9521C92.219 67.7521 92.359 63.3221 97.249 63.2121C102.119 63.1021 102.509 67.3021 103.709 70.6121C114.559 100.422 125.399 130.242 136.259 160.052C136.779 161.472 137.479 162.832 138.449 165.002C139.909 163.122 141.059 161.882 141.949 160.472C146.759 152.862 151.639 145.292 156.209 137.532C158.279 134.022 160.849 132.462 164.959 132.552C174.859 132.752 184.779 132.622 194.679 132.642C195.799 132.642 196.969 132.592 198.039 132.862C200.499 133.472 202.289 135.232 201.779 137.672C201.439 139.312 199.829 141.112 198.289 141.972C196.869 142.772 194.799 142.552 193.019 142.562C185.589 142.572 178.149 142.682 170.729 142.382C166.669 142.222 164.149 143.542 162.029 147.122C156.179 156.992 149.949 166.642 143.859 176.372C143.019 177.712 142.309 179.152 141.269 180.312C138.579 183.312 134.939 182.962 132.899 179.442C131.899 177.712 131.339 175.712 130.649 173.812C120.509 145.892 110.389 117.972 100.239 90.0621C99.569 88.1821 98.659 86.4121 97.299 83.3621Z" fill="#004A92" stroke="#004A92" stroke-width="6" stroke-miterlimit="10"></path></svg>