<svg xmlns="http://www.w3.org/2000/svg" width="254" height="264" viewBox="0 0 254 264" fill="none"><path d="M134.697 136.006C141.156 120.384 153.758 119.834 162.106 123.288L162.185 123.367C172.109 127.449 182.742 129.49 193.375 129.49C196.84 129.49 200.306 129.255 203.693 128.862C209.521 128.077 215.271 129.569 219.918 132.709" stroke="#004A92" stroke-width="12" stroke-miterlimit="10" stroke-linecap="round" stroke-linejoin="round"></path><path d="M148.917 164.608C149.876 150.116 138.866 137.592 124.326 136.636C109.786 135.68 97.2214 146.654 96.2625 161.147C95.3037 175.64 106.313 188.164 120.854 189.12C135.394 190.075 147.958 179.101 148.917 164.608Z" stroke="#004A92" stroke-width="12" stroke-miterlimit="10" stroke-linecap="round" stroke-linejoin="round"></path><path d="M80.666 210.744C84.5253 207.29 89.7236 205.17 95.3945 205.17C98.86 205.17 102.326 205.877 105.397 207.604C110.517 210.352 116.345 211.843 122.567 211.843C128.79 211.843 134.618 210.273 139.737 207.604C142.809 205.955 146.275 205.17 149.74 205.17C156.199 205.17 162.027 207.918 166.044 212.393" stroke="#004A92" stroke-width="12" stroke-miterlimit="10" stroke-linecap="round" stroke-linejoin="round"></path><path d="M174.708 257.299V237.829" stroke="#004A92" stroke-width="12" stroke-miterlimit="10" stroke-linecap="round" stroke-linejoin="round"></path><path d="M69.7183 257.299V237.201" stroke="#004A92" stroke-width="12" stroke-miterlimit="10" stroke-linecap="round" stroke-linejoin="round"></path><path d="M95.3164 256.828V239.321" stroke="#004A92" stroke-width="12" stroke-miterlimit="10" stroke-linecap="round" stroke-linejoin="round"></path><path d="M149.897 256.828V239.321" stroke="#004A92" stroke-width="12" stroke-miterlimit="10" stroke-linecap="round" stroke-linejoin="round"></path><path d="M99.8841 72.8874C118.415 72.8874 133.437 57.9141 133.437 39.4437C133.437 20.9733 118.415 6 99.8841 6C81.3535 6 66.3315 20.9733 66.3315 39.4437C66.3315 57.9141 81.3535 72.8874 99.8841 72.8874Z" stroke="#004A92" stroke-width="12" stroke-miterlimit="10" stroke-linecap="round" stroke-linejoin="round"></path><path d="M191.721 106.253C207.25 106.253 219.839 93.7047 219.839 78.226C219.839 62.7472 207.25 50.1992 191.721 50.1992C176.191 50.1992 163.603 62.7472 163.603 78.226C163.603 93.7047 176.191 106.253 191.721 106.253Z" stroke="#004A92" stroke-width="12" stroke-miterlimit="10" stroke-linecap="round" stroke-linejoin="round"></path><path d="M132.098 87.5684C132.098 87.5684 115.873 96.047 103.271 96.6751C90.669 97.3031 77.2007 92.2002 72.7113 90.7086C57.9041 85.7627 40.3402 92.8283 33.4091 106.724L7.654 158.931C6.55133 161.286 6 163.798 6 166.232C6 168.901 6.6301 171.492 7.81152 173.768C8.44162 174.946 9.15047 176.045 10.0169 177.066L10.0956 177.144" stroke="#004A92" stroke-width="12" stroke-miterlimit="10" stroke-linecap="round" stroke-linejoin="round"></path><path d="M60.897 126.586L41.9941 164.976" stroke="#004A92" stroke-width="12" stroke-miterlimit="10" stroke-linecap="round" stroke-linejoin="round"></path><path d="M41.9938 164.976L72.7897 210.745L73.7349 212.158C78.9332 219.773 76.8853 230.136 69.1667 235.317C67.9853 236.102 66.6463 236.73 65.3861 237.201C63.6533 237.829 61.7631 238.143 59.9515 238.143C54.517 238.143 49.2399 235.553 46.0107 230.764L10.0165 177.144L9.93775 177.066L7.73242 173.768" stroke="#004A92" stroke-width="12" stroke-miterlimit="10" stroke-linecap="round" stroke-linejoin="round"></path><path d="M240.159 205.563L241.105 205.013C244.964 202.266 247.248 197.791 247.248 193.159C247.248 191.432 246.933 189.548 246.224 187.821L234.095 157.517" stroke="#004A92" stroke-width="12" stroke-miterlimit="10" stroke-linecap="round" stroke-linejoin="round"></path><path d="M214.286 187.136L205.386 164.84" stroke="#004A92" stroke-width="12" stroke-miterlimit="10" stroke-linecap="round" stroke-linejoin="round"></path><path d="M214.286 187.136L174.905 211.159C174.353 211.473 173.881 211.787 173.487 212.179C167.816 216.654 166.241 224.74 170.1 231.021C172.227 234.554 175.614 236.752 179.315 237.537C180.339 237.772 181.363 237.929 182.466 237.929C185.065 237.929 187.664 237.223 190.027 235.81L239.647 205.428L240.592 204.878" stroke="#004A92" stroke-width="12" stroke-miterlimit="10" stroke-linecap="round" stroke-linejoin="round"></path><path d="M221.808 151.786L219.996 149.353C215.349 143.072 216.609 134.279 222.91 129.569L224.564 128.313C234.252 122.503 252.761 147.626 243.231 153.356L241.577 154.613C235.355 159.401 226.455 158.067 221.808 151.786Z" stroke="#004A92" stroke-width="12" stroke-miterlimit="10" stroke-linecap="round" stroke-linejoin="round"></path></svg>