<svg xmlns="http://www.w3.org/2000/svg" width="56" height="56" viewBox="0 0 56 56" fill="none"><path d="M43.2334 33.9292L43.233 33.9298C43.0567 34.2799 39.1788 41.75 28 41.75C16.8212 41.75 12.9433 34.2799 12.767 33.9298L12.7666 33.9292C12.2881 32.972 12.6762 31.8082 13.6333 31.3297C14.585 30.8536 15.7463 31.234 16.2271 32.1855C16.3526 32.4256 19.2938 37.875 28 37.875C36.7355 37.875 39.6675 32.3876 39.7746 32.1829C39.7747 32.1827 39.7748 32.1825 39.7749 32.1823L39.9964 32.2981C40.4234 31.4723 41.437 31.1393 42.2633 31.5646L43.2334 33.9292ZM43.2334 33.9292C43.7098 32.9762 43.3239 31.8239 42.3769 31.3419L43.2334 33.9292ZM0.75 28C0.75 43.0258 12.9742 55.25 28 55.25C43.0258 55.25 55.25 43.0258 55.25 28C55.25 12.9742 43.0258 0.75 28 0.75C12.9742 0.75 0.75 12.9742 0.75 28ZM4.625 28C4.625 15.1111 15.1111 4.625 28 4.625C40.8889 4.625 51.375 15.1111 51.375 28C51.375 40.8889 40.8889 51.375 28 51.375C15.1111 51.375 4.625 40.8889 4.625 28ZM32.8125 21.25C32.8125 23.2488 34.4381 24.875 36.4375 24.875C38.4369 24.875 40.0625 23.2488 40.0625 21.25C40.0625 19.2512 38.4369 17.625 36.4375 17.625C34.4381 17.625 32.8125 19.2512 32.8125 21.25ZM15.9375 21.25C15.9375 23.2488 17.5631 24.875 19.5625 24.875C21.5619 24.875 23.1875 23.2488 23.1875 21.25C23.1875 19.2512 21.5619 17.625 19.5625 17.625C17.5631 17.625 15.9375 19.2512 15.9375 21.25Z" fill="#004A93" stroke="#004A93" stroke-width="0.5"></path></svg>