<svg width="42" height="44" viewBox="0 0 42 44" fill="none" xmlns="http://www.w3.org/2000/svg">
<path d="M38.2822 18.3463L36.9212 16.9851C37.7378 16.1182 38.6979 15.5313 38.6892 14.1976C38.6979 12.8628 37.7362 12.2755 36.9212 11.4099L38.6514 9.67942C38.926 9.40482 38.926 8.95955 38.6514 8.68488L34.3158 4.34851C34.0412 4.07398 33.5961 4.07398 33.3214 4.34851L31.5912 6.07902L30.54 5.02759C29.5828 4.07032 28.0254 4.07039 27.0682 5.02759L26.0169 6.07902L24.656 4.7179C23.6989 3.76077 22.1415 3.76063 21.1842 4.7179L19.9455 5.95687C19.4832 6.41916 19.2286 7.03587 19.2287 7.69322C19.2288 8.35044 19.4834 8.96694 19.9455 9.42922L24.713 14.1975L13.1959 25.7165L8.42842 20.9482C7.96621 20.486 7.34981 20.2314 6.69271 20.2313C6.03554 20.2313 5.41886 20.4859 4.95665 20.9482L3.71789 22.1871C2.7607 23.1444 2.7607 24.7022 3.71789 25.6595L5.07885 27.0207L4.02759 28.0721C3.07041 29.0294 3.07041 30.5871 4.02759 31.5445L5.07885 32.5959L3.3487 34.3263C3.07653 34.5883 3.07625 35.0588 3.3487 35.3208L7.68434 39.6572C7.81617 39.789 7.99503 39.8632 8.18149 39.8632C8.36795 39.8632 8.54682 39.789 8.67864 39.6572L10.4088 37.9267C11.2756 38.7435 11.8626 39.7037 13.1961 39.695C14.5305 39.7035 15.1178 38.7417 15.9831 37.9267L17.344 39.2879C18.2542 40.2373 19.9056 40.2374 20.8158 39.2879L22.0546 38.0489C23.0117 37.0916 23.0117 35.5339 22.0546 34.5766L17.2871 29.8083L28.8041 18.2893L33.5715 23.0575C34.0337 23.5197 34.6502 23.7743 35.3074 23.7743C35.9647 23.7743 36.5811 23.5197 37.0433 23.0575L38.282 21.8186C39.2393 20.8614 39.2393 19.3037 38.2822 18.3463ZM33.8186 5.84028L37.1599 9.18212L35.9268 10.4154L32.5855 7.07356L33.8186 5.84028ZM28.0626 6.02213C28.4498 5.61828 29.1585 5.61786 29.5456 6.02213L36.9782 13.4558C37.1748 13.6525 37.2831 13.9159 37.283 14.1975C37.283 14.4791 37.1748 14.7426 36.9781 14.9392L35.9269 15.9906L27.0113 7.07349L28.0626 6.02213ZM8.18149 38.1655L4.84015 34.8237L6.07322 33.5905L9.41449 36.9323L8.18149 38.1655ZM13.9375 37.9836C13.5505 38.3874 12.8413 38.3878 12.4544 37.9836L5.02197 30.55C4.82524 30.3533 4.7169 30.0898 4.7169 29.8083C4.7169 29.5268 4.82524 29.2634 5.0219 29.0666L6.07315 28.0152L14.9888 36.9322L13.9375 37.9836ZM21.0602 37.0544L19.8214 38.2934C19.6248 38.4901 19.3615 38.5984 19.0799 38.5984C18.7984 38.5985 18.535 38.4902 18.3383 38.2934L4.71226 24.665C4.30334 24.2561 4.30334 23.5906 4.71226 23.1816C5.12117 22.7726 5.95102 21.9427 5.95102 21.9427C6.14768 21.746 6.41105 21.6377 6.69264 21.6377C6.97422 21.6377 7.23753 21.746 7.43411 21.9427L21.0602 35.5711C21.4691 35.9801 21.4691 36.6455 21.0602 37.0544ZM16.2928 28.8138L14.1903 26.7109L25.7073 15.192L27.8098 17.2948L16.2928 28.8138ZM37.2878 20.8241L36.049 22.0631C35.8525 22.2597 35.5892 22.368 35.3075 22.368C35.0258 22.368 34.7625 22.2597 34.5659 22.063L20.9398 8.43468C20.5363 8.0482 20.5356 7.33797 20.9398 6.95134L22.1785 5.71237C22.5874 5.30346 23.2527 5.30339 23.6617 5.71237L37.2878 19.3407C37.6967 19.7497 37.6967 20.4152 37.2878 20.8241Z" fill="white"/>
</svg>
