<svg width="42" height="44" viewBox="0 0 42 44" fill="none" xmlns="http://www.w3.org/2000/svg">
<path d="M20.4064 8.91935C21.6451 7.56203 22.8339 6.54476 24.3041 5.88897C28.3331 4.09017 32.9694 5.11458 35.8541 8.57073C39.1531 12.5212 39.7689 16.9961 38.1158 21.8024C37.1257 24.6799 35.3812 27.1131 33.3538 29.3448C29.8333 33.2153 25.6714 36.2742 21.1722 38.9045C20.695 39.1831 20.2835 39.1903 19.8206 38.9188C14.7843 35.9727 10.1866 32.4937 6.4461 27.9646C6.32322 27.816 6.20607 27.6617 6.10034 27.5017C5.87031 27.1559 5.90174 26.803 6.21035 26.5473C6.51753 26.2944 6.86758 26.3187 7.16761 26.6087C7.26048 26.6973 7.34335 26.7959 7.42479 26.8959C10.4195 30.6321 14.1171 33.561 18.089 36.1713C18.8648 36.6814 19.6678 37.15 20.4593 37.6401C23.2025 36.0613 25.7299 34.2954 28.1102 32.3194C30.6463 30.2134 32.9623 27.896 34.8011 25.14C35.9898 23.3583 36.9485 21.4609 37.3171 19.3349C38.0458 15.1387 37.0314 11.4468 33.8081 8.56359C30.3848 5.50177 25.4342 5.76609 22.2324 9.07651C21.8537 9.46799 21.528 9.91376 21.1708 10.3267C20.6607 10.9139 20.2764 10.8896 19.7521 10.3024C19.1534 9.63229 18.5905 8.90649 17.8975 8.34927C14.1428 5.33175 9.0207 5.92468 5.96604 9.75517C3.43715 12.9256 2.8385 16.5174 3.88435 20.4079C3.9515 20.6565 4.04294 20.898 4.10294 21.148C4.19867 21.5452 4.06151 21.8495 3.68289 22.0153C3.32713 22.171 2.91994 22.0038 2.77421 21.5566C2.53418 20.8251 2.29986 20.0793 2.18699 19.3221C1.53548 14.9487 2.55418 11.0639 5.75172 7.9035C9.6965 4.00301 15.6673 4.04445 19.6163 7.95494C19.8878 8.22354 20.105 8.54787 20.4064 8.91935Z" fill="white" stroke="white" stroke-width="2" stroke-miterlimit="10"/>
<path d="M15.4726 16.4823C15.0139 17.751 14.611 18.8568 14.2138 19.9641C13.7366 21.2957 13.2694 22.6316 12.7865 23.9603C12.4622 24.8533 12.3836 24.9176 11.4735 24.919C8.67455 24.9262 5.87563 24.9219 3.07528 24.9219C3.01099 24.9219 2.94669 24.9233 2.8824 24.919C2.28089 24.8776 2.01658 24.6719 2.008 24.2404C1.99943 23.8075 2.27947 23.5617 2.84525 23.5246C3.06957 23.5103 3.29531 23.5203 3.52105 23.5203C5.80562 23.5203 8.0902 23.5203 10.3748 23.5189C10.6934 23.5189 11.0134 23.5189 11.3878 23.5189C11.6192 22.9231 11.8492 22.363 12.0536 21.7944C12.8994 19.4326 13.7295 17.0666 14.581 14.7092C14.7467 14.252 14.7667 13.619 15.4654 13.6033C16.1612 13.5876 16.2169 14.1877 16.3884 14.6606C17.9386 18.9197 19.4873 23.1802 21.039 27.4394C21.1133 27.6422 21.2133 27.8365 21.3519 28.1466C21.5605 27.878 21.7248 27.7008 21.8519 27.4994C22.5392 26.4121 23.2364 25.3305 23.8893 24.2218C24.1851 23.7203 24.5523 23.4974 25.1395 23.5103C26.5539 23.5389 27.9713 23.5203 29.3857 23.5231C29.5457 23.5231 29.7129 23.516 29.8658 23.5546C30.2173 23.6417 30.473 23.8932 30.4001 24.2418C30.3516 24.4761 30.1215 24.7333 29.9015 24.8562C29.6986 24.9705 29.4029 24.939 29.1486 24.9405C28.087 24.9419 27.024 24.9576 25.9639 24.9148C25.3838 24.8919 25.0237 25.0805 24.7209 25.592C23.885 27.0022 22.9949 28.3809 22.1248 29.7711C22.0048 29.9625 21.9034 30.1683 21.7548 30.334C21.3704 30.7626 20.8504 30.7126 20.5589 30.2097C20.416 29.9625 20.336 29.6768 20.2374 29.4053C18.7887 25.4162 17.3428 21.4272 15.8926 17.4395C15.7969 17.1709 15.6669 16.918 15.4726 16.4823Z" fill="white" stroke="white" stroke-width="2" stroke-miterlimit="10"/>
</svg>
