<svg xmlns="http://www.w3.org/2000/svg" xmlns:xlink="http://www.w3.org/1999/xlink" id="Capa_1" x="0px" y="0px" viewBox="0 0 208.8 185.3" xml:space="preserve"><g>			<line fill="none" stroke="#002853" stroke-width="8" stroke-linecap="round" stroke-linejoin="round" stroke-miterlimit="10" x1="42.9" y1="125.2" x2="42.9" y2="124.8"></line>	<path fill="none" stroke="#002853" stroke-width="8" stroke-linecap="round" stroke-linejoin="round" stroke-miterlimit="10" d="  M42.9,124.8v0.4c-0.6,0-1.2,0.1-1.8,0.1C20.6,125.2,4,108.6,4,88.1c0-20.5,16.6-37.1,37.1-37.1c4.8,0,9.4,0.9,13.6,2.6  c0-0.5,0-1.1,0-1.6c0-26.5,21.5-48,48-48c26.5,0,48,21.5,48,48c0,1.2,0,2.3-0.1,3.5c5.2-2.7,11-4.3,17.3-4.3  c20.5,0,37.1,16.6,37.1,37.1c0,20.5-16.6,37.1-37.1,37.1c-0.8,0-1.5,0-2.3-0.1v-0.5"></path>			<polyline fill="none" stroke="#002853" stroke-width="8" stroke-linecap="round" stroke-linejoin="round" stroke-miterlimit="10" points="  165.5,125.3 165.5,181.3 42.9,181.3 42.9,125.2  "></polyline>			<line fill="none" stroke="#002853" stroke-width="8" stroke-linecap="round" stroke-linejoin="round" stroke-miterlimit="10" x1="42.9" y1="125.2" x2="42.9" y2="124.8"></line>	<path fill="none" stroke="#002853" stroke-width="8" stroke-linecap="round" stroke-linejoin="round" stroke-miterlimit="10" d="  M62.4,77.7c-0.3-0.5-0.6-0.9-0.9-1.4c-4.3-7.2-6.4-15-6.7-22.8"></path>	<path fill="none" stroke="#002853" stroke-width="8" stroke-linecap="round" stroke-linejoin="round" stroke-miterlimit="10" d="  M135.3,54.9c0.1-1.7,0.3-14.3-9.9-23.2c-9-7.9-19.5-7.4-21.6-7.2"></path>			<line fill="none" stroke="#002853" stroke-width="8" stroke-linecap="round" stroke-linejoin="round" stroke-miterlimit="10" x1="43.6" y1="161.4" x2="164.8" y2="161.4"></line></g></svg>