<svg width="42" height="44" viewBox="0 0 42 44" fill="none" xmlns="http://www.w3.org/2000/svg">
<path d="M12.4794 40.0366C13.264 40.041 13.8332 39.7551 14.3125 39.3673C14.5471 39.1774 14.7614 38.9623 14.9656 38.7508C15.0082 38.7066 15.0503 38.6628 15.0921 38.6192C15.1755 38.5322 15.2579 38.4464 15.3413 38.3617L16.4925 39.5131C17.5654 40.6289 19.4877 40.629 20.5606 39.5131L21.8314 38.2422L21.5838 37.9947L21.8314 38.2422C22.9517 37.1215 22.9517 35.299 21.8314 34.1784L21.5956 34.4141L21.8314 34.1784L17.1789 29.5252L28.5209 18.1812L33.1732 22.8344L33.1732 22.8344C33.7143 23.3755 34.4371 23.6736 35.2049 23.6736C35.9726 23.6736 36.6954 23.3755 37.2364 22.8344L38.5096 21.561C39.6301 20.4406 39.6301 18.618 38.5098 17.4973L38.2654 17.7416L38.5098 17.4973L37.356 16.3434C37.4407 16.2599 37.5265 16.1776 37.6134 16.0942C37.6573 16.0521 37.7015 16.0097 37.7459 15.9667C37.9575 15.7623 38.1726 15.5479 38.3623 15.3133C38.7498 14.834 39.0351 14.265 39.0306 13.4809C39.0351 12.6961 38.7493 12.1267 38.3616 11.6474C38.1718 11.4127 37.9567 11.1983 37.7452 10.9941C37.7011 10.9515 37.6573 10.9095 37.6138 10.8677C37.5267 10.7842 37.4408 10.7017 37.356 10.6182L38.8893 9.08465C39.3081 8.66573 39.3081 7.98654 38.8893 7.56758L38.8893 7.56755L34.4332 3.11072L34.4331 3.11066C34.0142 2.69186 33.3353 2.6919 32.9163 3.11063L32.9162 3.11072L31.3854 4.64176L30.5525 3.80867C29.4321 2.68807 27.6098 2.6882 26.4893 3.80864L26.4892 3.80867L25.6563 4.64175L24.5051 3.49038L24.5051 3.49035C23.3846 2.36997 21.5625 2.3698 20.4418 3.49035L20.4418 3.49038L19.1687 4.76375C19.1687 4.76376 19.1687 4.76376 19.1687 4.76377C18.6276 5.30495 18.3294 6.02799 18.3295 6.79585C18.3296 7.56357 18.6277 8.28634 19.1687 8.82748L19.1687 8.8275L23.8212 13.4808L12.4791 24.8247L7.82671 20.1715L7.82669 20.1715C7.28563 19.6304 6.56294 19.3323 5.79532 19.3322C5.0276 19.3321 4.30458 19.6303 3.76349 20.1715L2.49033 21.4448L2.73733 21.6918L2.49032 21.4448C1.36989 22.5654 1.36989 24.388 2.49032 25.5086L3.64165 26.6602L2.80864 27.4933L3.05567 27.7403L2.80863 27.4933C1.68821 28.6139 1.68821 30.4365 2.80863 31.5571L3.64165 32.3902L2.11298 33.9191C1.69398 34.3255 1.6933 35.0337 2.11302 35.4405L6.56695 39.8951C6.76806 40.0963 7.04092 40.2094 7.32542 40.2094C7.60992 40.2094 7.88278 40.0963 8.08389 39.8951L9.61698 38.3617C9.7004 38.4464 9.78269 38.5322 9.86602 38.619C9.90817 38.6629 9.95058 38.7071 9.99355 38.7516C10.198 38.9633 10.4123 39.1784 10.647 39.3681C11.1263 39.7557 11.6953 40.0411 12.4794 40.0366ZM12.4794 40.0366C12.4786 40.0366 12.4779 40.0365 12.4771 40.0365L12.4793 39.6866L12.4816 40.0365C12.4809 40.0365 12.4801 40.0366 12.4794 40.0366ZM28.0062 5.32578L28.0063 5.32583L28.0114 5.32055C28.2718 5.04896 28.7704 5.04897 29.0302 5.32037L29.0302 5.32043L29.0355 5.32577L36.6745 12.966C36.8101 13.1016 36.8854 13.2829 36.8853 13.4807V13.4808C36.8853 13.6788 36.81 13.8601 36.6745 13.9955L36.6744 13.9956L35.8415 14.8287L27.1732 6.15888L28.0062 5.32578ZM12.9938 37.6802L12.9938 37.6801L12.9887 37.6854C12.7285 37.9568 12.2295 37.9569 11.9698 37.6856L11.9698 37.6855L11.9645 37.6802L4.32564 30.04C4.18994 29.9043 4.11459 29.723 4.11459 29.5252C4.11459 29.3274 4.18994 29.1461 4.32557 29.0104C4.32558 29.0103 4.3256 29.0103 4.32561 29.0103L5.15852 28.1773L13.8269 36.847L12.9938 37.6802ZM20.3144 36.7251L20.5561 36.9669L20.3143 36.7251L19.0412 37.9985L19.0411 37.9986C18.9057 38.1341 18.7244 38.2094 18.5266 38.2094H18.5265C18.3287 38.2095 18.1475 38.1342 18.0119 37.9986L18.0119 37.9985L4.00733 23.9916L4.00731 23.9916C3.72373 23.708 3.7237 23.2456 4.00733 22.9619L4.80151 22.1676L5.14066 21.8285L5.24303 21.7261L5.27081 21.6983L5.27804 21.6911L5.27988 21.6892L5.28034 21.6888L5.28046 21.6887L5.28049 21.6886L5.03791 21.446L5.04207 21.4502L5.28049 21.6886L5.28051 21.6886C5.41606 21.553 5.59732 21.4777 5.79521 21.4777C5.99309 21.4777 6.17426 21.553 6.30973 21.6886L6.30977 21.6886L20.3143 35.6955C20.598 35.9792 20.5979 36.4415 20.3144 36.7251ZM36.9928 20.044L36.9927 20.044L35.7196 21.3174C35.7196 21.3174 35.7196 21.3174 35.7196 21.3174C35.5841 21.4528 35.4029 21.5282 35.2049 21.5282C35.0069 21.5282 34.8257 21.4528 34.6902 21.3173L20.6857 7.3104L20.6857 7.31034L20.6802 7.30511C20.4091 7.04545 20.409 6.54554 20.6801 6.28625L20.6801 6.28632L20.6857 6.28079L21.9587 5.00742C21.9587 5.00741 21.9588 5.00741 21.9588 5.0074C22.2424 4.72382 22.7045 4.72379 22.9881 5.00742L36.9927 19.0143C37.2764 19.298 37.2763 19.7604 36.9928 20.044ZM32.9023 6.15894L33.6747 5.38642L36.6138 8.32606L35.8414 9.09858L32.9023 6.15894ZM7.32542 37.6195L4.38621 34.6799L5.15858 33.9074L8.09774 36.8471L7.32542 37.6195ZM21.333 22.3361L15.662 28.0081L13.996 26.3418L25.3381 14.9979L27.004 16.6641L21.333 22.3361Z" fill="white" stroke="white" stroke-width="0.7"/>
</svg>
