<svg width="42" height="44" viewBox="0 0 42 44" fill="none" xmlns="http://www.w3.org/2000/svg">
<path d="M22.4854 22.6937C23.5134 20.2069 25.5192 20.1195 26.8481 20.6693L26.8607 20.6818C28.4403 21.3316 30.1328 21.6565 31.8252 21.6565C32.3769 21.6565 32.9285 21.619 33.4676 21.5565C34.3953 21.4316 35.3105 21.669 36.0501 22.1688" stroke="white" stroke-width="3" stroke-miterlimit="10" stroke-linecap="round" stroke-linejoin="round"/>
<path d="M24.7483 27.2465C24.9009 24.9396 23.1485 22.9462 20.8341 22.794C18.5197 22.6419 16.5198 24.3887 16.3672 26.6956C16.2145 29.0025 17.967 30.9959 20.2814 31.148C22.5958 31.3001 24.5957 29.5534 24.7483 27.2465Z" stroke="white" stroke-width="3" stroke-miterlimit="10" stroke-linecap="round" stroke-linejoin="round"/>
<path d="M13.8848 34.5899C14.4991 34.04 15.3265 33.7026 16.2291 33.7026C16.7808 33.7026 17.3324 33.8151 17.8213 34.09C18.6362 34.5274 19.5639 34.7648 20.5543 34.7648C21.5447 34.7648 22.4725 34.5149 23.2873 34.09C23.7763 33.8276 24.3279 33.7026 24.8795 33.7026C25.9075 33.7026 26.8352 34.14 27.4746 34.8523" stroke="white" stroke-width="3" stroke-miterlimit="10" stroke-linecap="round" stroke-linejoin="round"/>
<path d="M28.854 41.9999V38.9009" stroke="white" stroke-width="3" stroke-miterlimit="10" stroke-linecap="round" stroke-linejoin="round"/>
<path d="M12.1421 41.9998V38.8008" stroke="white" stroke-width="3" stroke-miterlimit="10" stroke-linecap="round" stroke-linejoin="round"/>
<path d="M16.2168 41.9248V39.1382" stroke="white" stroke-width="3" stroke-miterlimit="10" stroke-linecap="round" stroke-linejoin="round"/>
<path d="M24.9048 41.9248V39.1382" stroke="white" stroke-width="3" stroke-miterlimit="10" stroke-linecap="round" stroke-linejoin="round"/>
<path d="M16.9437 12.6467C19.8933 12.6467 22.2844 10.2633 22.2844 7.32334C22.2844 4.38334 19.8933 2 16.9437 2C13.9941 2 11.603 4.38334 11.603 7.32334C11.603 10.2633 13.9941 12.6467 16.9437 12.6467Z" stroke="white" stroke-width="3" stroke-miterlimit="10" stroke-linecap="round" stroke-linejoin="round"/>
<path d="M31.5621 17.9579C34.0339 17.9579 36.0377 15.9605 36.0377 13.4967C36.0377 11.0329 34.0339 9.03564 31.5621 9.03564C29.0902 9.03564 27.0864 11.0329 27.0864 13.4967C27.0864 15.9605 29.0902 17.9579 31.5621 17.9579Z" stroke="white" stroke-width="3" stroke-miterlimit="10" stroke-linecap="round" stroke-linejoin="round"/>
<path d="M22.0714 14.9834C22.0714 14.9834 19.4888 16.333 17.4829 16.4329C15.477 16.5329 13.3332 15.7207 12.6186 15.4832C10.2617 14.696 7.46603 15.8206 6.3628 18.0324L2.26327 26.3423C2.08776 26.7172 2 27.1171 2 27.5045C2 27.9293 2.10029 28.3417 2.28835 28.7041C2.38864 28.8915 2.50147 29.0665 2.63938 29.2289L2.65191 29.2414" stroke="white" stroke-width="3" stroke-miterlimit="10" stroke-linecap="round" stroke-linejoin="round"/>
<path d="M10.7378 21.1943L7.729 27.3049" stroke="white" stroke-width="3" stroke-miterlimit="10" stroke-linecap="round" stroke-linejoin="round"/>
<path d="M7.72937 27.3047L12.6312 34.5899L12.7817 34.8148C13.6091 36.027 13.2832 37.6764 12.0546 38.5012C11.8665 38.6261 11.6534 38.7261 11.4528 38.8011C11.177 38.9011 10.8761 38.951 10.5878 38.951C9.72272 38.951 8.88276 38.5387 8.36875 37.7764L2.63945 29.2416L2.62691 29.2291L2.27588 28.7043" stroke="white" stroke-width="3" stroke-miterlimit="10" stroke-linecap="round" stroke-linejoin="round"/>
<path d="M39.272 33.7653L39.4224 33.6778C40.0367 33.2405 40.4003 32.5282 40.4003 31.7909C40.4003 31.516 40.3501 31.2161 40.2373 30.9412L38.3066 26.1177" stroke="white" stroke-width="3" stroke-miterlimit="10" stroke-linecap="round" stroke-linejoin="round"/>
<path d="M35.1535 30.8321L33.7368 27.2832" stroke="white" stroke-width="3" stroke-miterlimit="10" stroke-linecap="round" stroke-linejoin="round"/>
<path d="M35.1533 30.832L28.8849 34.6558C28.7971 34.7058 28.7219 34.7558 28.6592 34.8183C27.7566 35.5306 27.5058 36.8177 28.1201 37.8173C28.4586 38.3797 28.9977 38.7296 29.5869 38.8545C29.7499 38.892 29.9129 38.917 30.0884 38.917C30.5021 38.917 30.9158 38.8045 31.2919 38.5796L39.1901 33.7436L39.3405 33.6561" stroke="white" stroke-width="3" stroke-miterlimit="10" stroke-linecap="round" stroke-linejoin="round"/>
<path d="M36.3507 25.2052L36.0624 24.8178C35.3227 23.8181 35.5233 22.4186 36.5262 21.6688L36.7895 21.4688C38.3315 20.5441 41.2777 24.5429 39.7607 25.4551L39.4974 25.655C38.507 26.4173 37.0904 26.2049 36.3507 25.2052Z" stroke="white" stroke-width="3" stroke-miterlimit="10" stroke-linecap="round" stroke-linejoin="round"/>
</svg>
