<svg xmlns="http://www.w3.org/2000/svg" xmlns:xlink="http://www.w3.org/1999/xlink" id="Capa_1" x="0px" y="0px" viewBox="0 0 164.8 193.7" xml:space="preserve"><g>	<path fill="none" stroke="#002853" stroke-width="8" stroke-linecap="round" stroke-linejoin="round" stroke-miterlimit="10" d="  M100.7,127c11.2,16.7,20.8,30.1,23.7,34.7c6.6,10.6,10.7,19,3,23.8l-1.7,1.1c-7.6,4.8-13.4-2.6-20-13.2  c-2.1-3.4-8.1-13.6-15.1-25.7"></path>	<path fill="none" stroke="#002853" stroke-width="8" stroke-linecap="round" stroke-linejoin="round" stroke-miterlimit="10" d="  M66.8,109.7c-6.8-11.8-15-25.6-15-25.6l-10.3-1.9c-7.8-1.5-15.6-3-19.7-10l-15-25.7C0.1,35,6.4,20.5,17.2,13.7l0,0  C28.1,6.9,44.6,8.3,52,19.4l16.5,24.8c4.5,6.8,1.8,13.7-0.4,21.4l-2.8,10.1c0,0,6.6,9.3,11.2,16.1"></path>	<g>		<path fill="none" stroke="#002853" stroke-width="8" stroke-linecap="round" stroke-linejoin="round" stroke-miterlimit="10" d="   M160.8,26l-30.3,59.8l-22.1,5c0,0-36.7,73.4-42.4,83.9c-5.7,10.5-10.9,18-18.8,13.6l-1.8-1c-7.9-4.3-4.5-12.7,1.3-23.2   c5.7-10.5,47.7-81.1,47.7-81.1l-7.7-21.3L120.4,4"></path>					<line fill="none" stroke="#002853" stroke-width="8" stroke-linecap="round" stroke-linejoin="round" stroke-miterlimit="10" x1="147.5" y1="18.9" x2="122.3" y2="65"></line>					<line fill="none" stroke="#002853" stroke-width="8" stroke-linecap="round" stroke-linejoin="round" stroke-miterlimit="10" x1="134.3" y1="11.7" x2="109.1" y2="57.8"></line>	</g></g></svg>