<svg xmlns="http://www.w3.org/2000/svg" id="Layer_1" data-name="Layer 1" viewBox="0 0 305.03 113.41"><defs><style>.cls-1{fill:#fff;}.cls-2{fill:#fbea31;}.cls-3{fill:#ffd129;}.cls-4{fill:#c00020;}.cls-5{fill:#151011;}.cls-6{fill:#ffe174;}.cls-7{fill:#1d3795;}</style></defs><path class="cls-1" d="M434.83,602.41a8,8,0,0,0-5.77-3.28c.06-5.47.2-16.91.2-16.91a4.84,4.84,0,0,0-2.58-4.38c-1.28-.66-1.28-.66-32.41-.51H347.19c-5.35.34-11.78-1.87-18-4-9.88-3.41-20.89-7.19-29.36-.79-8.41-6.4-19.45-2.62-29.35.78-6.24,2.15-12.7,4.36-18.05,4h-.29l-25.73,0a9.71,9.71,0,0,0-.55-.92c-2.39-3.55-7-5-15.79-5H175.82c-10.44,0-19,9.7-19.71,18.37,0,.38-.05.76-.05,1.12,0,5.69,3.57,11.76,9.54,12.78l4.91.84c0,.63,0-.73,0-.12,0,.88,0,3.71,0,4.55-5.36,15.7-13.71,38.12-13.71,38.12h30.56c.53,0,1,0,1.55,0a36.93,36.93,0,0,0,6.58,3.41c11.27,4.5,23.85,3.37,30.78.67C244.49,671.14,276,675.5,299.8,675.5c34.47,0,59.43-7.7,76.19-23.49,6.57,2.43,19.9,5,31.56-1.3a34.28,34.28,0,0,0,4.77-3.16h1A13.59,13.59,0,0,0,426,638.09l3.42-10a13.33,13.33,0,0,0,.77-4.36,9.16,9.16,0,0,0-1.42-5.09,7.1,7.1,0,0,0-.78-.95h5l2.49-7.29a11.31,11.31,0,0,0,.64-3.6,7.63,7.63,0,0,0-1.31-4.4M173,597.46a4.26,4.26,0,0,1-.49-1.37,5.58,5.58,0,0,1,1.29-.15V599l-.8-1.57" transform="translate(-152.15 -565.34)"></path><path class="cls-1" d="M299.8,678.74c-23.47,0-55.15-4.19-74.45-23.91A46.08,46.08,0,0,1,212,656.69a48.18,48.18,0,0,1-17.7-3.27,41.43,41.43,0,0,1-6.28-3.16H152.15l1.63-4.37c.08-.22,8.2-22,13.49-37.5,0-.34,0-.76,0-1.19l-2.21-.38c-7.94-1.35-12.23-9.24-12.23-16,0-.44,0-.89.05-1.34.82-10.14,10.44-21.38,22.94-21.38h34.25c9.67,0,15,1.72,18.12,5.92l23.95,0,.57,0c.24,0,.54,0,.86,0,4.58,0,10.32-2,15.86-3.88,6-2.08,12.88-4.43,19.43-4.43a21.33,21.33,0,0,1,11,2.82,21.37,21.37,0,0,1,11-2.82c6.56,0,13.39,2.35,19.42,4.44s12,4.14,16.74,3.84l.5,0h46.79c10-.05,16.79-.08,21.45-.08,10,0,10.81.1,12.44,1a8,8,0,0,1,4.34,7.3l-.17,14.36a10.61,10.61,0,0,1,5.18,4,10.92,10.92,0,0,1,1.87,6.23,14.31,14.31,0,0,1-.81,4.64l-3.24,9.48h-2.16a13.74,13.74,0,0,1,.29,2.81,16.79,16.79,0,0,1-.94,5.41l-3.42,10a16.86,16.86,0,0,1-15.68,11.65,37.24,37.24,0,0,1-4.32,2.76,37.85,37.85,0,0,1-18.1,4.33,49,49,0,0,1-14.23-2.18c-17.38,15.5-42.58,23-77,23m-72.63-31.49,1.5,1.65c17.53,19.31,48.36,23.36,71.13,23.36,33.62,0,57.81-7.39,74-22.61l1.46-1.37,1.88.69A41.48,41.48,0,0,0,391,651.39a31.36,31.36,0,0,0,15-3.54A30.3,30.3,0,0,0,410.3,645l.89-.71h2.13a10.36,10.36,0,0,0,9.64-7.26l3.43-10a10.24,10.24,0,0,0,.59-3.31,6,6,0,0,0-.88-3.3,6.7,6.7,0,0,0-.46-.55l-5-5.44h10.06l1.75-5.09a8.05,8.05,0,0,0,.46-2.55,4.44,4.44,0,0,0-.73-2.56,4.89,4.89,0,0,0-3.57-1.91l-2.82-.4.24-19.76a1.58,1.58,0,0,0-.83-1.46c-.86-.23-6.46-.23-9.47-.23-4.65,0-11.44,0-21.43.07H347.48c-.53,0-1,.06-1.43.06-5.66,0-11.89-2.15-17.92-4.23-5.82-2-11.83-4.08-17.31-4.08a14.48,14.48,0,0,0-9.05,2.81l-2,1.48-1.95-1.48a14.33,14.33,0,0,0-9-2.81c-5.47,0-11.5,2.07-17.32,4.08-6.53,2.24-13.37,4.56-19.32,4.18l-27.79,0-.9-1.75c-.11-.2-.22-.39-.35-.59-1.2-1.77-3.68-3.58-13.11-3.58H175.81c-8.58,0-15.9,8.28-16.47,15.39,0,.27,0,.57,0,.86,0,4.14,2.56,8.85,6.84,9.58l3.57.62a3,3,0,0,1,.78-.1h3.19l.11.79-.06,3.59c0,1.18,0,2.87,0,3.48l0,.59-.19.55c-3.9,11.4-9.42,26.49-12.12,33.83l28.39,0,.84.54a34.1,34.1,0,0,0,6,3.12,41.6,41.6,0,0,0,15.28,2.8,37.94,37.94,0,0,0,13.11-2.14ZM171,600.5l-.8-1.57a7.24,7.24,0,0,1-.81-2.35l-.44-2.88,2.81-.74a8.71,8.71,0,0,1,2-.25l3.31-.09,0,6.4Z" transform="translate(-152.15 -565.34)"></path><path class="cls-2" d="M178.35,584.41l75.06.11c16,1,36-15.89,46.48-2.81,10.6-13.08,30.53,3.83,46.49,2.81H392c29.27-.14,29.54,0,29.54,0l-.23,18.57c-1.59,59.63-45.27,43.82-48.1,41.95-18.5,18.53-47.19,23-73.33,23-27.12,0-55.8-5.78-70.64-24.13-3.54,4.07-52.09,13.5-50.85-40.43Z" transform="translate(-152.15 -565.34)"></path><path class="cls-3" d="M299.9,578.79c-7.3-7-17.7-3.53-27.79-.17-6.32,2.1-12.86,4.27-18.57,3.91h-.13l-75-.1a2,2,0,0,0-2,2l0,19c-.66,28.08,12,38.92,22.72,43.07,11.76,4.55,24.69,2.47,29.76-.06,16.9,19.38,47.78,23.55,71,23.55,33.76,0,57.88-7.41,73.73-22.58,4.56,1.87,18.16,5.7,30.14-.53,12.37-6.43,19-21.14,19.56-43.74,0,0,.22-18.59.22-18.59a2,2,0,0,0-1.1-1.81c-.54-.27-.7-.36-30.44-.22H346.25c-5.7.36-12.22-1.81-18.52-3.91-10.07-3.36-20.45-6.8-27.83.17m1.55,4.18c5.68-7,14.64-4,25-.56,6.67,2.22,13.56,4.52,20.05,4.1H392c17.7-.08,24.72-.06,27.52,0,0,3.16-.2,16.59-.2,16.59-.56,20.85-6.35,34.36-17.19,40.16-12,6.4-26.32,1.1-27.81.15a2,2,0,0,0-2.51.26c-15,15-38.56,22.36-71.93,22.36-22.89,0-53.46-4.06-69.09-23.39a2,2,0,0,0-1.51-.72,2.08,2.08,0,0,0-1.55.66h0c-1.42,1.36-15.62,5.36-28.52-.31-12.52-5.52-18.86-17.86-18.86-36.74,0-.66,0-1.33,0-2,0,0,0-12.23,0-17.06l73,.09h-.13c6.49.42,13.4-1.88,20.09-4.1,10.39-3.46,19.37-6.45,25,.55a2,2,0,0,0,3.11,0" transform="translate(-152.15 -565.34)"></path><path class="cls-4" d="M299.9,578.79c-7.3-7-17.7-3.53-27.79-.17-6.32,2.1-12.86,4.27-18.57,3.91h-.13l-75-.1a2,2,0,0,0-2,2l0,19c-.66,28.08,12,38.92,22.72,43.07,11.76,4.55,24.69,2.47,29.76-.06,16.9,19.38,47.78,23.55,71,23.55,33.76,0,57.88-7.41,73.73-22.58,4.56,1.87,18.16,5.7,30.14-.53,12.37-6.43,19-21.14,19.56-43.74,0,0,.22-18.59.22-18.59a2,2,0,0,0-1.1-1.81c-.54-.27-.7-.36-30.44-.22H346.25c-5.7.36-12.22-1.81-18.52-3.91-10.07-3.36-20.45-6.8-27.83.17m1.55,4.18c5.68-7,14.64-4,25-.56,6.67,2.22,13.56,4.52,20.05,4.1H392c17.7-.08,24.72-.06,27.52,0,0,3.16-.2,16.59-.2,16.59-.56,20.85-6.35,34.36-17.19,40.16-12,6.4-26.32,1.1-27.81.15a2,2,0,0,0-2.51.26c-15,15-38.56,22.36-71.93,22.36-22.89,0-53.46-4.06-69.09-23.39a2,2,0,0,0-1.51-.72,2.08,2.08,0,0,0-1.55.66h0c-1.42,1.36-15.62,5.36-28.52-.31-12.52-5.52-18.86-17.86-18.86-36.74,0-.66,0-1.33,0-2,0,0,0-12.23,0-17.06l73,.09h-.13c6.49.42,13.4-1.88,20.09-4.1,10.39-3.46,19.37-6.45,25,.55a2,2,0,0,0,3.11,0" transform="translate(-152.15 -565.34)"></path><path class="cls-1" d="M443.63,608.66a6,6,0,1,1,6.05,6.21,6,6,0,0,1-6.05-6.21m6.05,7.44a7.42,7.42,0,1,0-7.54-7.44,7.41,7.41,0,0,0,7.54,7.44m-1.57-6.85h1.49l2.26,3.71h1.45l-2.43-3.77a2.24,2.24,0,0,0,2.22-2.36c0-1.68-1-2.43-3-2.43h-3.27V613h1.3Zm0-1.1v-2.64h1.77c.9,0,1.87.19,1.87,1.25,0,1.32-1,1.39-2.09,1.39Z" transform="translate(-152.15 -565.34)"></path><path class="cls-1" d="M440.7,576.21c-1.12-1.84-3.17-2.77-6.1-2.77a14.33,14.33,0,0,0-2.67.28H414.48l14.06-8.38H410.43l-8.86,8.38H391.42l2.9-5.62h-6l-13.94,9.26a6,6,0,0,0-.76-1.31c-1.4-1.76-3.85-2.61-7.5-2.61a22.7,22.7,0,0,0-3.78.32,25.73,25.73,0,0,0-3.88.94,26.39,26.39,0,0,0-3.87,1.64l-.75.4L348.55,587a11,11,0,0,0-2,2.73,8,8,0,0,0-.94,3.36,1.62,1.62,0,0,0,0,.22,4.77,4.77,0,0,0,1.89,3.81,7.33,7.33,0,0,0,4.65,1.29,13.87,13.87,0,0,0,4.64-.72c.3-.1.59-.27.88-.39a5.65,5.65,0,0,0,3.58,1.11,16,16,0,0,0,3.84-.43l4.49-1.3.46-1,.48-.93a4.66,4.66,0,0,0,.38.78c1.17,1.91,3.43,2.89,6.72,2.89a20.33,20.33,0,0,0,4.34-.53,24.9,24.9,0,0,0,3.75-1.09l1-.37.42-.82a4,4,0,0,0,.74,1c1.19,1.21,3,1.8,5.62,1.8a14,14,0,0,0,3-.33h23.26s5.74-11.14,6.2-12.06c.34-.26.71-.57.71-.57l.46-.33-6.67,13h12.77l6.48-12.57c2.09-4,2.44-7.09,1.1-9.3m-51.93,9.35-2.39,1c-.79.32-1.39.54-1.92.71.51-1,1.25-2.42,1.81-3.51h3.44Zm13.42.25c-.45.36-.87.68-1.28,1,.44-.84,3.39-6.55,5.24-10.13h.76c-1.74,3.36-4.4,8.53-4.72,9.16" transform="translate(-152.15 -565.34)"></path><path class="cls-1" d="M225.79,580.46c-1.78-2.57-5.79-3.66-13.39-3.66H179c-8.75,0-16.2,8.1-16.78,15.07-.37,4.6,2.32,7.82,7.21,8.63l2.62.43-1.21-2.35a6.39,6.39,0,0,1-.82-2.79,2,2,0,0,1,.27-1.08c.61-1,2.38-1.22,3.75-1.22h7.47C180.37,596.8,164,643.25,164,643.25h26.33c16.62,0,18.93-6.72,21.86-15.21l.64-1.84,9.91-28.06L224,594.6c2.35-6.37,4-11,1.82-14.14M205.11,596l-9.62,27.21c-1.3,3.65-4.4,4.56-7.27,4.54,1-3,11.66-33,12.23-34.65,1.6,0,4.13.2,4.74,1.07a1,1,0,0,1,.17.62,4,4,0,0,1-.25,1.21" transform="translate(-152.15 -565.34)"></path><path class="cls-1" d="M257.2,606.5c-1.8-2.53-5.72-3.66-12.74-3.66-12.06,0-18.43,1.79-22,12l-5.84,16.51c-1.6,4.54-1.69,7.46-.29,9.44,2,2.84,6.47,2.82,12.62,2.79H231c9.81,0,16.29,0,20.35-11.51l5.77-16.34c1-2.89,2-6.56.08-9.23m-16,10.2-4.66,13.14a3,3,0,0,1-3.53,1.78c-.4-.15-.56-.31-.35-.89l4.64-13.14a3.41,3.41,0,0,1,3.73-2,.4.4,0,0,1,.31.44,2.2,2.2,0,0,1-.14.67" transform="translate(-152.15 -565.34)"></path><polygon class="cls-1" points="118.64 25.02 99.84 78.24 115.48 78.24 134.28 25.02 118.64 25.02"></polygon><path class="cls-1" d="M353.39,603.44c-2.27-1.63-6.2-1-9.14,1.57l-3.52,3.14,1.63-4.64h-15.8l-14.23,40.23h15.82l7.29-20.61L342,617c-.31,1.36-1,4.47-1,4.47h9.36L354.4,610c1.66-4.07-.15-5.94-1-6.56" transform="translate(-152.15 -565.34)"></path><path class="cls-1" d="M392,605.46c-1.08-1.52-3.05-2.29-5.85-2.29H367.39a11,11,0,0,0-10,7l-9,25.46c-.66,1.88-1.57,4.44-.18,6.43,1,1.4,2.84,2.07,5.64,2.07h18.87c7.87,0,9.37-4.26,10.46-7.38l.19-.5,1-4.78H367.8l-.32.89a2.41,2.41,0,0,1-2.41,1.71c-.12,0-.21-.24-.21-.6a4.7,4.7,0,0,1,.31-1.51l.94-2.65H378c5.58-.33,8.73-2.48,10.31-7l3.94-11.11a9,9,0,0,0,.56-2.92,4.76,4.76,0,0,0-.84-2.81M374.2,616a11.22,11.22,0,0,1-.68,2.84h-3.87c.85-2.63,2.08-3.23,3.72-3.23a1.56,1.56,0,0,1,.79.12.53.53,0,0,1,0,.27" transform="translate(-152.15 -565.34)"></path><path class="cls-1" d="M429.55,605c-1-1.45-2.87-2.19-5.47-2.19H407.56c-5.14,0-8.79,2.64-10.54,7.64l-3.78,10.66v.06c-.68,2.68-.49,4.67.61,6.08s2.78,2,5.32,2h8.1c1.45,0,1.78.3,1.78.3s-.23.55-.31.75l-.16.37a5.22,5.22,0,0,1-2.69,2.93,2.83,2.83,0,0,1-1.27.34,2.49,2.49,0,0,1,.14-.69l.64-1.76H389.58l-1.37,3.9a7.38,7.38,0,0,0,1,6.1,5.34,5.34,0,0,0,4.56,2.25h16.85a10.7,10.7,0,0,0,10.09-7.29L424,627a10.4,10.4,0,0,0,.6-3.34,6,6,0,0,0-.95-3.38,5.75,5.75,0,0,0-4.87-2.3l-4.83-.18c-2.63,0-3.23-.57-3.36-.75a.75.75,0,0,1-.12-.46,3.06,3.06,0,0,1,.23-1c.41-1.16,2.45-2.23,3.31-2.27a3.45,3.45,0,0,1-.14.51l-.63,1.78H428l1.85-5.25a5.67,5.67,0,0,0-.33-5.31" transform="translate(-152.15 -565.34)"></path><path class="cls-1" d="M317.6,606.52c-1.8-2.55-5.78-3.68-12.9-3.68-11.83,0-18.09,1.79-21.7,12l-5.84,16.51c-1.61,4.55-1.7,7.48-.29,9.46,2,2.82,6.34,2.8,12.34,2.77h2c9.91,0,16.45,0,20.52-11.51l5.78-16.34c1-2.88,1.95-6.54.06-9.21M301.38,616.7l-4.64,13.14a2.83,2.83,0,0,1-2.17,1.84,1.62,1.62,0,0,1-1.4-.23c-.14-.17-.05-.53,0-.72l4.64-13.14a3.38,3.38,0,0,1,2.52-2,1.36,1.36,0,0,1,1.12.13c.1.11.11.48-.09,1" transform="translate(-152.15 -565.34)"></path><path class="cls-5" d="M225.79,580.46c-1.78-2.57-5.79-3.66-13.39-3.66H179c-8.75,0-16.2,8.1-16.78,15.07-.37,4.6,2.32,7.82,7.21,8.63l2.62.43-1.21-2.35a6.39,6.39,0,0,1-.82-2.79,2,2,0,0,1,.27-1.08c.61-1,2.38-1.22,3.75-1.22h7.47C180.37,596.8,164,643.25,164,643.25h26.33c16.62,0,18.93-6.72,21.86-15.21l.64-1.84,9.91-28.06L224,594.6c2.35-6.37,4-11,1.82-14.14M205.11,596l-9.62,27.21c-1.3,3.65-4.4,4.56-7.27,4.54,1-3,11.66-33,12.23-34.65,1.6,0,4.13.2,4.74,1.07a1,1,0,0,1,.17.62,4,4,0,0,1-.25,1.21" transform="translate(-152.15 -565.34)"></path><path class="cls-5" d="M257.2,606.5c-1.8-2.53-5.72-3.66-12.74-3.66-12.06,0-18.43,1.79-22,12l-5.84,16.51c-1.6,4.54-1.69,7.46-.29,9.44,2,2.84,6.47,2.82,12.62,2.79H231c9.81,0,16.29,0,20.35-11.51l5.77-16.34c1-2.89,2-6.56.08-9.23m-16,10.2-4.66,13.14a3,3,0,0,1-3.53,1.78c-.4-.15-.56-.31-.35-.89l4.64-13.14a3.41,3.41,0,0,1,3.73-2,.4.4,0,0,1,.31.44,2.2,2.2,0,0,1-.14.67" transform="translate(-152.15 -565.34)"></path><polygon class="cls-5" points="118.64 25.02 99.84 78.24 115.48 78.24 134.28 25.02 118.64 25.02"></polygon><path class="cls-5" d="M353.39,603.44c-2.27-1.63-6.2-1-9.14,1.57l-3.52,3.14,1.63-4.64h-15.8l-14.23,40.23h15.82l7.29-20.61L342,617c-.31,1.36-1,4.47-1,4.47h9.36L354.4,610c1.66-4.07-.15-5.94-1-6.56" transform="translate(-152.15 -565.34)"></path><path class="cls-5" d="M392,605.46c-1.08-1.52-3.05-2.29-5.85-2.29H367.39a11,11,0,0,0-10,7l-9,25.46c-.66,1.88-1.57,4.44-.18,6.43,1,1.4,2.84,2.07,5.64,2.07h18.87c7.87,0,9.37-4.26,10.46-7.38l.19-.5,1-4.78H367.8l-.32.89a2.41,2.41,0,0,1-2.41,1.71c-.12,0-.21-.24-.21-.6a4.7,4.7,0,0,1,.31-1.51l.94-2.65H378c5.58-.33,8.73-2.48,10.31-7l3.94-11.11a9,9,0,0,0,.56-2.92,4.76,4.76,0,0,0-.84-2.81M374.2,616a11.22,11.22,0,0,1-.68,2.84h-3.87c.85-2.63,2.08-3.23,3.72-3.23a1.56,1.56,0,0,1,.79.12.53.53,0,0,1,0,.27" transform="translate(-152.15 -565.34)"></path><path class="cls-5" d="M429.55,605c-1-1.45-2.87-2.19-5.47-2.19H407.56c-5.14,0-8.79,2.64-10.54,7.64l-3.78,10.66v.06c-.68,2.68-.49,4.67.61,6.08s2.78,2,5.32,2h8.1c1.45,0,1.78.3,1.78.3s-.23.55-.31.75l-.16.37a5.22,5.22,0,0,1-2.69,2.93,2.83,2.83,0,0,1-1.27.34,2.49,2.49,0,0,1,.14-.69l.64-1.76H389.58l-1.37,3.9a7.38,7.38,0,0,0,1,6.1,5.34,5.34,0,0,0,4.56,2.25h16.85a10.7,10.7,0,0,0,10.09-7.29L424,627a10.4,10.4,0,0,0,.6-3.34,6,6,0,0,0-.95-3.38,5.75,5.75,0,0,0-4.87-2.3l-4.83-.18c-2.63,0-3.23-.57-3.36-.75a.75.75,0,0,1-.12-.46,3.06,3.06,0,0,1,.23-1c.41-1.16,2.45-2.23,3.31-2.27a3.45,3.45,0,0,1-.14.51l-.63,1.78H428l1.85-5.25a5.67,5.67,0,0,0-.33-5.31" transform="translate(-152.15 -565.34)"></path><path class="cls-5" d="M317.6,606.52c-1.8-2.55-5.78-3.68-12.9-3.68-11.83,0-18.09,1.79-21.7,12l-5.84,16.51c-1.61,4.55-1.7,7.48-.29,9.46,2,2.82,6.34,2.8,12.34,2.77h2c9.91,0,16.45,0,20.52-11.51l5.78-16.34c1-2.88,1.95-6.54.06-9.21M301.38,616.7l-4.64,13.14a2.83,2.83,0,0,1-2.17,1.84,1.62,1.62,0,0,1-1.4-.23c-.14-.17-.05-.53,0-.72l4.64-13.14a3.38,3.38,0,0,1,2.52-2,1.36,1.36,0,0,1,1.12.13c.1.11.11.48-.09,1" transform="translate(-152.15 -565.34)"></path><polygon class="cls-5" points="132.39 24.41 119.13 24.41 100.8 76.26 115 76.26 133.31 24.41 132.39 24.41"></polygon><path class="cls-5" d="M344.7,604.23l-5.5,4.9c.81-2.29,2.19-6.24,2.19-6.24H327L313.3,641.77h14.37l7.18-20.34,8.34-7.71c-.49,2.07-1.36,5.81-1.36,5.81h8l3.9-11c1.43-3.53.14-5.15-.76-5.79-2-1.43-5.63-.75-8.29,1.54" transform="translate(-152.15 -565.34)"></path><path class="cls-5" d="M407.56,602.22c-4.82,0-8.25,2.49-9.9,7.18L393.91,620c-.64,2.53-.48,4.32.47,5.54s2.47,1.73,4.79,1.73h8.09c1.75,0,2.22.4,2.32.57.24.35,0,1-.23,1.43l-.13.33a5.89,5.89,0,0,1-4,3.66,1.28,1.28,0,0,1-1.14-.12c-.19-.22-.16-.74.07-1.4l.31-.87H390.06l-1.22,3.44a6.74,6.74,0,0,0,.87,5.48,4.69,4.69,0,0,0,4,2h16.86a10,10,0,0,0,9.44-6.85l3.34-9.42c.82-2.36.73-4.64-.28-6.1a5.07,5.07,0,0,0-4.33-2l-4.82-.18c-2.11,0-3.41-.35-3.9-1a2.36,2.36,0,0,1,0-2.14,5.36,5.36,0,0,1,3.61-2.68c.46-.09.83-.05,1,.1s.17.56-.09,1.27l-.32.88h13.36l1.69-4.8a5,5,0,0,0-.25-4.68c-.89-1.27-2.55-1.91-4.91-1.91Z" transform="translate(-152.15 -565.34)"></path><path class="cls-6" d="M212.4,576.83H179c-12.76,0-22.21,18.94-9.35,21-1.64-3.18-1.77-7,4.39-7h9.36l-17.58,49.76h24.44c16.8,0,17.93-6.82,21.24-16.16l9.92-28.07c4.73-13.39,8.82-19.56-9-19.56m-6,18.29-9.63,27.22c-1.87,5.31-6.91,5.74-10.37,5.31l13.15-37.21c4.88,0,8.27.64,6.85,4.68m38.09,7.75c-12.47,0-17.62,2.2-20.78,11.11l-5.84,16.53c-4,11.28,2.38,10.44,13.16,10.44,9.61,0,15.34,0,19.09-10.62L255.87,614c2.74-7.74.72-11.11-11.41-11.11m-2.05,13L237.75,629c-1.36,3.86-7.65,3.53-6.4,0L236,615.84c1.31-3.7,7.89-4.21,6.41,0M386.09,603.2h-18.7a9.69,9.69,0,0,0-8.73,6.07l-8.93,25.27c-1,2.69-2.6,6.91,4.14,6.91h18.87c7.25,0,8.22-3.72,9.36-6.91l.63-3.08h-14c-1.19,3.37-6.72,4.08-4.82-1.29l1.25-3.54H378c5.51-.34,7.81-2.53,9.06-6.06L391,609.45c1.37-3.88-.16-6.25-4.88-6.25m-11.61,15.68h-6.57c.75-3.54,2.09-5.9,5.46-5.9,2.69,0,2.6,1.67,1.11,5.9m-69.78-16c-12.31,0-17.29,2.2-20.45,11.11l-5.83,16.53c-4,11.28,2.37,10.44,12.82,10.44,9.78,0,15.51,0,19.26-10.62L316.28,614c2.73-7.74.73-11.11-11.58-11.11m-2.05,13L298,629c-1.37,3.86-7.32,3.53-6.07,0l4.65-13.15c1.31-3.7,7.56-4.21,6.07,0M272.2,591.05l-17.4,49.24h11.43c.3-.83,16.81-47.58,17.4-49.24Zm76.72,27.18L352.54,608a6.61,6.61,0,0,0,.54-2.37,2.19,2.19,0,0,0-.85-1.9c-1.5-1.07-4.5-.42-6.68,1.45l-7.37,6.58-1.88,1.68,3.26-9.26H328c-.29.83-12.25,34.62-12.82,36.26h11.6c.3-.83,7-19.75,7-19.75l11.69-10.82s-1.66,7.08-1.95,8.34Zm79-13.35c-.62-.89-2-1.36-3.85-1.36H407.56c-4.28,0-7.2,2.13-8.68,6.31l-3.73,10.55a9.07,9.07,0,0,0-.33,2.29,3.24,3.24,0,0,0,.59,2.08c.64.83,1.87,1.23,3.75,1.23h8.1c1.78,0,2.9.38,3.41,1.16a2.78,2.78,0,0,1-.12,2.65l-.1.23a7.19,7.19,0,0,1-5,4.53,2.36,2.36,0,0,1-2.38-.55,1.92,1.92,0,0,1-.45-1.31,5.09,5.09,0,0,1,.1-.51H391c-.29.83-.91,2.57-.91,2.57a3.79,3.79,0,0,0-.17,1.23,5.45,5.45,0,0,0,.88,3.07,3.39,3.39,0,0,0,2.93,1.41h16.86a8.8,8.8,0,0,0,8.21-6l3.34-9.43c.26-.74,1-3.27-.12-4.94a3.88,3.88,0,0,0-3.3-1.44l-4.8-.18c-2.61,0-4.18-.5-4.94-1.58a3.51,3.51,0,0,1-.14-3.32c.6-1.71,2.86-3.2,4.59-3.53a2.13,2.13,0,0,1,2.18.54,1.78,1.78,0,0,1,.41,1.2,4,4,0,0,1-.09.48h10.72l1.39-3.92a6.12,6.12,0,0,0,.37-1.91,2.73,2.73,0,0,0-.46-1.59" transform="translate(-152.15 -565.34)"></path><path class="cls-4" d="M212.4,576.83H179c-12.76,0-22.21,18.94-9.35,21-1.64-3.18-1.77-7,4.39-7h9.36l-17.58,49.76h24.44c16.8,0,17.93-6.82,21.24-16.16l9.92-28.07c4.73-13.39,8.82-19.56-9-19.56m-6,18.29-9.63,27.22c-1.87,5.31-6.91,5.74-10.37,5.31l13.15-37.21c4.88,0,8.27.64,6.85,4.68m38.09,7.75c-12.47,0-17.62,2.2-20.78,11.11l-5.84,16.53c-4,11.28,2.38,10.44,13.16,10.44,9.61,0,15.34,0,19.09-10.62L255.87,614c2.74-7.74.72-11.11-11.41-11.11m-2.05,13L237.75,629c-1.36,3.86-7.65,3.53-6.4,0L236,615.84c1.31-3.7,7.89-4.21,6.41,0M386.09,603.2h-18.7a9.69,9.69,0,0,0-8.73,6.07l-8.93,25.27c-1,2.69-2.6,6.91,4.14,6.91h18.87c7.25,0,8.22-3.72,9.36-6.91l.63-3.08h-14c-1.19,3.37-6.72,4.08-4.82-1.29l1.25-3.54H378c5.51-.34,7.81-2.53,9.06-6.06L391,609.45c1.37-3.88-.16-6.25-4.88-6.25m-11.61,15.68h-6.57c.75-3.54,2.09-5.9,5.46-5.9,2.69,0,2.6,1.67,1.11,5.9m-69.78-16c-12.31,0-17.29,2.2-20.45,11.11l-5.83,16.53c-4,11.28,2.37,10.44,12.82,10.44,9.78,0,15.51,0,19.26-10.62L316.28,614c2.73-7.74.73-11.11-11.58-11.11m-2.05,13L298,629c-1.37,3.86-7.32,3.53-6.07,0l4.65-13.15c1.31-3.7,7.56-4.21,6.07,0M272.2,591.05l-17.4,49.24h11.43c.3-.83,16.81-47.58,17.4-49.24Zm76.72,27.18L352.54,608a6.61,6.61,0,0,0,.54-2.37,2.19,2.19,0,0,0-.85-1.9c-1.5-1.07-4.5-.42-6.68,1.45l-7.37,6.58-1.88,1.68,3.26-9.26H328c-.29.83-12.25,34.62-12.82,36.26h11.6c.3-.83,7-19.75,7-19.75l11.69-10.82s-1.66,7.08-1.95,8.34Zm79-13.35c-.62-.89-2-1.36-3.85-1.36H407.56c-4.28,0-7.2,2.13-8.68,6.31l-3.73,10.55a9.07,9.07,0,0,0-.33,2.29,3.24,3.24,0,0,0,.59,2.08c.64.83,1.87,1.23,3.75,1.23h8.1c1.78,0,2.9.38,3.41,1.16a2.78,2.78,0,0,1-.12,2.65l-.1.23a7.19,7.19,0,0,1-5,4.53,2.36,2.36,0,0,1-2.38-.55,1.92,1.92,0,0,1-.45-1.31,5.09,5.09,0,0,1,.1-.51H391c-.29.83-.91,2.57-.91,2.57a3.79,3.79,0,0,0-.17,1.23,5.45,5.45,0,0,0,.88,3.07,3.39,3.39,0,0,0,2.93,1.41h16.86a8.8,8.8,0,0,0,8.21-6l3.34-9.43c.26-.74,1-3.27-.12-4.94a3.88,3.88,0,0,0-3.3-1.44l-4.8-.18c-2.61,0-4.18-.5-4.94-1.58a3.51,3.51,0,0,1-.14-3.32c.6-1.71,2.86-3.2,4.59-3.53a2.13,2.13,0,0,1,2.18.54,1.78,1.78,0,0,1,.41,1.2,4,4,0,0,1-.09.48h10.72l1.39-3.92a6.12,6.12,0,0,0,.37-1.91,2.73,2.73,0,0,0-.46-1.59" transform="translate(-152.15 -565.34)"></path><path class="cls-5" d="M179,576.18c-8.4,0-15.55,7.77-16.1,14.44-.34,4.28,2.08,7.15,6.64,7.91l1.28.2-.59-1.15a7,7,0,0,1-.89-3.09,2.69,2.69,0,0,1,.36-1.43c.63-1,2.09-1.55,4.34-1.55h8.44l-17.58,49.75h25.36c16.14,0,18.27-6.19,21.21-14.74l.64-1.84,9.92-28.07,1.28-3.54c2.27-6.19,3.91-10.65,1.91-13.52-1.65-2.36-5.49-3.37-12.84-3.37Zm-14.83,15.23c0-.22,0-.45,0-.68.49-6,7.2-13.24,14.8-13.24H212.4c6.69,0,10.43.88,11.77,2.81a4.18,4.18,0,0,1,.67,2.48c0,2.41-1.22,5.72-2.73,9.84l-1.29,3.55-9.91,28.07-.65,1.85c-2.87,8.35-4.77,13.87-20,13.87H166.76c.59-1.68,17.58-49.75,17.58-49.75H174.06c-2.74,0-4.57.74-5.45,2.17a4,4,0,0,0-.55,2.11,7.34,7.34,0,0,0,.51,2.39c-2.8-.83-4.38-2.7-4.38-5.47" transform="translate(-152.15 -565.34)"></path><path class="cls-5" d="M223.06,613.77l-5.83,16.52c-1.51,4.25-1.63,7.06-.38,8.81,1.82,2.56,6.12,2.54,12.05,2.5H231c9.52,0,15.8,0,19.71-11.05l5.77-16.34c1.44-4.07,1.5-6.73.16-8.61-1.65-2.34-5.41-3.38-12.18-3.38-11.73,0-17.92,1.73-21.4,11.55m-5.15,24.58c-1-1.36-.79-3.86.55-7.63l5.84-16.51c2.92-8.29,7.44-10.69,20.16-10.69,6.22,0,9.76.91,11.11,2.83,1.07,1.5,1,3.79-.31,7.42l-5.78,16.35c-3.59,10.17-8.88,10.17-18.48,10.17h-2.1c-5.34,0-9.56.06-11-1.95" transform="translate(-152.15 -565.34)"></path><path class="cls-5" d="M367.39,602.55a10.29,10.29,0,0,0-9.34,6.5l-9,25.47c-.62,1.73-1.45,4.1-.26,5.79.85,1.2,2.51,1.8,5.08,1.8h18.87c7.4,0,8.73-3.85,9.82-6.94l.15-.41c0-.08.66-3.18.66-3.18l.16-.77H368.28l-.15.43c-.55,1.55-2.29,2.48-3.29,2.14a1.21,1.21,0,0,1-.67-1.26,5.73,5.73,0,0,1,.36-1.74l1.11-3.1H378c5.29-.32,8.17-2.27,9.67-6.5l3.93-11.11a8.15,8.15,0,0,0,.52-2.69,4.17,4.17,0,0,0-.71-2.43c-.94-1.33-2.73-2-5.29-2Zm-17.54,37c-.8-1.14-.12-3.06.43-4.61l9-25.46a9.05,9.05,0,0,1,8.11-5.64H386.1c2.09,0,3.55.5,4.22,1.45s.64,2.21,0,3.93l-3.94,11.11c-.95,2.72-2.65,5.28-8.48,5.64H364.71l-1.41,4c-1.24,3.51.54,4.45,1.12,4.65,1.48.52,3.72-.47,4.69-2.5h12.82c-.18.87-.46,2.28-.47,2.3l-.12.34c-1.1,3.12-2.13,6.06-8.6,6.06H353.87c-2.08,0-3.44-.42-4-1.24" transform="translate(-152.15 -565.34)"></path><path class="cls-5" d="M283.64,613.77l-5.83,16.52c-1.52,4.27-1.64,7.08-.38,8.83,1.8,2.54,6,2.51,11.78,2.49h2c10,0,16,0,19.88-11.05l5.77-16.34c1.44-4.06,1.48-6.71.15-8.59-1.66-2.35-5.46-3.39-12.34-3.39-13,0-17.93,2.69-21.06,11.54m-5.16,24.6c-1-1.36-.78-3.87.55-7.65l5.84-16.51c2.93-8.29,7.38-10.68,19.83-10.68,6.32,0,9.91.9,11.28,2.84,1.06,1.5,1,3.78-.32,7.4l-5.77,16.35c-3.6,10.18-8.94,10.18-18.65,10.18h-2c-5.2,0-9.3.06-10.72-1.93" transform="translate(-152.15 -565.34)"></path><path class="cls-5" d="M199.05,589.79l-13.56,38.4.8.11c3.24.39,9,.18,11.07-5.75L207,595.33a3.87,3.87,0,0,0-.16-3.62c-1.13-1.59-3.73-1.92-7.3-1.92Zm.92,1.31c2.35,0,5,.22,5.79,1.36a1.79,1.79,0,0,1,.28,1,4.89,4.89,0,0,1-.28,1.44l-9.62,27.21c-1.58,4.45-5.53,5.18-8.87,4.93L200,591.1" transform="translate(-152.15 -565.34)"></path><path class="cls-5" d="M235.38,615.63l-4.65,13.15a2.49,2.49,0,0,0,1.57,3.41,5,5,0,0,0,6.07-3L243,616.07c.73-2.08-.22-3.25-1.37-3.65a5.31,5.31,0,0,0-6.26,3.21M232.73,631a1.21,1.21,0,0,1-.77-1.77l4.65-13.13a4.06,4.06,0,0,1,4.6-2.43,1.06,1.06,0,0,1,.76,1.08,2.76,2.76,0,0,1-.18.91l-4.65,13.15a3.69,3.69,0,0,1-4.41,2.19" transform="translate(-152.15 -565.34)"></path><path class="cls-5" d="M367.28,618.75l-.17.78h7.83l.16-.43c1-2.94,1.45-4.74.67-5.84a2.73,2.73,0,0,0-2.4-.94c-4.2,0-5.47,3.43-6.09,6.43m6.09-5.12c.7,0,1.15.12,1.33.38a1.2,1.2,0,0,1,.17.71,12.81,12.81,0,0,1-.85,3.51h-5.24c.83-3.19,2.17-4.6,4.59-4.6" transform="translate(-152.15 -565.34)"></path><path class="cls-5" d="M300,612.3a5.31,5.31,0,0,0-4,3.33l-4.65,13.14a2.62,2.62,0,0,0,.34,2.67,3.45,3.45,0,0,0,3.27.89,4.77,4.77,0,0,0,3.68-3.13l4.65-13.14a2.86,2.86,0,0,0-.27-3,3.14,3.14,0,0,0-3-.8m-7.33,18.3a1.35,1.35,0,0,1-.1-1.4l4.64-13.14a4,4,0,0,1,3-2.48,1.94,1.94,0,0,1,1.78.36,1.8,1.8,0,0,1,0,1.69l-4.64,13.14a3.51,3.51,0,0,1-2.7,2.29,2.24,2.24,0,0,1-2-.46" transform="translate(-152.15 -565.34)"></path><rect class="cls-1" x="207.87" y="14.28" width="69.86" height="15"></rect><rect class="cls-1" x="265.65" y="26.58" width="6.19" height="6.19"></rect><path class="cls-7" d="M367.59,594.43c-1.17.39-2.24.69-3.19.93a13.14,13.14,0,0,1-3.19.36c-1.1,0-1.77-.2-2-.59a2,2,0,0,1-.19-1.42,19.3,19.3,0,0,1-3.15,1.44,11.57,11.57,0,0,1-3.76.57,4.85,4.85,0,0,1-3-.72,2.08,2.08,0,0,1-.86-1.79,5.26,5.26,0,0,1,.64-2.24,8.51,8.51,0,0,1,2.37-2.89,13.35,13.35,0,0,1,3.34-1.87q1.86-.71,4.72-1.49l2.46-.68,1.26-.36c.28-.09.58-.2.91-.33a3.58,3.58,0,0,0,.56-2.16c-.11-.52-.78-.78-2-.78a12.34,12.34,0,0,0-4.58,1,29.55,29.55,0,0,0-4.73,2.5l2.64-5.13a21.12,21.12,0,0,1,3.46-1.47,22.6,22.6,0,0,1,3.48-.85,20.34,20.34,0,0,1,3.34-.28q4.13,0,5.38,1.59t-.17,4.37l-3.77,7.3A5.27,5.27,0,0,0,367,591c0,.34.1.52.45.52a6.28,6.28,0,0,0,2-.54Zm-7.46-3.61,2.31-4.5a33.09,33.09,0,0,0-4.4,1.74,4.85,4.85,0,0,0-2.19,2.1c-.33.63-.4,1.11-.2,1.45a1.09,1.09,0,0,0,1,.5,4.15,4.15,0,0,0,1.58-.38c.58-.25,1.21-.55,1.87-.91" transform="translate(-152.15 -565.34)"></path><path class="cls-7" d="M384.7,594.27a23.55,23.55,0,0,1-3.38,1,17.84,17.84,0,0,1-3.74.47c-4.82,0-6-2.38-3.57-7.1l3.9-7.59h-3l.6-1.16,13.65-9.07h.76l-2.9,5.62h6.4L391,581h-6.4l-3.14,6.1a10.77,10.77,0,0,0-.75,1.71,1.07,1.07,0,0,0,.17,1.09,2.14,2.14,0,0,0,1.6.44,15.05,15.05,0,0,0,4.9-1.33Z" transform="translate(-152.15 -565.34)"></path><path class="cls-7" d="M407,595.37h-6.71l1.39-2.69a20.18,20.18,0,0,1-4.14,2.28,11.38,11.38,0,0,1-4.13.75q-4.29,0-4.28-2.5a12.84,12.84,0,0,1,1.65-5.66l5.74-11.14h6.71l-5.08,9.86-.21.4a7.52,7.52,0,0,0-.88,2.7c-.05.78.49,1.17,1.63,1.17a5,5,0,0,0,2.77-.84,28.79,28.79,0,0,0,2.86-2.15l5.74-11.14h6.71ZM418.74,568l-9.91,5.9h-3.57l6.24-5.9Z" transform="translate(-152.15 -565.34)"></path><path class="cls-7" d="M431.48,595.38h-6.71l5.05-9.8.2-.39a7.47,7.47,0,0,0,.89-2.71q.09-1.17-1.62-1.17a4.21,4.21,0,0,0-1.59.31,8.39,8.39,0,0,0-1.51.79,14.31,14.31,0,0,0-1.3.93c-.38.29-.77.61-1.17.94L418,595.38h-6.71l9.77-19h6.71l-1.43,2.77a19.27,19.27,0,0,1,4.38-2.37,11.75,11.75,0,0,1,3.88-.68q6.79,0,2.6,8.13Z" transform="translate(-152.15 -565.34)"></path></svg>