<svg xmlns="http://www.w3.org/2000/svg" width="60" height="60" viewBox="0 0 60 60" fill="none"><path d="M58.1264 23.8306L57.8435 24.1134L58.1264 23.8306L56.2124 21.9163C56.381 21.7474 56.5522 21.5831 56.7248 21.4175C56.7933 21.3518 56.862 21.2859 56.9308 21.2193C57.262 20.8994 57.5935 20.5687 57.8847 20.2085C58.4764 19.4765 58.9063 18.6167 58.8993 17.4296C58.9064 16.2413 58.4758 15.3808 57.8837 14.6488C57.5923 14.2885 57.2607 13.9579 56.9297 13.6382C56.8614 13.5722 56.7933 13.5068 56.7254 13.4417C56.5525 13.2758 56.3811 13.1114 56.2124 12.9423L58.7213 10.433C59.3198 9.83436 59.3198 8.86378 58.7213 8.26508L58.7213 8.26505L51.7361 1.27867L51.736 1.27859C51.1374 0.680129 50.1672 0.680181 49.5684 1.27856L49.5683 1.27867L47.0636 3.7838L45.6528 2.37274C43.9545 0.674209 41.1921 0.674382 39.4937 2.37271L39.4937 2.37274L38.0828 3.7838L36.1732 1.8738L36.1731 1.87377C34.4748 0.175539 31.7125 0.175283 30.0139 1.87377L30.0139 1.87381L28.0183 3.8699C27.198 4.69018 26.7461 5.78572 26.7463 6.95024C26.7464 8.11451 27.1982 9.20964 28.0182 10.0299L28.0182 10.0299L35.4164 17.4293L17.4267 35.4219L10.0286 28.0226L10.0286 28.0226C9.2085 27.2024 8.11351 26.7506 6.94941 26.7505C5.78515 26.7504 4.68966 27.2023 3.86952 28.0226L1.87373 30.0186L2.15659 30.3014L1.87373 30.0186C0.175425 31.7172 0.175425 34.4801 1.87373 36.1787L3.7836 38.0889L2.37271 39.4999L2.65557 39.7828L2.3727 39.4999C0.6744 41.1985 0.6744 43.9614 2.3727 45.66L3.78361 47.0712L1.28139 49.5737C0.683644 50.1525 0.682742 51.1674 1.28146 51.7467L8.26413 58.7305C8.55151 59.018 8.94143 59.1795 9.34796 59.1795C9.75449 59.1795 10.1444 59.018 10.4318 58.7305L10.1489 58.4477L10.4318 58.7305L12.9405 56.2213C13.1093 56.3899 13.2735 56.561 13.4391 56.7336C13.5048 56.8021 13.5708 56.8709 13.6373 56.9398C13.9573 57.2711 14.288 57.6026 14.6482 57.8939C15.3801 58.4858 16.24 58.9158 17.4271 58.9087C18.615 58.9155 19.4753 58.4847 20.2071 57.8926C20.5673 57.6012 20.8979 57.2696 21.2175 56.9385C21.2836 56.8701 21.349 56.8019 21.4142 56.7339C21.5799 56.5612 21.7442 56.3899 21.9131 56.2213L23.8241 58.1326C25.4476 59.8224 28.3654 59.8225 29.989 58.1326L31.9819 56.1394L31.7139 55.8714L31.9819 56.1394C33.6801 54.4408 33.6801 51.678 31.9819 49.9794L31.7113 50.2499L31.9819 49.9794L24.5837 42.58L42.5733 24.5874L49.9712 31.9866L49.9713 31.9866C50.7914 32.8068 51.8865 33.2586 53.0509 33.2586C54.2152 33.2586 55.3103 32.8068 56.1304 31.9866L58.1261 29.9906C58.1261 29.9906 58.1261 29.9906 58.1262 29.9906C59.8246 28.2922 59.8245 25.5293 58.1264 23.8306ZM41.6614 4.54071L41.6615 4.54077L41.6673 4.53473C42.134 4.04806 43.0131 4.04789 43.4791 4.53453L43.479 4.53459L43.4851 4.5407L55.4597 16.5172C55.7005 16.758 55.8339 17.0802 55.8338 17.4292V17.4293C55.8338 17.7785 55.7004 18.1007 55.4597 18.3414L55.4596 18.3414L54.0488 19.7525L40.2505 5.95175L41.6614 4.54071ZM18.3387 55.4686L18.3386 55.4685L18.3328 55.4746C17.8665 55.961 16.9867 55.9613 16.5209 55.4748L16.521 55.4747L16.5149 55.4686L4.54048 43.4922C4.29953 43.2512 4.16611 42.9289 4.16611 42.5801C4.16611 42.2311 4.29954 41.9089 4.54042 41.6679L5.95119 40.2568L19.7496 54.0575L18.3387 55.4686ZM29.8141 53.9715L29.8141 53.9715L27.8183 55.9677L27.8183 55.9677C27.5776 56.2085 27.2555 56.3418 26.9066 56.3418H26.9065C26.5575 56.3419 26.2354 56.2086 25.9947 55.9677L25.9946 55.9677L4.04151 34.0109L4.04148 34.0108C3.5389 33.5083 3.53886 32.6893 4.04151 32.1866L5.28644 30.9415L5.81809 30.4098L5.97855 30.2493L6.02211 30.2057L6.03343 30.1944L6.03631 30.1915L6.03704 30.1908L6.03722 30.1906L6.03727 30.1906L5.75443 29.9077L6.03728 30.1906L6.03729 30.1905C6.27805 29.9498 6.60018 29.8164 6.94925 29.8164C7.29831 29.8164 7.6203 29.9497 7.86093 30.1905L7.86098 30.1905L29.8141 52.1474C30.3167 52.6501 30.3167 53.4689 29.8141 53.9715ZM55.9586 27.8227L55.9586 27.8227L53.9629 29.8188C53.9629 29.8188 53.9628 29.8188 53.9628 29.8189C53.7222 30.0594 53.4001 30.1928 53.051 30.1928C52.7018 30.1928 52.3796 30.0594 52.139 29.8188L30.1859 7.86195L30.186 7.86188L30.1797 7.8559C29.6938 7.39044 29.6933 6.50909 30.1795 6.044L30.1796 6.04408L30.1859 6.03776L32.1816 4.04166C32.1816 4.04165 32.1816 4.04164 32.1816 4.04163C32.6842 3.53905 33.5027 3.53898 34.0054 4.04166L55.9586 25.9984C56.4612 26.5012 56.4612 27.3201 55.9586 27.8227ZM49.2312 5.95185L50.6522 4.53063L55.4697 9.34897L54.0487 10.7702L49.2312 5.95185ZM10.7688 54.0576L9.34796 55.4787L4.53034 50.6603L5.95129 49.2392L10.7688 54.0576ZM31.4109 31.4158L22.4161 40.4121L19.5944 37.5898L37.584 19.5972L40.4057 22.4195L31.4109 31.4158Z" fill="#004A92" stroke="#004A93" stroke-width="0.8"></path></svg>