<svg xmlns="http://www.w3.org/2000/svg" width="1137" height="172" viewBox="0 0 1137 172" fill="none"><g clip-path="url(#clip0_7_889)"><path d="M541.184 112.48C546.143 119.601 545.815 136.646 535.979 154.102C554.446 143.911 568.725 134.862 573.019 125.976" stroke="#48A1DD" stroke-width="6" stroke-miterlimit="10" stroke-linecap="round" stroke-linejoin="round"></path><path d="M632.403 60.767C629.777 49.0904 622.922 36.7175 613.101 30.6984C603.481 42.9772 588.806 47.4188 581.36 49.4358C584.848 52.9981 586.473 57.0443 586.075 62.1988" stroke="#48A1DD" stroke-width="6" stroke-miterlimit="10" stroke-linecap="round" stroke-linejoin="round"></path><path d="M571.161 66.9848C566.488 62.8659 557.652 48.7154 525.146 45.9963C532.228 54.233 543.834 69.0218 542.683 80.1323" stroke="#48A1DD" stroke-width="6" stroke-miterlimit="10" stroke-linecap="round" stroke-linejoin="round"></path><path d="M618.331 119.896C618.369 118.015 609.398 108.093 600.621 109.753C593.695 121.04 580.41 143.039 578.207 146.583C601.208 144.676 618.169 127.716 618.331 119.896Z" stroke="#48A1DD" stroke-width="6" stroke-miterlimit="10" stroke-linecap="round" stroke-linejoin="round"></path><path d="M613.575 129.185C630.749 126.311 653.726 118.579 664.236 97.9594C669.495 86.8715 664.723 80.8291 661.414 78.2187C659.448 76.6621 633.544 55.3984 613.345 57.2189C568.373 61.2846 533.039 85.6798 527.401 89.7163C517.492 70.1862 491.308 60.5871 484.502 59.5192C493.606 76.6027 507.625 99.4979 507.859 102.024C508.094 104.636 501.132 123.359 492.044 142.961C508.88 137.247 522.361 124.94 529.917 107.154C548.076 115.498 568.228 126.639 588.46 129.756" stroke="#48A1DD" stroke-width="6" stroke-miterlimit="10" stroke-linecap="round" stroke-linejoin="round"></path><path d="M628.348 90.5022L628.651 90.477" stroke="#48A1DD" stroke-width="6" stroke-miterlimit="10" stroke-linecap="round" stroke-linejoin="round"></path><path d="M540.133 94.6665C554.549 89.132 591.439 78.8629 613.899 84.2932C616.225 79.6111 620.848 76.2114 626.433 75.7014C634.988 74.9303 642.538 81.2304 643.318 89.7808C647.719 89.5666 651.498 88.5895 654.743 87.332" stroke="#48A1DD" stroke-width="6" stroke-miterlimit="10" stroke-linecap="round" stroke-linejoin="round"></path><rect x="51" y="96" width="388" height="6" fill="#012853"></rect><rect x="699" y="96" width="388" height="6" fill="#012853"></rect></g><defs><clipPath id="clip0_7_889"><rect width="1137" height="172" fill="white"></rect></clipPath></defs></svg>