<svg xmlns="http://www.w3.org/2000/svg" width="1137" height="172" viewBox="0 0 1137 172" fill="none"><path d="M538.915 113.058C542.699 118.491 542.449 131.496 534.943 144.817C549.034 137.04 559.93 130.135 563.206 123.355" stroke="white" stroke-width="4.5" stroke-miterlimit="10" stroke-linecap="round" stroke-linejoin="round"></path><path d="M608.519 73.5982C606.515 64.6885 601.284 55.2475 593.791 50.6548C586.45 60.0239 575.253 63.413 569.571 64.952C572.233 67.6702 573.472 70.7576 573.168 74.6907" stroke="white" stroke-width="4.5" stroke-miterlimit="10" stroke-linecap="round" stroke-linejoin="round"></path><path d="M561.789 78.3426C558.223 75.1997 551.481 64.4024 526.678 62.3276C532.081 68.6125 540.937 79.8969 540.059 88.3747" stroke="white" stroke-width="4.5" stroke-miterlimit="10" stroke-linecap="round" stroke-linejoin="round"></path><path d="M597.781 118.716C597.81 117.28 590.965 109.71 584.268 110.976C578.983 119.588 568.846 136.375 567.165 139.079C584.716 137.624 597.658 124.683 597.781 118.716Z" stroke="white" stroke-width="4.5" stroke-miterlimit="10" stroke-linecap="round" stroke-linejoin="round"></path><path d="M594.152 125.803C607.257 123.611 624.789 117.711 632.809 101.977C636.821 93.5169 633.18 88.9063 630.656 86.9145C629.155 85.7267 609.39 69.5017 593.977 70.8909C559.661 73.9932 532.7 92.6076 528.398 95.6876C520.837 80.7854 500.858 73.461 495.665 72.6461C502.612 85.6815 513.309 103.151 513.487 105.079C513.667 107.072 508.354 121.358 501.42 136.315C514.266 131.956 524.553 122.565 530.318 108.993C544.174 115.36 559.551 123.861 574.988 126.239" stroke="white" stroke-width="4.5" stroke-miterlimit="10" stroke-linecap="round" stroke-linejoin="round"></path><path d="M605.425 96.2871L605.656 96.2679" stroke="white" stroke-width="4.5" stroke-miterlimit="10" stroke-linecap="round" stroke-linejoin="round"></path><path d="M538.113 99.4648C549.114 95.2418 577.262 87.4061 594.4 91.5497C596.174 87.977 599.702 85.3829 603.964 84.9938C610.491 84.4054 616.252 89.2126 616.848 95.7369C620.205 95.5734 623.089 94.8278 625.565 93.8683" stroke="white" stroke-width="4.5" stroke-miterlimit="10" stroke-linecap="round" stroke-linejoin="round"></path><rect x="51" y="96" width="388" height="6" fill="#012853"></rect><rect x="699" y="96" width="388" height="6" fill="#012853"></rect></svg>