<svg xmlns="http://www.w3.org/2000/svg" width="123" height="67" viewBox="0 0 123 67" fill="none"><path d="M8.42725 8.16699H8.26611C8.22705 8.05469 8.16357 7.92773 8.07568 7.78613C7.99268 7.64453 7.88037 7.5127 7.73877 7.39062C7.60205 7.26367 7.43359 7.15869 7.2334 7.07568C7.03809 6.99268 6.80615 6.95117 6.5376 6.95117C6.29834 6.95117 6.08594 6.98779 5.90039 7.06104C5.71484 7.13428 5.55859 7.23682 5.43164 7.36865C5.30957 7.50049 5.2168 7.65674 5.15332 7.8374C5.08984 8.01807 5.05811 8.21826 5.05811 8.43799C5.05811 8.78955 5.15576 9.12646 5.35107 9.44873C5.55127 9.76611 5.80029 10.0811 6.09814 10.3936C6.396 10.7061 6.71826 11.0186 7.06494 11.3311C7.41162 11.6436 7.73389 11.9683 8.03174 12.3052C8.32959 12.6421 8.57617 12.9961 8.77148 13.3672C8.97168 13.7334 9.07178 14.1289 9.07178 14.5537C9.07178 14.8711 9.01562 15.1909 8.90332 15.5132C8.7959 15.8306 8.62744 16.1162 8.39795 16.3701C8.16846 16.624 7.87305 16.8315 7.51172 16.9927C7.15039 17.1489 6.7207 17.2271 6.22266 17.2271C5.94434 17.2271 5.67822 17.2002 5.42432 17.1465C5.17529 17.0977 4.94336 17.0366 4.72852 16.9634C4.51855 16.8853 4.32812 16.8022 4.15723 16.7144C3.99121 16.6265 3.85449 16.5459 3.74707 16.4727L3.91553 14.854H4.09863C4.15234 15.0835 4.24023 15.3032 4.3623 15.5132C4.48438 15.7183 4.6333 15.9014 4.80908 16.0625C4.98975 16.2188 5.19482 16.3457 5.42432 16.4434C5.65381 16.5361 5.90527 16.5825 6.17871 16.5825C6.42773 16.5825 6.6499 16.5459 6.84521 16.4727C7.04541 16.3945 7.21631 16.2896 7.35791 16.1577C7.49951 16.021 7.60693 15.8599 7.68018 15.6743C7.7583 15.4888 7.79736 15.2861 7.79736 15.0664C7.79736 14.7588 7.74121 14.4756 7.62891 14.2168C7.5166 13.9531 7.36768 13.7041 7.18213 13.4697C7.00146 13.2354 6.79395 13.0083 6.55957 12.7886C6.33008 12.5688 6.09326 12.3491 5.84912 12.1294C5.60498 11.9048 5.36572 11.6753 5.13135 11.4409C4.90186 11.2065 4.69434 10.9575 4.50879 10.6938C4.32812 10.4253 4.18164 10.1396 4.06934 9.83691C3.95703 9.5293 3.90088 9.19238 3.90088 8.82617C3.90088 8.44043 3.97412 8.09375 4.12061 7.78613C4.27197 7.47363 4.46973 7.20752 4.71387 6.98779C4.96289 6.76807 5.24365 6.59961 5.55615 6.48242C5.86865 6.36523 6.19092 6.30664 6.52295 6.30664C6.76709 6.30664 6.9917 6.32617 7.19678 6.36523C7.40186 6.4043 7.58496 6.45068 7.74609 6.50439C7.91211 6.55811 8.05615 6.61182 8.17822 6.66553C8.30029 6.71924 8.40039 6.76318 8.47852 6.79736L8.42725 8.16699ZM10.998 12.3638C10.998 11.9487 10.9907 11.5874 10.9761 11.2798C10.9663 10.9673 10.9517 10.6987 10.9321 10.4741C10.9175 10.2495 10.8955 10.0615 10.8662 9.91016C10.8418 9.75879 10.8149 9.63184 10.7856 9.5293V9.5H12.4775V9.5293C12.4482 9.63184 12.4214 9.75879 12.397 9.91016C12.3726 10.0615 12.3506 10.2495 12.3311 10.4741C12.3115 10.6987 12.2969 10.9673 12.2871 11.2798C12.2773 11.5874 12.2725 11.9487 12.2725 12.3638V14.1362C12.2725 14.5513 12.2773 14.915 12.2871 15.2275C12.2969 15.5352 12.3115 15.8013 12.3311 16.0259C12.3506 16.2505 12.3726 16.4385 12.397 16.5898C12.4214 16.7412 12.4482 16.8682 12.4775 16.9707V17H10.7856V16.9707C10.8149 16.8682 10.8418 16.7412 10.8662 16.5898C10.8955 16.4385 10.9175 16.2505 10.9321 16.0259C10.9517 15.8013 10.9663 15.5352 10.9761 15.2275C10.9907 14.915 10.998 14.5513 10.998 14.1362V12.3638ZM10.8442 7.28076C10.8442 7.17334 10.8638 7.07324 10.9028 6.98047C10.9468 6.88281 11.0029 6.7998 11.0713 6.73145C11.1396 6.6582 11.2202 6.60205 11.313 6.56299C11.4106 6.51904 11.5156 6.49707 11.6279 6.49707C11.7402 6.49707 11.8428 6.51904 11.9355 6.56299C12.0332 6.60205 12.1162 6.6582 12.1846 6.73145C12.2578 6.7998 12.314 6.88281 12.353 6.98047C12.397 7.07324 12.4189 7.17334 12.4189 7.28076C12.4189 7.50537 12.3433 7.69336 12.1919 7.84473C12.0405 7.99609 11.8525 8.07178 11.6279 8.07178C11.5156 8.07178 11.4106 8.05225 11.313 8.01318C11.2202 7.96924 11.1396 7.91309 11.0713 7.84473C11.0029 7.77148 10.9468 7.68848 10.9028 7.5957C10.8638 7.49805 10.8442 7.39307 10.8442 7.28076ZM17.8535 17.1318C17.3115 17.1318 16.8037 17.0464 16.3301 16.8755C15.8564 16.7046 15.4438 16.4556 15.0923 16.1284C14.7407 15.7964 14.4624 15.3887 14.2573 14.9053C14.0571 14.417 13.957 13.8604 13.957 13.2354C13.957 12.6836 14.0498 12.1733 14.2354 11.7046C14.4209 11.231 14.6772 10.8208 15.0044 10.4741C15.3315 10.1274 15.7124 9.85645 16.147 9.66113C16.5864 9.46582 17.0601 9.36816 17.5679 9.36816C18.0708 9.36816 18.5371 9.45605 18.9668 9.63184C19.3965 9.80273 19.7676 10.0542 20.0801 10.3862C20.3975 10.7134 20.6465 11.1211 20.8271 11.6094C21.0127 12.0928 21.1128 12.6445 21.1274 13.2646C20.5757 13.2549 20.0239 13.2476 19.4722 13.2427C18.9204 13.2378 18.3467 13.2354 17.751 13.2354C17.3262 13.2354 16.9111 13.2378 16.5059 13.2427C16.1055 13.2476 15.7441 13.2549 15.4219 13.2646C15.4512 13.7725 15.5293 14.2314 15.6562 14.6416C15.7881 15.0518 15.9663 15.4033 16.1909 15.6963C16.4204 15.9844 16.6963 16.2065 17.0186 16.3628C17.3457 16.519 17.7144 16.5972 18.1245 16.5972C18.4077 16.5972 18.6738 16.5654 18.9229 16.502C19.1768 16.4336 19.4062 16.3408 19.6113 16.2236C19.8164 16.1064 19.9995 15.9697 20.1606 15.8135C20.3218 15.6523 20.4585 15.479 20.5708 15.2935L20.6587 15.3374L20.1167 16.6411C19.853 16.7778 19.5381 16.895 19.1719 16.9927C18.8057 17.0854 18.3662 17.1318 17.8535 17.1318ZM16.8794 12.6641C17.3677 12.6641 17.856 12.6641 18.3442 12.6641C18.8374 12.6592 19.2842 12.6494 19.6846 12.6348C19.6406 12.21 19.5576 11.8291 19.4355 11.4922C19.3135 11.1553 19.1572 10.8696 18.9668 10.6353C18.7764 10.4009 18.5518 10.2202 18.293 10.0933C18.0342 9.96631 17.7485 9.90283 17.436 9.90283C17.1528 9.90283 16.8916 9.96631 16.6523 10.0933C16.418 10.2153 16.2129 10.3936 16.0371 10.6279C15.8613 10.8623 15.7197 11.1504 15.6123 11.4922C15.5049 11.8291 15.4414 12.2148 15.4219 12.6494C15.6416 12.6592 15.8735 12.6641 16.1177 12.6641C16.3618 12.6641 16.6157 12.6641 16.8794 12.6641ZM27.5874 12.0635C27.5874 11.7412 27.5532 11.4629 27.4849 11.2285C27.4214 10.9941 27.3262 10.8013 27.1992 10.6499C27.0771 10.4937 26.9282 10.3789 26.7524 10.3057C26.5767 10.2275 26.3813 10.1885 26.1665 10.1885C26.02 10.1885 25.8564 10.2178 25.6758 10.2764C25.4951 10.335 25.3071 10.4155 25.1118 10.5181C24.9214 10.6157 24.7285 10.7305 24.5332 10.8623C24.3428 10.9941 24.1621 11.1357 23.9912 11.2871C23.9814 11.4434 23.9766 11.6118 23.9766 11.7925C23.9766 11.9683 23.9766 12.1587 23.9766 12.3638V14.1362C23.9766 14.5513 23.9814 14.915 23.9912 15.2275C24.001 15.5352 24.0156 15.8013 24.0352 16.0259C24.0547 16.2505 24.0767 16.4385 24.1011 16.5898C24.1255 16.7412 24.1523 16.8682 24.1816 16.9707V17H22.4897V16.9707C22.519 16.8682 22.5459 16.7412 22.5703 16.5898C22.5996 16.4385 22.6216 16.2505 22.6362 16.0259C22.6558 15.8013 22.6704 15.5352 22.6802 15.2275C22.6948 14.915 22.7021 14.5513 22.7021 14.1362V12.3638C22.7021 11.9487 22.6948 11.5874 22.6802 11.2798C22.6704 10.9673 22.6558 10.6987 22.6362 10.4741C22.6216 10.2495 22.5996 10.0615 22.5703 9.91016C22.5459 9.75879 22.519 9.63184 22.4897 9.5293V9.5H24.1816V9.5293C24.1426 9.6416 24.1108 9.78564 24.0864 9.96143C24.0669 10.1323 24.0449 10.3496 24.0205 10.6133C24.2158 10.457 24.4258 10.3032 24.6504 10.1519C24.875 10.0005 25.1045 9.86621 25.3389 9.74902C25.5781 9.63184 25.8174 9.53662 26.0566 9.46338C26.2959 9.39014 26.5327 9.35352 26.7671 9.35352C27.0454 9.35352 27.292 9.39014 27.5068 9.46338C27.7217 9.53662 27.9097 9.63672 28.0708 9.76367C28.2319 9.89062 28.3662 10.0396 28.4736 10.2104C28.5859 10.3813 28.6714 10.5645 28.73 10.7598C28.9302 10.5889 29.1475 10.4204 29.3818 10.2544C29.6211 10.0835 29.8652 9.93213 30.1143 9.80029C30.3682 9.66846 30.6245 9.56104 30.8833 9.47803C31.147 9.39502 31.4033 9.35352 31.6523 9.35352C32.0332 9.35352 32.3555 9.41943 32.6191 9.55127C32.8877 9.68311 33.105 9.85645 33.271 10.0713C33.4419 10.2861 33.564 10.5327 33.6372 10.811C33.7153 11.0845 33.7544 11.3628 33.7544 11.646V14.1362C33.7544 14.5513 33.7593 14.915 33.769 15.2275C33.7788 15.5352 33.7935 15.8013 33.813 16.0259C33.8325 16.2505 33.8545 16.4385 33.8789 16.5898C33.9082 16.7412 33.9375 16.8682 33.9668 16.9707V17H32.2676V16.9707C32.2969 16.8682 32.3237 16.7412 32.3481 16.5898C32.3774 16.4385 32.4019 16.2505 32.4214 16.0259C32.4409 15.8013 32.4556 15.5352 32.4653 15.2275C32.4751 14.915 32.48 14.5513 32.48 14.1362V12.0635C32.48 11.4189 32.3506 10.9453 32.0918 10.6426C31.833 10.3398 31.4863 10.1885 31.0518 10.1885C30.9004 10.1885 30.7319 10.2178 30.5464 10.2764C30.3657 10.335 30.1777 10.4155 29.9824 10.5181C29.7871 10.6206 29.5918 10.7402 29.3965 10.877C29.2012 11.0088 29.0181 11.1504 28.8472 11.3018C28.8569 11.3604 28.8618 11.4189 28.8618 11.4775C28.8618 11.5361 28.8618 11.5923 28.8618 11.646V14.1362C28.8618 14.5513 28.8667 14.915 28.8765 15.2275C28.8911 15.5352 28.9058 15.8013 28.9204 16.0259C28.9399 16.2505 28.9619 16.4385 28.9863 16.5898C29.0156 16.7412 29.0449 16.8682 29.0742 16.9707V17H27.3823V16.9707C27.4116 16.8682 27.4385 16.7412 27.4629 16.5898C27.4873 16.4385 27.5093 16.2505 27.5288 16.0259C27.5483 15.8013 27.563 15.5352 27.5728 15.2275C27.5825 14.915 27.5874 14.5513 27.5874 14.1362V12.0635ZM35.959 12.2173C35.959 11.8022 35.9517 11.4409 35.937 11.1333C35.9272 10.8208 35.9126 10.5522 35.8931 10.3276C35.8784 10.103 35.8564 9.91504 35.8271 9.76367C35.8027 9.6123 35.7759 9.48535 35.7466 9.38281V9.35352H37.4385V9.38281C37.4141 9.45605 37.3921 9.53906 37.3726 9.63184C37.353 9.72461 37.3359 9.82959 37.3213 9.94678C37.6094 9.78076 37.9268 9.6416 38.2734 9.5293C38.625 9.41211 39.0132 9.35352 39.438 9.35352C39.98 9.35352 40.4731 9.44629 40.9175 9.63184C41.3667 9.8125 41.75 10.0737 42.0674 10.4155C42.3896 10.7573 42.6387 11.1699 42.8145 11.6533C42.9902 12.1367 43.0781 12.6787 43.0781 13.2793C43.0781 13.7822 42.9902 14.2656 42.8145 14.7295C42.6436 15.1934 42.3896 15.6035 42.0527 15.96C41.7207 16.3164 41.3105 16.6021 40.8223 16.8169C40.334 17.0269 39.7725 17.1318 39.1377 17.1318C38.7568 17.1318 38.4102 17.1025 38.0977 17.0439C37.7852 16.9854 37.4971 16.9097 37.2334 16.8169V17.8862C37.2334 18.3013 37.2383 18.6626 37.248 18.9702C37.2578 19.2827 37.2725 19.5513 37.292 19.7759C37.3115 20.0005 37.3335 20.1885 37.3579 20.3398C37.3823 20.4912 37.4092 20.6182 37.4385 20.7207V20.75H35.7466V20.7207C35.7759 20.6182 35.8027 20.4912 35.8271 20.3398C35.8564 20.1885 35.8784 20.0005 35.8931 19.7759C35.9126 19.5513 35.9272 19.2827 35.937 18.9702C35.9517 18.6626 35.959 18.3013 35.959 17.8862V12.2173ZM39.1816 9.90283C39.0156 9.90283 38.8447 9.9248 38.6689 9.96875C38.498 10.0078 38.3271 10.0664 38.1562 10.1445C37.9902 10.2178 37.8291 10.313 37.6729 10.4302C37.5215 10.5425 37.3848 10.6719 37.2627 10.8184C37.2529 11.0039 37.2456 11.2139 37.2407 11.4482C37.2358 11.6826 37.2334 11.939 37.2334 12.2173V16.0552C37.3311 16.1284 37.4409 16.1968 37.563 16.2603C37.6851 16.3237 37.8218 16.3823 37.9731 16.436C38.1294 16.4849 38.3027 16.5239 38.4932 16.5532C38.6885 16.5825 38.9033 16.5972 39.1377 16.5972C39.5186 16.5972 39.8628 16.5288 40.1704 16.3921C40.478 16.2554 40.7368 16.0576 40.9468 15.7988C41.1616 15.54 41.3252 15.2251 41.4375 14.854C41.5547 14.4829 41.6133 14.063 41.6133 13.5942C41.6133 13.0669 41.5693 12.5786 41.4814 12.1294C41.3936 11.6753 41.252 11.2847 41.0566 10.9575C40.8662 10.6255 40.6172 10.3667 40.3096 10.1812C40.002 9.99561 39.626 9.90283 39.1816 9.90283ZM44.7188 12.3638C44.7188 11.9487 44.7114 11.5874 44.6968 11.2798C44.687 10.9673 44.6724 10.6987 44.6528 10.4741C44.6382 10.2495 44.6162 10.0615 44.5869 9.91016C44.5625 9.75879 44.5356 9.63184 44.5063 9.5293V9.5H46.1982V9.5293C46.1592 9.6416 46.125 9.77832 46.0957 9.93945C46.0713 10.1006 46.0518 10.3081 46.0371 10.562C46.2178 10.4106 46.4058 10.2617 46.6011 10.1152C46.7964 9.96875 46.9966 9.83936 47.2017 9.72705C47.4067 9.61475 47.6143 9.52441 47.8242 9.45605C48.0391 9.3877 48.2539 9.35352 48.4688 9.35352C48.6006 9.35352 48.7153 9.36084 48.813 9.37549C48.9106 9.38525 48.9985 9.40234 49.0767 9.42676C49.1548 9.44629 49.2256 9.4707 49.2891 9.5C49.3525 9.52441 49.4136 9.54883 49.4722 9.57324L49.1133 10.9722L48.9888 10.9429C48.9302 10.728 48.8203 10.5571 48.6592 10.4302C48.498 10.2983 48.2783 10.2324 48 10.2324C47.8486 10.2324 47.6899 10.2593 47.5239 10.313C47.3579 10.3667 47.1895 10.4424 47.0186 10.54C46.8477 10.6328 46.6768 10.7427 46.5059 10.8696C46.335 10.9917 46.1689 11.1211 46.0078 11.2578C45.998 11.3994 45.9932 11.5532 45.9932 11.7192C45.9932 11.8853 45.9932 12.061 45.9932 12.2466V14.1362C45.9932 14.5513 45.998 14.915 46.0078 15.2275C46.0176 15.5352 46.0322 15.8013 46.0518 16.0259C46.0713 16.2505 46.0933 16.4385 46.1177 16.5898C46.1421 16.7412 46.1689 16.8682 46.1982 16.9707V17H44.5063V16.9707C44.5356 16.8682 44.5625 16.7412 44.5869 16.5898C44.6162 16.4385 44.6382 16.2505 44.6528 16.0259C44.6724 15.8013 44.687 15.5352 44.6968 15.2275C44.7114 14.915 44.7188 14.5513 44.7188 14.1362V12.3638ZM53.8887 17.1318C53.3467 17.1318 52.8389 17.0464 52.3652 16.8755C51.8916 16.7046 51.479 16.4556 51.1274 16.1284C50.7759 15.7964 50.4976 15.3887 50.2925 14.9053C50.0923 14.417 49.9922 13.8604 49.9922 13.2354C49.9922 12.6836 50.085 12.1733 50.2705 11.7046C50.4561 11.231 50.7124 10.8208 51.0396 10.4741C51.3667 10.1274 51.7476 9.85645 52.1821 9.66113C52.6216 9.46582 53.0952 9.36816 53.603 9.36816C54.106 9.36816 54.5723 9.45605 55.002 9.63184C55.4316 9.80273 55.8027 10.0542 56.1152 10.3862C56.4326 10.7134 56.6816 11.1211 56.8623 11.6094C57.0479 12.0928 57.1479 12.6445 57.1626 13.2646C56.6108 13.2549 56.0591 13.2476 55.5073 13.2427C54.9556 13.2378 54.3818 13.2354 53.7861 13.2354C53.3613 13.2354 52.9463 13.2378 52.541 13.2427C52.1406 13.2476 51.7793 13.2549 51.457 13.2646C51.4863 13.7725 51.5645 14.2314 51.6914 14.6416C51.8232 15.0518 52.0015 15.4033 52.2261 15.6963C52.4556 15.9844 52.7314 16.2065 53.0537 16.3628C53.3809 16.519 53.7495 16.5972 54.1597 16.5972C54.4429 16.5972 54.709 16.5654 54.958 16.502C55.2119 16.4336 55.4414 16.3408 55.6465 16.2236C55.8516 16.1064 56.0347 15.9697 56.1958 15.8135C56.3569 15.6523 56.4937 15.479 56.606 15.2935L56.6938 15.3374L56.1519 16.6411C55.8882 16.7778 55.5732 16.895 55.207 16.9927C54.8408 17.0854 54.4014 17.1318 53.8887 17.1318ZM52.9146 12.6641C53.4028 12.6641 53.8911 12.6641 54.3794 12.6641C54.8726 12.6592 55.3193 12.6494 55.7197 12.6348C55.6758 12.21 55.5928 11.8291 55.4707 11.4922C55.3486 11.1553 55.1924 10.8696 55.002 10.6353C54.8115 10.4009 54.5869 10.2202 54.3281 10.0933C54.0693 9.96631 53.7837 9.90283 53.4712 9.90283C53.188 9.90283 52.9268 9.96631 52.6875 10.0933C52.4531 10.2153 52.248 10.3936 52.0723 10.6279C51.8965 10.8623 51.7549 11.1504 51.6475 11.4922C51.54 11.8291 51.4766 12.2148 51.457 12.6494C51.6768 12.6592 51.9087 12.6641 52.1528 12.6641C52.397 12.6641 52.6509 12.6641 52.9146 12.6641Z" fill="white"></path><path d="M7.48 37.01C5.42667 36.6367 4.4 35.7617 4.4 34.385C4.4 33.4517 5.065 32.6583 6.395 32.005C7.74833 31.3517 9.37 31.025 11.26 31.025C13.71 31.025 15.5183 31.4917 16.685 32.425C17.8517 33.3583 18.435 34.91 18.435 37.08C18.435 37.2667 18.4233 37.955 18.4 39.145C18.3767 40.335 18.365 41.2217 18.365 41.805C18.365 44.4883 18.5867 46.495 19.03 47.825C18.0033 48.105 17.0933 48.245 16.3 48.245C14.62 48.245 13.64 47.5683 13.36 46.215C12.8 46.8683 12.0767 47.3933 11.19 47.79C10.3267 48.1633 9.45167 48.35 8.565 48.35C7.28167 48.35 6.19667 47.9417 5.31 47.125C4.44667 46.285 4.015 45.0483 4.015 43.415C4.015 42.1083 4.27167 41.1517 4.785 40.545C5.32167 39.9383 6.045 39.4833 6.955 39.18C8.72833 38.62 10.8283 38.27 13.255 38.13C13.255 36.7067 13.0917 35.715 12.765 35.155C12.4617 34.5717 11.8083 34.28 10.805 34.28C10.2217 34.28 9.59167 34.525 8.915 35.015C8.26167 35.505 7.78333 36.17 7.48 37.01ZM13.22 40.65C12.52 40.7667 11.9833 40.8717 11.61 40.965C11.2367 41.0583 10.8283 41.21 10.385 41.42C9.965 41.6067 9.66167 41.8633 9.475 42.19C9.31167 42.4933 9.23 42.8783 9.23 43.345C9.23 43.9283 9.37 44.3717 9.65 44.675C9.93 44.955 10.28 45.095 10.7 45.095C11.68 45.095 12.4967 44.8033 13.15 44.22C13.1267 44.01 13.115 43.66 13.115 43.17C13.115 42.33 13.15 41.49 13.22 40.65ZM23.6899 41.665V34.665C22.4766 34.6883 21.4383 34.77 20.5749 34.91C20.3883 34.3967 20.2949 33.9067 20.2949 33.44C20.2949 32.0633 21.2399 31.375 23.1299 31.375H23.6199C23.5733 29.9517 23.5033 28.7617 23.4099 27.805C24.1566 27.5017 25.0083 27.35 25.9649 27.35C26.5949 27.35 27.0849 27.385 27.4349 27.455C27.8083 27.5017 28.1583 27.6883 28.4849 28.015C28.8349 28.3417 29.0099 28.82 29.0099 29.45C29.0099 29.8233 28.9749 30.4767 28.9049 31.41C31.3316 31.41 33.2566 31.3167 34.6799 31.13C34.8433 31.4567 34.9249 31.9583 34.9249 32.635C34.9249 33.8717 34.2366 34.525 32.8599 34.595C31.9733 34.6417 30.6316 34.665 28.8349 34.665C28.7649 36.975 28.7299 39.285 28.7299 41.595C28.7299 42.155 28.7416 42.5867 28.7649 42.89C28.7883 43.17 28.8466 43.52 28.9399 43.94C29.0566 44.36 29.2433 44.6633 29.4999 44.85C29.7799 45.0367 30.1299 45.13 30.5499 45.13C31.7166 45.13 32.6499 44.78 33.3499 44.08C34.3066 44.7567 34.7849 45.445 34.7849 46.145C34.7849 46.7983 34.3766 47.335 33.5599 47.755C32.7666 48.1517 31.8099 48.35 30.6899 48.35C28.1466 48.35 26.3383 47.79 25.2649 46.67C24.2149 45.55 23.6899 43.8817 23.6899 41.665ZM53.2556 47.65C52.1123 47.9533 51.1323 48.105 50.3156 48.105C49.569 48.105 48.9273 47.9417 48.3906 47.615C47.8773 47.265 47.5973 46.7633 47.5506 46.11C45.8473 47.6033 44.004 48.35 42.0206 48.35C38.7306 48.35 37.0856 46.705 37.0856 43.415C37.0856 43.345 37.0973 42.4933 37.1206 40.86C37.1673 39.2267 37.1906 38.0017 37.1906 37.185C37.1906 34.7583 37.004 32.9383 36.6306 31.725C37.5406 31.4217 38.4856 31.27 39.4656 31.27C41.4723 31.27 42.4756 31.9817 42.4756 33.405C42.4756 34.175 42.4406 35.61 42.3706 37.71C42.3006 39.81 42.2656 41.07 42.2656 41.49C42.2656 42.61 42.4406 43.4733 42.7906 44.08C43.164 44.6867 43.619 44.99 44.1556 44.99C45.3456 44.99 46.454 44.4417 47.4806 43.345C47.4573 42.435 47.4456 41.0233 47.4456 39.11C47.4456 36.4033 47.364 33.9417 47.2006 31.725C48.134 31.4217 49.0323 31.27 49.8956 31.27C50.829 31.27 51.5523 31.41 52.0656 31.69C52.579 31.97 52.8356 32.5533 52.8356 33.44C52.8356 33.6733 52.8006 34.385 52.7306 35.575C52.684 36.765 52.649 37.6983 52.6256 38.375V40.895C52.6256 43.8583 52.8356 46.11 53.2556 47.65Z" fill="#F9D952"></path><path d="M58.8113 21.995C59.698 21.995 60.3863 22.1467 60.8763 22.45C61.3663 22.7533 61.6113 23.3483 61.6113 24.235C61.6113 24.375 61.5647 25.4017 61.4713 27.315C61.4013 29.2283 61.3663 30.6633 61.3663 31.62V41.21C61.3663 44.29 61.5647 46.4367 61.9613 47.65C60.9813 47.9533 60.013 48.105 59.0563 48.105C57.9597 48.105 57.1897 47.9183 56.7463 47.545C56.3263 47.1483 56.1163 46.5767 56.1163 45.83C56.1163 45.4567 56.128 44.64 56.1513 43.38C56.198 42.12 56.2213 41.0933 56.2213 40.3V30.64C56.2213 27.3033 56.1397 24.5733 55.9763 22.45C56.863 22.1467 57.808 21.995 58.8113 21.995ZM67.8071 37.01C65.7538 36.6367 64.7271 35.7617 64.7271 34.385C64.7271 33.4517 65.3921 32.6583 66.7221 32.005C68.0755 31.3517 69.6971 31.025 71.5871 31.025C74.0371 31.025 75.8455 31.4917 77.0121 32.425C78.1788 33.3583 78.7621 34.91 78.7621 37.08C78.7621 37.2667 78.7505 37.955 78.7271 39.145C78.7038 40.335 78.6921 41.2217 78.6921 41.805C78.6921 44.4883 78.9138 46.495 79.3571 47.825C78.3305 48.105 77.4205 48.245 76.6271 48.245C74.9471 48.245 73.9671 47.5683 73.6871 46.215C73.1271 46.8683 72.4038 47.3933 71.5171 47.79C70.6538 48.1633 69.7788 48.35 68.8921 48.35C67.6088 48.35 66.5238 47.9417 65.6371 47.125C64.7738 46.285 64.3421 45.0483 64.3421 43.415C64.3421 42.1083 64.5988 41.1517 65.1121 40.545C65.6488 39.9383 66.3721 39.4833 67.2821 39.18C69.0555 38.62 71.1555 38.27 73.5821 38.13C73.5821 36.7067 73.4188 35.715 73.0921 35.155C72.7888 34.5717 72.1355 34.28 71.1321 34.28C70.5488 34.28 69.9188 34.525 69.2421 35.015C68.5888 35.505 68.1105 36.17 67.8071 37.01ZM73.5471 40.65C72.8471 40.7667 72.3105 40.8717 71.9371 40.965C71.5638 41.0583 71.1555 41.21 70.7121 41.42C70.2921 41.6067 69.9888 41.8633 69.8021 42.19C69.6388 42.4933 69.5571 42.8783 69.5571 43.345C69.5571 43.9283 69.6971 44.3717 69.9771 44.675C70.2571 44.955 70.6071 45.095 71.0271 45.095C72.0071 45.095 72.8238 44.8033 73.4771 44.22C73.4538 44.01 73.4421 43.66 73.4421 43.17C73.4421 42.33 73.4771 41.49 73.5471 40.65ZM81.6371 39.705C81.6371 37.3017 82.3021 35.26 83.6321 33.58C84.9621 31.8767 86.6187 31.025 88.6021 31.025C89.9087 31.025 91.2271 31.4217 92.5571 32.215C92.6037 30.7217 92.6271 29.5433 92.6271 28.68C92.6271 26.1367 92.5337 24.06 92.3471 22.45C93.4204 22.1467 94.2021 21.995 94.6921 21.995C96.8621 21.995 97.9471 22.7417 97.9471 24.235C97.9471 25.6117 97.8887 28.26 97.7721 32.18C97.6787 36.1 97.6321 38.7717 97.6321 40.195C97.6321 43.8817 97.8537 46.425 98.2971 47.825C97.1771 48.105 96.2671 48.245 95.5671 48.245C94.5871 48.245 93.8871 48.07 93.4671 47.72C93.0471 47.3467 92.7671 46.845 92.6271 46.215C92.0204 46.845 91.3087 47.3583 90.4921 47.755C89.6987 48.1517 88.9404 48.35 88.2171 48.35C86.4204 48.35 84.8687 47.5333 83.5621 45.9C82.2787 44.2667 81.6371 42.2017 81.6371 39.705ZM92.4171 35.12C91.7171 34.6067 90.9937 34.35 90.2471 34.35C89.1971 34.35 88.3687 34.8167 87.7621 35.75C87.1554 36.66 86.8521 37.8733 86.8521 39.39C86.8521 41.07 87.1554 42.4583 87.7621 43.555C88.3687 44.6283 89.1154 45.165 90.0021 45.165C91.0287 45.165 91.8571 44.815 92.4871 44.115C92.4404 39.3083 92.4171 36.31 92.4171 35.12ZM115.305 46.04C113.742 47.58 111.688 48.35 109.145 48.35C106.602 48.35 104.548 47.58 102.985 46.04C101.445 44.5 100.675 42.4467 100.675 39.88C100.675 37.1967 101.445 35.05 102.985 33.44C104.548 31.83 106.602 31.025 109.145 31.025C111.688 31.025 113.742 31.83 115.305 33.44C116.868 35.05 117.65 37.1967 117.65 39.88C117.65 42.4467 116.868 44.5 115.305 46.04ZM112.435 40.58C112.435 38.8067 112.143 37.3367 111.56 36.17C110.977 34.98 110.172 34.385 109.145 34.385C108.142 34.385 107.348 34.8633 106.765 35.82C106.205 36.7767 105.925 38.0367 105.925 39.6C105.925 41.14 106.205 42.4233 106.765 43.45C107.348 44.4533 108.142 44.955 109.145 44.955C110.195 44.955 111 44.5583 111.56 43.765C112.143 42.9483 112.435 41.8867 112.435 40.58Z" fill="white"></path><path d="M3 64C11.4954 58.8679 20.9152 55.4298 30.7331 53.8779C40.6337 52.2079 50.7871 52.8048 60.4207 55.6231L63.9453 56.6965C65.0915 57.0785 66.2774 57.3551 67.4434 57.6515C69.7954 58.2219 72.1776 58.6616 74.5788 58.9686C79.3883 59.5886 84.2519 59.6792 89.0814 59.2386C93.9361 58.8111 98.7349 57.8976 103.405 56.5121C108.127 55.1779 112.686 53.3294 117 51C108.668 56.43 99.1809 59.8614 89.2868 61.0233C86.8088 61.3447 84.3125 61.5053 81.8135 61.5041C79.3103 61.5314 76.8077 61.4038 74.3204 61.1221C71.8338 60.8369 69.3653 60.4125 66.9267 59.8511C64.5085 59.2913 62.0373 58.5339 59.7582 57.8161C50.516 54.9777 40.6378 54.4377 30.9915 55.6231C26.1472 56.2359 21.3626 57.2492 16.6877 58.6525C11.9737 60.0252 7.39281 61.8149 3 64V64Z" fill="#F6E031"></path></svg>