<svg xmlns="http://www.w3.org/2000/svg" id="Layer_1" height="512" viewBox="0 0 90 90" width="512"><g><path d="m70.718 21h-23.813c-1.161-1.808-3.134-3-5.368-3h-8.078c-2.79 0-5.166 1.865-6.067 4.463l-.338.245c-2.538 1.835-4.054 4.874-4.054 8.127v26.165h-1.5c-.828 0-1.5.671-1.5 1.5v2.1c-5.554.611-9.9 5.611-9.9 11.669 0 6.468 4.956 11.731 11.046 11.731h8.614c4.064 0 7.709-2.341 9.632-6h2.108c.828 0 1.5-.671 1.5-1.5v-.681c1.203-.293 2.279-.932 3.121-1.819h24.597c5.118 0 9.282-4.411 9.282-9.833v-33.332c0-5.423-4.164-9.835-9.282-9.835zm-44.718 9.835c0-1.328.362-2.595 1-3.679v40.959c-.643-1.093-1-2.435-1-3.949zm3.761 50.165h-8.614c-4.438 0-8.047-3.917-8.047-8.731 0-4.392 3.006-8.026 6.9-8.633v1.864c0 .829.672 1.5 1.5 1.5h1.849c.636 2.526 2.124 4.608 4.251 5.815l.604.343c1.173 1.717 3.089 2.842 5.255 2.842h.541v.5c0 .829.672 1.5 1.5 1.5h.301c-1.495 1.856-3.665 3-6.04 3zm11.776-8h-.037-8.041c-1.907 0-3.459-1.686-3.459-3.757v-44.485c0-2.072 1.552-3.758 3.459-3.758h8.078c1.909 0 3.463 1.686 3.463 3.758v44.484c0 2.072-1.554 3.758-3.463 3.758zm35.463-8.833c0 3.768-2.818 6.833-6.282 6.833h-22.947c.145-.561.229-1.149.229-1.757v-44.485c0-.257-.017-.509-.043-.758h22.761c3.464 0 6.282 3.066 6.282 6.835z"></path><path d="m72.5 29h-20c-.828 0-1.5.671-1.5 1.5v8c0 .829.672 1.5 1.5 1.5h20c.828 0 1.5-.671 1.5-1.5v-8c0-.829-.672-1.5-1.5-1.5zm-1.5 8h-17v-5h17z"></path><path d="m55.198 43h-3.393c-.443 0-.805.432-.805.962v3.076c0 .531.362.962.804.962h3.393c.444 0 .803-.431.803-.962v-3.076c0-.53-.359-.962-.802-.962z"></path><path d="m64.197 43h-3.393c-.443 0-.804.432-.804.962v3.076c0 .531.361.962.804.962h3.393c.443 0 .803-.431.803-.962v-3.076c0-.53-.36-.962-.803-.962z"></path><path d="m73.196 43h-3.392c-.443 0-.804.432-.804.962v3.076c0 .531.361.962.804.962h3.392c.444 0 .804-.431.804-.962v-3.076c0-.53-.36-.962-.804-.962z"></path><path d="m55.198 51h-3.393c-.443 0-.805.431-.805.966v3.069c0 .534.362.965.804.965h3.393c.444 0 .803-.431.803-.965v-3.069c0-.535-.359-.966-.802-.966z"></path><path d="m64.197 51h-3.393c-.443 0-.804.431-.804.966v3.069c0 .534.361.965.804.965h3.393c.443 0 .803-.431.803-.965v-3.069c0-.535-.36-.966-.803-.966z"></path><path d="m73.196 51h-3.392c-.443 0-.804.431-.804.966v3.069c0 .534.361.965.804.965h3.392c.444 0 .804-.431.804-.965v-3.069c0-.535-.36-.966-.804-.966z"></path><path d="m55.198 59h-3.393c-.443 0-.805.433-.805.964v3.073c0 .531.362.963.804.963h3.393c.444 0 .803-.432.803-.963v-3.073c0-.531-.359-.964-.802-.964z"></path><path d="m64.197 59h-3.393c-.443 0-.804.433-.804.964v3.073c0 .531.361.963.804.963h3.393c.443 0 .803-.432.803-.963v-3.073c0-.531-.36-.964-.803-.964z"></path><path d="m73.196 59h-3.392c-.443 0-.804.433-.804.964v3.073c0 .531.361.963.804.963h3.392c.444 0 .804-.432.804-.963v-3.073c0-.531-.36-.964-.804-.964z"></path></g></svg>