<svg xmlns="http://www.w3.org/2000/svg" width="58" height="58" viewBox="0 0 58 58" fill="none"><mask id="path-1-outside-1_47_121" maskUnits="userSpaceOnUse" x="0" y="0" width="58" height="58" fill="black"><rect fill="white" width="58" height="58"></rect><path d="M29.0157 1C17.8099 0.998367 7.68231 7.67788 3.27173 17.9792L2.92266 18.0949L3.058 18.5009C-2.7492 32.8236 4.15385 49.1421 18.4765 54.9493C21.8217 56.3057 25.3977 57.002 29.0075 57C44.4714 57.0023 57.0093 44.4681 57.0117 29.0042C57.014 13.5403 44.4798 1.00222 29.0157 1ZM50.9786 43.1171L49.5408 41.6803V38.3333C49.5424 38.1889 49.5105 38.0461 49.4475 37.9161L45.8075 30.6464V27.1333C45.8075 26.8214 45.6517 26.5299 45.3921 26.3568L42.5921 24.4901C42.3727 24.3436 42.1014 24.2968 41.8455 24.3613L38.4164 25.2181L32.6568 22.7467L31.8644 17.1952L34.0605 15H38.7748L40.3615 17.3847C40.5047 17.5991 40.7305 17.7448 40.9849 17.7869L46.5849 18.7203C46.735 18.7455 46.8887 18.7332 47.0329 18.6848L52.1905 16.9656C56.5164 25.267 56.0537 35.2515 50.9786 43.1171ZM47.1291 10.1971L45.6115 11.2088L41.3807 10.3623L38.6357 9.44853C38.4677 9.39148 38.2869 9.38425 38.1149 9.428L34.6448 10.2951L33.1235 9.78827L34.2509 7.53333H37.4075C37.5522 7.53345 37.695 7.49997 37.8247 7.43533L41.054 5.82067C43.2779 6.9815 45.3238 8.45523 47.1291 10.1971ZM18.7847 4.9508L21.0247 6.44413C21.1348 6.5174 21.2592 6.5664 21.3896 6.58787L25.9125 7.342L25.4711 8.66267L23.1144 9.44947C22.9033 9.5197 22.7243 9.66297 22.6095 9.8536L19.9289 14.3205L15.6235 16.904L9.2768 17.8103C8.81678 17.8752 8.47471 18.2688 8.47413 18.7333V21.5333C8.47413 21.7809 8.5726 22.0182 8.7476 22.1932L10.3408 23.7864V25.3899L6.45813 22.8008L5.04973 18.5756C7.72933 12.4529 12.6406 7.58093 18.7847 4.9508ZM16.1275 35.552L11.9088 34.7073L10.3408 31.5797V29.3864L13.8184 25.9088L15.1055 28.4839C15.2635 28.8003 15.5871 29.0001 15.9408 29H21.9459L24.4743 33.214C24.643 33.4948 24.9465 33.6665 25.2741 33.6667H27.8688L27.2155 36.9399L23.6819 40.4735C23.5065 40.6484 23.4078 40.8856 23.4075 41.1333V43.4667L20.0475 45.9867C19.8125 46.1629 19.6741 46.4396 19.6741 46.7333V50.1045L18.5131 49.72L16.8741 45.6208V36.4667C16.8742 36.0231 16.562 35.6407 16.1275 35.552ZM13.3219 49.8998C4.52181 43.2977 0.800265 31.8905 4.01373 21.3691L4.78933 23.6949C4.85466 23.8917 4.9837 24.0613 5.15613 24.1765L9.8088 27.278L8.7476 28.3401C8.5726 28.5151 8.47413 28.7524 8.47413 29V31.8C8.47401 31.9448 8.5075 32.0876 8.57213 32.2172L10.4388 35.9505C10.5681 36.2084 10.8092 36.392 11.0921 36.448L15.0121 37.2311V45.8C15.012 45.9185 15.0345 46.0361 15.0784 46.1463L16.9451 50.8129C17.0473 51.0678 17.2566 51.2649 17.5172 51.3515L20.3172 52.2848C20.4108 52.3165 20.5088 52.3329 20.6075 52.3333C21.1229 52.3333 21.5408 51.9154 21.5408 51.4V47.2L24.9008 44.68C25.1358 44.5037 25.2741 44.2271 25.2741 43.9333V41.5197L28.734 38.0599C28.8641 37.9295 28.9527 37.7635 28.9888 37.5829L29.9221 32.9163C30.0232 32.4108 29.6953 31.9191 29.1898 31.8181C29.1297 31.8061 29.0687 31.8 29.0075 31.8H25.8024L23.274 27.586C23.1053 27.3052 22.8017 27.1334 22.4741 27.1333H16.5176L14.9141 23.9161C14.7798 23.6476 14.5246 23.46 14.2281 23.4121C13.9318 23.3609 13.6293 23.4587 13.4189 23.6735L12.2075 24.8803V23.4C12.2075 23.1524 12.109 22.9151 11.934 22.7401L10.3408 21.1469V19.5425L16.0733 18.724C16.1964 18.7061 16.3148 18.6639 16.4215 18.5999L21.0881 15.7999C21.219 15.7212 21.3287 15.6116 21.4073 15.4807L24.03 11.1099L26.5024 10.2848C26.7816 10.1932 27.0007 9.97423 27.0923 9.69493L28.0256 6.89493C28.1873 6.40552 27.9216 5.8776 27.4322 5.7159C27.3871 5.70097 27.3408 5.68953 27.2939 5.6816L21.8917 4.78093L20.9425 4.14813C26.8159 2.23643 33.1772 2.47303 38.8924 4.81547L37.1872 5.66667H33.6741C33.3186 5.66468 32.993 5.86488 32.8341 6.1828L30.9675 9.91613C30.7375 10.3774 30.925 10.9379 31.3863 11.1679C31.4256 11.1875 31.4662 11.2043 31.5079 11.2181L34.3079 12.1515C34.4759 12.2085 34.6567 12.2157 34.8287 12.172L38.2988 11.3049L40.8412 12.1515C40.8776 12.1645 40.915 12.1746 40.9532 12.1813L45.6199 13.1147C45.8625 13.1641 46.115 13.1144 46.3208 12.9765L48.4451 11.5597C49.4905 12.7242 50.43 13.9795 51.2525 15.3108L46.6605 16.8415L41.6887 16.0127L40.046 13.5487C39.8738 13.2905 39.5845 13.1349 39.2741 13.1333H33.6741C33.4266 13.1333 33.1893 13.2318 33.0143 13.4068L30.2143 16.2068C30.0064 16.4146 29.9085 16.7082 29.9501 16.9992L30.8835 23.5325C30.9305 23.8556 31.1428 24.1306 31.4435 24.2577L37.9768 27.0577C38.1639 27.1388 38.3728 27.1555 38.5704 27.1053L41.9033 26.2719L43.9408 27.6327V30.8667C43.9392 31.0111 43.9711 31.1539 44.0341 31.2839L47.6741 38.5536V42.0667C47.6741 42.3142 47.7726 42.5515 47.9476 42.7265L49.9001 44.68C41.2408 56.2222 24.864 58.5592 13.3219 49.8998Z"></path></mask><path d="M29.0157 1C17.8099 0.998367 7.68231 7.67788 3.27173 17.9792L2.92266 18.0949L3.058 18.5009C-2.7492 32.8236 4.15385 49.1421 18.4765 54.9493C21.8217 56.3057 25.3977 57.002 29.0075 57C44.4714 57.0023 57.0093 44.4681 57.0117 29.0042C57.014 13.5403 44.4798 1.00222 29.0157 1ZM50.9786 43.1171L49.5408 41.6803V38.3333C49.5424 38.1889 49.5105 38.0461 49.4475 37.9161L45.8075 30.6464V27.1333C45.8075 26.8214 45.6517 26.5299 45.3921 26.3568L42.5921 24.4901C42.3727 24.3436 42.1014 24.2968 41.8455 24.3613L38.4164 25.2181L32.6568 22.7467L31.8644 17.1952L34.0605 15H38.7748L40.3615 17.3847C40.5047 17.5991 40.7305 17.7448 40.9849 17.7869L46.5849 18.7203C46.735 18.7455 46.8887 18.7332 47.0329 18.6848L52.1905 16.9656C56.5164 25.267 56.0537 35.2515 50.9786 43.1171ZM47.1291 10.1971L45.6115 11.2088L41.3807 10.3623L38.6357 9.44853C38.4677 9.39148 38.2869 9.38425 38.1149 9.428L34.6448 10.2951L33.1235 9.78827L34.2509 7.53333H37.4075C37.5522 7.53345 37.695 7.49997 37.8247 7.43533L41.054 5.82067C43.2779 6.9815 45.3238 8.45523 47.1291 10.1971ZM18.7847 4.9508L21.0247 6.44413C21.1348 6.5174 21.2592 6.5664 21.3896 6.58787L25.9125 7.342L25.4711 8.66267L23.1144 9.44947C22.9033 9.5197 22.7243 9.66297 22.6095 9.8536L19.9289 14.3205L15.6235 16.904L9.2768 17.8103C8.81678 17.8752 8.47471 18.2688 8.47413 18.7333V21.5333C8.47413 21.7809 8.5726 22.0182 8.7476 22.1932L10.3408 23.7864V25.3899L6.45813 22.8008L5.04973 18.5756C7.72933 12.4529 12.6406 7.58093 18.7847 4.9508ZM16.1275 35.552L11.9088 34.7073L10.3408 31.5797V29.3864L13.8184 25.9088L15.1055 28.4839C15.2635 28.8003 15.5871 29.0001 15.9408 29H21.9459L24.4743 33.214C24.643 33.4948 24.9465 33.6665 25.2741 33.6667H27.8688L27.2155 36.9399L23.6819 40.4735C23.5065 40.6484 23.4078 40.8856 23.4075 41.1333V43.4667L20.0475 45.9867C19.8125 46.1629 19.6741 46.4396 19.6741 46.7333V50.1045L18.5131 49.72L16.8741 45.6208V36.4667C16.8742 36.0231 16.562 35.6407 16.1275 35.552ZM13.3219 49.8998C4.52181 43.2977 0.800265 31.8905 4.01373 21.3691L4.78933 23.6949C4.85466 23.8917 4.9837 24.0613 5.15613 24.1765L9.8088 27.278L8.7476 28.3401C8.5726 28.5151 8.47413 28.7524 8.47413 29V31.8C8.47401 31.9448 8.5075 32.0876 8.57213 32.2172L10.4388 35.9505C10.5681 36.2084 10.8092 36.392 11.0921 36.448L15.0121 37.2311V45.8C15.012 45.9185 15.0345 46.0361 15.0784 46.1463L16.9451 50.8129C17.0473 51.0678 17.2566 51.2649 17.5172 51.3515L20.3172 52.2848C20.4108 52.3165 20.5088 52.3329 20.6075 52.3333C21.1229 52.3333 21.5408 51.9154 21.5408 51.4V47.2L24.9008 44.68C25.1358 44.5037 25.2741 44.2271 25.2741 43.9333V41.5197L28.734 38.0599C28.8641 37.9295 28.9527 37.7635 28.9888 37.5829L29.9221 32.9163C30.0232 32.4108 29.6953 31.9191 29.1898 31.8181C29.1297 31.8061 29.0687 31.8 29.0075 31.8H25.8024L23.274 27.586C23.1053 27.3052 22.8017 27.1334 22.4741 27.1333H16.5176L14.9141 23.9161C14.7798 23.6476 14.5246 23.46 14.2281 23.4121C13.9318 23.3609 13.6293 23.4587 13.4189 23.6735L12.2075 24.8803V23.4C12.2075 23.1524 12.109 22.9151 11.934 22.7401L10.3408 21.1469V19.5425L16.0733 18.724C16.1964 18.7061 16.3148 18.6639 16.4215 18.5999L21.0881 15.7999C21.219 15.7212 21.3287 15.6116 21.4073 15.4807L24.03 11.1099L26.5024 10.2848C26.7816 10.1932 27.0007 9.97423 27.0923 9.69493L28.0256 6.89493C28.1873 6.40552 27.9216 5.8776 27.4322 5.7159C27.3871 5.70097 27.3408 5.68953 27.2939 5.6816L21.8917 4.78093L20.9425 4.14813C26.8159 2.23643 33.1772 2.47303 38.8924 4.81547L37.1872 5.66667H33.6741C33.3186 5.66468 32.993 5.86488 32.8341 6.1828L30.9675 9.91613C30.7375 10.3774 30.925 10.9379 31.3863 11.1679C31.4256 11.1875 31.4662 11.2043 31.5079 11.2181L34.3079 12.1515C34.4759 12.2085 34.6567 12.2157 34.8287 12.172L38.2988 11.3049L40.8412 12.1515C40.8776 12.1645 40.915 12.1746 40.9532 12.1813L45.6199 13.1147C45.8625 13.1641 46.115 13.1144 46.3208 12.9765L48.4451 11.5597C49.4905 12.7242 50.43 13.9795 51.2525 15.3108L46.6605 16.8415L41.6887 16.0127L40.046 13.5487C39.8738 13.2905 39.5845 13.1349 39.2741 13.1333H33.6741C33.4266 13.1333 33.1893 13.2318 33.0143 13.4068L30.2143 16.2068C30.0064 16.4146 29.9085 16.7082 29.9501 16.9992L30.8835 23.5325C30.9305 23.8556 31.1428 24.1306 31.4435 24.2577L37.9768 27.0577C38.1639 27.1388 38.3728 27.1555 38.5704 27.1053L41.9033 26.2719L43.9408 27.6327V30.8667C43.9392 31.0111 43.9711 31.1539 44.0341 31.2839L47.6741 38.5536V42.0667C47.6741 42.3142 47.7726 42.5515 47.9476 42.7265L49.9001 44.68C41.2408 56.2222 24.864 58.5592 13.3219 49.8998Z" fill="#004A92"></path><path d="M29.0157 1C17.8099 0.998367 7.68231 7.67788 3.27173 17.9792L2.92266 18.0949L3.058 18.5009C-2.7492 32.8236 4.15385 49.1421 18.4765 54.9493C21.8217 56.3057 25.3977 57.002 29.0075 57C44.4714 57.0023 57.0093 44.4681 57.0117 29.0042C57.014 13.5403 44.4798 1.00222 29.0157 1ZM50.9786 43.1171L49.5408 41.6803V38.3333C49.5424 38.1889 49.5105 38.0461 49.4475 37.9161L45.8075 30.6464V27.1333C45.8075 26.8214 45.6517 26.5299 45.3921 26.3568L42.5921 24.4901C42.3727 24.3436 42.1014 24.2968 41.8455 24.3613L38.4164 25.2181L32.6568 22.7467L31.8644 17.1952L34.0605 15H38.7748L40.3615 17.3847C40.5047 17.5991 40.7305 17.7448 40.9849 17.7869L46.5849 18.7203C46.735 18.7455 46.8887 18.7332 47.0329 18.6848L52.1905 16.9656C56.5164 25.267 56.0537 35.2515 50.9786 43.1171ZM47.1291 10.1971L45.6115 11.2088L41.3807 10.3623L38.6357 9.44853C38.4677 9.39148 38.2869 9.38425 38.1149 9.428L34.6448 10.2951L33.1235 9.78827L34.2509 7.53333H37.4075C37.5522 7.53345 37.695 7.49997 37.8247 7.43533L41.054 5.82067C43.2779 6.9815 45.3238 8.45523 47.1291 10.1971ZM18.7847 4.9508L21.0247 6.44413C21.1348 6.5174 21.2592 6.5664 21.3896 6.58787L25.9125 7.342L25.4711 8.66267L23.1144 9.44947C22.9033 9.5197 22.7243 9.66297 22.6095 9.8536L19.9289 14.3205L15.6235 16.904L9.2768 17.8103C8.81678 17.8752 8.47471 18.2688 8.47413 18.7333V21.5333C8.47413 21.7809 8.5726 22.0182 8.7476 22.1932L10.3408 23.7864V25.3899L6.45813 22.8008L5.04973 18.5756C7.72933 12.4529 12.6406 7.58093 18.7847 4.9508ZM16.1275 35.552L11.9088 34.7073L10.3408 31.5797V29.3864L13.8184 25.9088L15.1055 28.4839C15.2635 28.8003 15.5871 29.0001 15.9408 29H21.9459L24.4743 33.214C24.643 33.4948 24.9465 33.6665 25.2741 33.6667H27.8688L27.2155 36.9399L23.6819 40.4735C23.5065 40.6484 23.4078 40.8856 23.4075 41.1333V43.4667L20.0475 45.9867C19.8125 46.1629 19.6741 46.4396 19.6741 46.7333V50.1045L18.5131 49.72L16.8741 45.6208V36.4667C16.8742 36.0231 16.562 35.6407 16.1275 35.552ZM13.3219 49.8998C4.52181 43.2977 0.800265 31.8905 4.01373 21.3691L4.78933 23.6949C4.85466 23.8917 4.9837 24.0613 5.15613 24.1765L9.8088 27.278L8.7476 28.3401C8.5726 28.5151 8.47413 28.7524 8.47413 29V31.8C8.47401 31.9448 8.5075 32.0876 8.57213 32.2172L10.4388 35.9505C10.5681 36.2084 10.8092 36.392 11.0921 36.448L15.0121 37.2311V45.8C15.012 45.9185 15.0345 46.0361 15.0784 46.1463L16.9451 50.8129C17.0473 51.0678 17.2566 51.2649 17.5172 51.3515L20.3172 52.2848C20.4108 52.3165 20.5088 52.3329 20.6075 52.3333C21.1229 52.3333 21.5408 51.9154 21.5408 51.4V47.2L24.9008 44.68C25.1358 44.5037 25.2741 44.2271 25.2741 43.9333V41.5197L28.734 38.0599C28.8641 37.9295 28.9527 37.7635 28.9888 37.5829L29.9221 32.9163C30.0232 32.4108 29.6953 31.9191 29.1898 31.8181C29.1297 31.8061 29.0687 31.8 29.0075 31.8H25.8024L23.274 27.586C23.1053 27.3052 22.8017 27.1334 22.4741 27.1333H16.5176L14.9141 23.9161C14.7798 23.6476 14.5246 23.46 14.2281 23.4121C13.9318 23.3609 13.6293 23.4587 13.4189 23.6735L12.2075 24.8803V23.4C12.2075 23.1524 12.109 22.9151 11.934 22.7401L10.3408 21.1469V19.5425L16.0733 18.724C16.1964 18.7061 16.3148 18.6639 16.4215 18.5999L21.0881 15.7999C21.219 15.7212 21.3287 15.6116 21.4073 15.4807L24.03 11.1099L26.5024 10.2848C26.7816 10.1932 27.0007 9.97423 27.0923 9.69493L28.0256 6.89493C28.1873 6.40552 27.9216 5.8776 27.4322 5.7159C27.3871 5.70097 27.3408 5.68953 27.2939 5.6816L21.8917 4.78093L20.9425 4.14813C26.8159 2.23643 33.1772 2.47303 38.8924 4.81547L37.1872 5.66667H33.6741C33.3186 5.66468 32.993 5.86488 32.8341 6.1828L30.9675 9.91613C30.7375 10.3774 30.925 10.9379 31.3863 11.1679C31.4256 11.1875 31.4662 11.2043 31.5079 11.2181L34.3079 12.1515C34.4759 12.2085 34.6567 12.2157 34.8287 12.172L38.2988 11.3049L40.8412 12.1515C40.8776 12.1645 40.915 12.1746 40.9532 12.1813L45.6199 13.1147C45.8625 13.1641 46.115 13.1144 46.3208 12.9765L48.4451 11.5597C49.4905 12.7242 50.43 13.9795 51.2525 15.3108L46.6605 16.8415L41.6887 16.0127L40.046 13.5487C39.8738 13.2905 39.5845 13.1349 39.2741 13.1333H33.6741C33.4266 13.1333 33.1893 13.2318 33.0143 13.4068L30.2143 16.2068C30.0064 16.4146 29.9085 16.7082 29.9501 16.9992L30.8835 23.5325C30.9305 23.8556 31.1428 24.1306 31.4435 24.2577L37.9768 27.0577C38.1639 27.1388 38.3728 27.1555 38.5704 27.1053L41.9033 26.2719L43.9408 27.6327V30.8667C43.9392 31.0111 43.9711 31.1539 44.0341 31.2839L47.6741 38.5536V42.0667C47.6741 42.3142 47.7726 42.5515 47.9476 42.7265L49.9001 44.68C41.2408 56.2222 24.864 58.5592 13.3219 49.8998Z" stroke="#004A92" stroke-width="1.6" mask="url(#path-1-outside-1_47_121)"></path></svg>