<svg xmlns="http://www.w3.org/2000/svg" width="315" height="295" viewBox="0 0 315 295" fill="none"><path d="M131.209 282.419C63.6062 274.043 12.6264 216.271 12.6264 148.041C12.6264 73.3733 73.3733 12.6264 148.041 12.6264C222.709 12.6264 283.456 73.3733 283.456 148.041C283.456 152.884 283.198 157.767 282.687 162.552C282.421 165.042 282.084 167.543 281.68 170.022L266.671 168.015C264.434 167.717 262.211 168.633 260.832 170.419C259.456 172.205 259.137 174.592 259.995 176.677L276.378 216.449C277.237 218.536 279.143 220.004 281.38 220.302C281.659 220.339 281.94 220.358 282.217 220.358C284.16 220.358 286.012 219.461 287.216 217.898L313.469 183.823C315.597 181.06 315.084 177.095 312.321 174.968C309.558 172.839 305.594 173.354 303.466 176.116L283.887 201.528L275.835 181.979L284.662 183.159C284.922 183.252 285.19 183.329 285.469 183.387C288.882 184.1 292.229 181.912 292.941 178.499C293.059 177.932 293.175 177.366 293.287 176.797C294.124 172.549 294.781 168.206 295.24 163.887C295.796 158.658 296.08 153.328 296.08 148.039C296.08 128.056 292.164 108.668 284.443 90.4131C276.986 72.783 266.313 56.9517 252.718 43.3572C239.124 29.7627 223.293 19.0898 205.665 11.6325C187.412 3.91542 168.024 0 148.041 0C128.058 0 108.67 3.91542 90.4152 11.6368C72.7851 19.0941 56.9539 29.767 43.3615 43.3615C29.767 56.9538 19.0919 72.7851 11.6368 90.4152C3.91542 108.67 0 128.058 0 148.041C0 184.372 13.2897 219.313 37.4197 246.426C61.348 273.313 94.1052 290.546 129.657 294.951C129.921 294.983 130.183 295 130.441 295C133.581 295 136.303 292.658 136.698 289.462C137.128 286.001 134.67 282.848 131.209 282.419Z" fill="white"></path><path d="M90.8531 61.3095C92.023 63.3359 94.1439 64.4671 96.327 64.4671C97.3982 64.4671 98.4843 64.1945 99.4782 63.6192C102.499 61.8762 103.533 58.0144 101.79 54.9941L98.0014 48.4319C96.2583 45.4117 92.3966 44.377 89.3763 46.12C86.356 47.8631 85.3213 51.7248 87.0644 54.7451L90.8531 61.3095Z" fill="white"></path><path d="M198.083 247.038C199.253 249.065 201.373 250.196 203.556 250.196C204.628 250.196 205.714 249.924 206.708 249.348C209.728 247.605 210.763 243.743 209.02 240.723L205.231 234.161C203.488 231.141 199.626 230.106 196.606 231.849C193.585 233.592 192.551 237.454 194.294 240.474L198.083 247.038Z" fill="white"></path><path d="M237.629 102.331C238.7 102.331 239.786 102.058 240.78 101.483L247.342 97.6942C250.363 95.9512 251.397 92.0894 249.654 89.0691C247.911 86.0489 244.05 85.0142 241.029 86.7573L234.467 90.546C231.447 92.2891 230.412 96.1508 232.155 99.1711C233.325 101.197 235.448 102.331 237.629 102.331Z" fill="white"></path><path d="M51.9005 209.561C52.9717 209.561 54.0579 209.288 55.0518 208.713L61.614 204.924C64.6342 203.181 65.6689 199.319 63.9258 196.299C62.1828 193.279 58.321 192.244 55.3008 193.987L48.7386 197.776C45.7183 199.519 44.6836 203.381 46.4267 206.401C47.5966 208.43 49.7196 209.561 51.9005 209.561Z" fill="white"></path><path d="M89.3743 249.35C90.3682 249.923 91.4544 250.198 92.5256 250.198C94.7065 250.198 96.8295 249.064 97.9994 247.04L101.788 240.478C103.531 237.458 102.497 233.596 99.4763 231.853C96.456 230.11 92.5942 231.145 90.8512 234.165L87.0624 240.727C85.3194 243.745 86.3541 247.607 89.3743 249.35Z" fill="white"></path><path d="M199.757 64.4669C201.938 64.4669 204.061 63.3335 205.231 61.3093L209.02 54.7471C210.763 51.7268 209.728 47.865 206.708 46.122C203.687 44.379 199.826 45.4136 198.083 48.4339L194.294 54.9961C192.551 58.0164 193.585 61.8781 196.606 63.6212C197.6 64.1943 198.686 64.4669 199.757 64.4669Z" fill="white"></path><path d="M61.614 90.5485L55.0518 86.7597C52.0315 85.0166 48.1697 86.0513 46.4267 89.0716C44.6836 92.0919 45.7183 95.9536 48.7386 97.6967L55.3008 101.485C56.2947 102.059 57.3808 102.333 58.452 102.333C60.6329 102.333 62.7559 101.2 63.9258 99.1757C65.6689 96.1533 64.6342 92.2915 61.614 90.5485Z" fill="white"></path><path d="M234.467 204.924L241.029 208.713C242.023 209.286 243.109 209.561 244.181 209.561C246.361 209.561 248.484 208.427 249.654 206.403C251.397 203.383 250.363 199.521 247.342 197.778L240.78 193.989C237.76 192.246 233.898 193.281 232.155 196.301C230.412 199.319 231.447 203.181 234.467 204.924Z" fill="white"></path><path d="M50.9129 147.736C50.9129 144.25 48.0858 141.423 44.5997 141.423H37.0222C33.5361 141.423 30.709 144.25 30.709 147.736C30.709 151.222 33.5361 154.049 37.0222 154.049H44.5997C48.0858 154.049 50.9129 151.222 50.9129 147.736Z" fill="white"></path><path d="M259.062 154.049C262.548 154.049 265.375 151.222 265.375 147.736C265.375 144.25 262.548 141.423 259.062 141.423H251.484C247.998 141.423 245.171 144.25 245.171 147.736C245.171 151.222 247.998 154.049 251.484 154.049H259.062Z" fill="white"></path><path d="M148.041 50.6087C151.527 50.6087 154.354 47.7816 154.354 44.2955V36.718C154.354 33.2319 151.527 30.4048 148.041 30.4048C144.555 30.4048 141.728 33.2319 141.728 36.718V44.2955C141.728 47.7816 144.555 50.6087 148.041 50.6087Z" fill="white"></path><path d="M148.041 244.864C144.555 244.864 141.728 247.691 141.728 251.177V258.754C141.728 262.241 144.555 265.068 148.041 265.068C151.527 265.068 154.354 262.241 154.354 258.754V251.177C154.354 247.691 151.529 244.864 148.041 244.864Z" fill="white"></path><path d="M148.041 166.62C158.454 166.62 166.925 158.15 166.925 147.736C166.925 139.539 161.672 132.547 154.356 129.943V67.0261C154.356 63.54 151.529 60.7129 148.043 60.7129C144.557 60.7129 141.73 63.54 141.73 67.0261V129.943C134.414 132.547 129.159 139.539 129.159 147.736C129.159 149.185 129.329 150.596 129.64 151.952L91.1172 175.655C88.1485 177.482 87.2211 181.372 89.0479 184.34C90.2414 186.279 92.3108 187.346 94.4316 187.346C95.5607 187.346 96.7027 187.043 97.7352 186.408L136.421 162.604C139.628 165.115 143.662 166.62 148.041 166.62ZM148.041 153.992C144.591 153.992 141.786 151.186 141.786 147.736C141.786 144.287 144.591 141.481 148.041 141.481C151.491 141.481 154.296 144.287 154.296 147.736C154.296 151.186 151.491 153.992 148.041 153.992Z" fill="white"></path></svg>